<svg width="177" height="176" viewBox="0 0 177 176" fill="none" xmlns="http://www.w3.org/2000/svg">
<path d="M155.442 42.2537L95.8288 8.93748C91.307 6.42123 85.6928 6.42123 81.171 8.93748L21.558 42.2537C16.9947 44.7975 14.1599 49.5687 14.1599 54.6837V121.316C14.1599 126.431 16.9947 131.202 21.558 133.746L81.171 167.062C83.4388 168.327 85.9694 168.96 88.4999 168.96C91.0305 168.96 93.561 168.327 95.8288 167.062L155.442 133.746C160.005 131.202 162.84 126.431 162.84 121.316V54.6837C162.84 49.5687 160.005 44.7975 155.442 42.2537ZM88.4999 130.24C65.0751 130.24 46.0199 111.292 46.0199 88C46.0199 64.7075 65.0751 45.76 88.4999 45.76C101.886 45.76 114.248 51.9337 122.282 62.4525L106.767 71.3762C102.107 66.3025 95.4831 63.36 88.4999 63.36C74.8377 63.36 63.7199 74.415 63.7199 88C63.7199 101.585 74.8377 112.64 88.4999 112.64C95.4831 112.64 102.107 109.697 106.767 104.624L122.282 113.547C114.248 124.066 101.886 130.24 88.4999 130.24ZM130.98 91.52H123.9V98.56H116.82V91.52H109.74V84.48H116.82V77.44H123.9V84.48H130.98V91.52ZM155.76 91.52H148.68V98.56H141.6V91.52H134.52V84.48H141.6V77.44H148.68V84.48H155.76V91.52Z" fill="black"/>
</svg>
