<svg width="251" height="222" viewBox="0 0 251 222" fill="none" xmlns="http://www.w3.org/2000/svg">
<path d="M94.338 142.459C86.7296 142.459 80.39 148.012 80.39 154.68V189.343C80.39 196.011 86.7296 201.568 94.338 201.568H120.285V210.033H107.29C106.394 210.033 105.506 210.188 104.677 210.489C103.849 210.789 103.096 211.23 102.462 211.786C101.828 212.342 101.325 213.001 100.982 213.728C100.639 214.454 100.462 215.232 100.462 216.018C100.463 217.605 101.182 219.126 102.463 220.248C103.744 221.37 105.48 222 107.29 222H146.937C148.747 221.999 150.483 221.369 151.763 220.247C153.043 219.125 153.762 217.604 153.762 216.018C153.763 214.431 153.044 212.909 151.764 211.787C150.484 210.665 148.748 210.034 146.937 210.033H133.938V201.568H159.889C167.498 201.568 173.837 196.011 173.837 189.343V154.68C173.837 148.012 167.498 142.459 159.889 142.459H94.338ZM94.338 154.426H159.891C160.171 154.426 160.185 154.435 160.185 154.68V189.343C160.185 189.588 160.17 189.601 159.891 189.601H94.338C94.0581 189.601 94.0448 189.588 94.0448 189.343V154.68C94.0448 154.435 94.0589 154.426 94.338 154.426Z" fill="black"/>
<path d="M13.9481 0C6.33973 0 0 5.55634 0 12.2246V46.8866C0 53.5549 6.33973 59.1112 13.9481 59.1112H39.8989V67.5771H26.8999C25.09 67.5776 23.3544 68.2079 22.0746 69.3296C20.7948 70.4512 20.0755 71.9723 20.0749 73.5586C20.0746 75.1454 20.7935 76.6674 22.0734 77.7897C23.3533 78.912 25.0894 79.5428 26.8999 79.5433H66.5469C67.4436 79.5435 68.3316 79.3887 69.1601 79.088C69.9887 78.7873 70.7415 78.3464 71.3756 77.7907C72.0097 77.2349 72.5126 76.5751 72.8557 75.849C73.1988 75.1228 73.3754 74.3446 73.3752 73.5586C73.3746 71.9718 72.6549 70.4502 71.3743 69.3285C70.0938 68.2067 68.3574 67.5768 66.5469 67.5771H53.5523V59.1112H79.5032C87.1116 59.1112 93.4468 53.5549 93.4468 46.8866V12.2246C93.4468 5.55634 87.1116 0 79.5032 0H13.9481ZM13.9481 11.9663H79.501C79.7808 11.9663 79.7899 11.9797 79.7899 12.2243V46.8865C79.7899 47.1318 79.7802 47.1407 79.501 47.1407H13.9481C13.6683 47.1407 13.6537 47.1312 13.6537 46.8865V12.2243C13.6537 11.9791 13.669 11.9663 13.9481 11.9663Z" fill="black"/>
<path d="M171.203 0C163.595 0 157.255 5.55634 157.255 12.2246V46.8866C157.255 53.5549 163.595 59.1112 171.203 59.1112H197.15V67.5771H184.155C183.258 67.5768 182.371 67.7313 181.542 68.0317C180.714 68.3322 179.961 68.7727 179.327 69.3281C178.693 69.8836 178.19 70.5431 177.846 71.269C177.503 71.9948 177.326 72.7728 177.326 73.5586C177.325 74.3446 177.502 75.123 177.845 75.8492C178.188 76.5754 178.691 77.2353 179.326 77.791C179.96 78.3468 180.713 78.7876 181.541 79.0883C182.37 79.3889 183.258 79.5436 184.155 79.5433H223.801C224.698 79.5436 225.586 79.3889 226.415 79.0883C227.243 78.7876 227.996 78.3468 228.63 77.791C229.265 77.2353 229.768 76.5754 230.111 75.8492C230.454 75.123 230.63 74.3446 230.63 73.5586C230.63 72.7728 230.453 71.9948 230.11 71.269C229.766 70.5431 229.263 69.8836 228.629 69.3281C227.995 68.7727 227.242 68.3322 226.414 68.0317C225.585 67.7313 224.697 67.5768 223.801 67.5771H210.808V59.1112H236.753C244.362 59.1112 250.701 53.5549 250.701 46.8866V12.2246C250.701 5.55634 244.362 0 236.753 0H171.203ZM171.203 11.9663H236.75C237.03 11.9663 237.045 11.9797 237.045 12.2243V46.8865C237.045 47.1318 237.03 47.1407 236.75 47.1407H171.203C170.923 47.1407 170.909 47.1312 170.909 46.8865V12.2243C170.909 11.9791 170.924 11.9663 171.203 11.9663Z" fill="black"/>
<path d="M94.2244 67.764C93.293 67.7665 92.3721 67.936 91.5183 68.2621C90.6645 68.5882 89.8957 69.064 89.2595 69.6602C88.6472 70.2343 88.1701 70.9086 87.8552 71.6445C87.5403 72.3803 87.3939 73.1634 87.4243 73.9488C87.4548 74.7343 87.6615 75.5067 88.0326 76.2221C88.4037 76.9376 88.932 77.582 89.5873 78.1184L118.02 101.403V125.844C118.02 126.63 118.197 127.408 118.541 128.134C118.884 128.86 119.387 129.519 120.021 130.075C120.655 130.63 121.408 131.071 122.237 131.371C123.065 131.672 123.953 131.826 124.849 131.826C126.659 131.825 128.395 131.195 129.675 130.073C130.955 128.952 131.674 127.431 131.674 125.844V100.762L159.326 78.1184C162.082 75.8622 162.229 72.075 159.654 69.6602C158.314 68.403 156.421 67.7119 154.459 67.764C152.799 67.8089 151.215 68.3823 150.003 69.3767L124.455 90.298L98.9124 69.3767C97.6416 68.3354 95.9651 67.7585 94.2253 67.764H94.2244Z" fill="black"/>
</svg>
