<svg width="199" height="208" viewBox="0 0 199 208" fill="none" xmlns="http://www.w3.org/2000/svg">
<path d="M74.7809 3.07642C32.1488 14.7947 0.978407 55.3693 0.698853 99.6059V110.445L9.0855 101.803L17.4721 93.1608L25.719 101.657L33.8261 110.006L34.6648 98.2876C35.6432 82.0284 43.331 65.1834 54.5132 54.4904C62.76 46.4341 76.3185 38.6707 84.4255 37.206C90.1564 36.1806 92.3929 34.2764 100.22 24.6088L105.811 17.5778L98.4033 8.78909C93.6509 3.36937 89.8769 0.000363231 88.0598 0.146842C86.5222 0.146842 80.5118 1.46515 74.7809 3.07642ZM74.082 24.9017C76.598 30.175 76.7378 32.2257 74.3616 32.2257C73.3831 32.2257 71.8456 30.175 70.8671 27.5384C69.7489 24.3158 68.7705 23.2905 67.792 24.3158C66.6738 25.4877 66.8136 27.0989 67.792 30.0285C68.9102 32.9581 68.9102 34.4229 67.792 35.1553C66.9534 35.7412 66.6738 37.206 67.0931 38.3778C67.6523 39.8426 66.8136 41.6003 64.7169 43.0651C59.9645 46.5806 57.0292 45.9947 55.9109 41.3074C55.4916 39.1102 53.9541 36.1806 52.8358 34.8623C50.879 32.5186 51.0187 31.9327 54.3734 27.8313C57.5883 23.7299 58.7065 23.437 58.1474 26.6595C58.1474 27.3919 58.7065 27.8313 59.4054 27.8313C61.3623 27.8313 61.0827 34.7158 59.1258 35.7412C58.1474 36.1806 58.8463 36.1806 60.8032 35.7412C65.5556 34.4229 65.6954 34.2764 63.8783 30.0285C61.6418 25.0482 61.7816 23.437 64.2976 23.437C65.4158 23.437 66.3943 22.7046 66.3943 21.9722C66.3943 18.6032 71.9854 20.8003 74.082 24.9017ZM45.5674 32.6651C43.7503 34.5693 41.9332 33.1046 43.331 30.9074C43.7503 30.0285 44.8685 29.7355 45.7072 30.175C46.5459 30.7609 46.5459 31.6398 45.5674 32.6651ZM51.5778 38.3778C53.395 41.0144 54.6529 43.651 54.2336 44.3834C53.2552 45.9947 45.4276 38.2313 45.4276 35.5947C45.4276 32.3722 47.8039 33.3975 51.5778 38.3778ZM42.9116 42.1862C41.9332 42.4792 41.2343 43.3581 41.2343 44.0905C41.2343 44.8228 42.4923 44.6764 44.0299 43.651C46.2663 42.0398 47.2447 42.1862 49.2016 44.3834C51.5778 46.8736 51.5778 47.1665 48.2232 50.2426C46.2663 52.0003 43.8901 55.2228 43.0514 57.5665C40.9548 62.4003 35.9228 62.8397 32.2886 58.7383C29.2135 55.2228 30.3317 50.389 34.525 49.0707C38.5785 47.6059 40.5354 50.2426 38.4388 54.1975C37.6001 55.9552 37.1808 57.713 37.6001 58.1524C38.0194 58.5918 38.8581 57.713 39.4172 56.2482C39.8365 54.7834 41.9332 52.0003 43.8901 50.0961L47.5243 46.8736L43.1912 47.7524C37.4603 48.9243 35.9228 45.1158 40.1161 40.7214C42.4923 38.2313 43.331 37.9383 43.7503 39.5496C44.1696 40.7214 43.7503 41.8933 42.9116 42.1862ZM32.009 61.6679C33.9659 62.6933 35.9228 64.451 36.3421 65.6228C37.6001 68.9918 34.2454 77.927 32.1488 77.0482C31.1703 76.7552 27.8157 75.5834 24.6008 74.558C18.0313 72.5073 17.3324 69.8707 21.8052 63.8651C25.0201 59.6172 26.8372 59.1778 32.009 61.6679Z" fill="black"/>
<path d="M55.2123 32.2261C55.2123 32.9585 55.9112 33.6909 56.6101 33.6909C57.4487 33.6909 58.0078 32.9585 58.0078 32.2261C58.0078 31.3473 57.4487 30.7613 56.6101 30.7613C55.9112 30.7613 55.2123 31.3473 55.2123 32.2261Z" fill="black"/>
<path d="M60.8031 39.5493C59.6849 40.2817 59.2656 41.307 59.8247 41.8929C60.3838 42.4788 61.6418 42.1859 62.4805 41.307C64.5771 39.1098 63.4589 37.7915 60.8031 39.5493Z" fill="black"/>
<path d="M24.0418 65.3297C21.9451 67.6733 23.2031 70.1635 27.3964 71.6283C33.2671 73.8255 33.1273 73.8255 32.5682 69.1381C32.2886 66.2086 31.3102 65.0367 28.6544 64.7438C26.6975 64.4508 24.6009 64.7438 24.0418 65.3297Z" fill="black"/>
<path d="M97.2852 2.48985C98.2636 3.95464 101.618 7.90957 104.693 11.4251L110.285 17.5772L102.038 26.3659L93.7908 35.1546H101.479C111.263 35.1546 124.122 38.6701 131.95 43.5039C146.906 52.7321 159.346 69.1377 163.54 85.5433C165.776 94.1855 166.894 95.9433 174.163 102.535C179.335 107.222 183.109 109.566 184.087 108.98C185.065 108.394 188.839 104.878 192.613 101.217C200.301 93.7461 200.441 91.9883 196.248 76.1686C184.786 32.518 145.788 -0.000285424 105.113 -0.000285424C96.167 -0.000285424 95.4681 0.146193 97.2852 2.48985ZM133.767 26.0729L134.186 34.4222L136.702 29.7349L139.079 25.0476L143.272 27.5377C147.745 30.1743 148.304 32.225 146.068 36.6194C144.949 38.8166 145.089 39.4025 147.046 39.256C148.444 39.256 150.82 39.6954 152.358 40.1349C155.013 41.1602 155.013 41.1602 152.777 39.1095C151.379 37.9377 150.261 36.6194 150.261 36.0335C150.261 34.1293 154.175 35.3011 156.411 37.7912C158.508 40.4278 158.508 40.8673 155.712 44.5292C151.239 50.3884 153.196 50.5349 159.766 44.6757C167.453 37.6447 168.572 40.7208 161.164 48.6306L155.153 54.9292L149.842 49.363C147.046 46.4335 144.67 43.3574 144.67 42.4785C144.67 41.7461 143.691 41.4532 142.573 41.8926C139.778 43.0645 139.917 39.6954 142.573 35.594C145.928 30.6138 142.014 29.4419 138.38 34.2757C135.584 37.9377 135.025 38.2307 132.23 36.4729C130.692 35.3011 129.294 33.6898 129.294 32.8109C129.294 30.3208 124.961 28.856 123.144 30.7602C121.467 32.518 119.51 32.6645 119.51 30.9067C119.51 30.3208 121.746 26.6588 124.402 22.9969C130.832 14.2081 133.208 15.087 133.767 26.0729ZM167.034 49.8025C167.034 50.6813 166.056 53.025 164.798 55.0757L162.422 58.7377L166.335 57.1264C169.41 55.9546 170.529 55.9546 171.367 57.4194C173.045 60.2025 156.551 64.0109 153.616 61.5208C150.68 58.7377 151.239 56.9799 154.874 57.8588C157.529 58.5912 158.787 57.7123 161.583 53.6109C164.937 48.3377 167.034 47.0194 167.034 49.8025ZM175.141 65.1827C177.517 70.6025 177.378 70.7489 171.367 69.8701C166.755 69.2841 166.056 69.5771 166.615 71.7743C167.034 73.532 168.572 74.2644 172.206 74.1179C178.077 73.9715 181.291 77.487 178.775 81.5884C176.399 85.6898 173.324 85.3968 171.507 81.0024C169.969 77.0475 169.969 77.0475 170.808 82.0278L171.507 87.1545L168.572 84.225C166.335 82.3208 165.776 80.4165 166.335 78.0729C166.755 76.1686 166.475 74.7039 165.776 74.7039C164.378 74.7039 161.024 65.7687 162.142 64.7433C162.561 64.3039 164.937 64.5968 167.593 65.4757C171.787 66.794 172.206 66.794 171.647 64.3039C170.529 60.2025 173.324 60.9349 175.141 65.1827Z" fill="black"/>
<path d="M127.197 24.9014C126.778 25.6338 127.058 26.3662 127.756 26.3662C128.595 26.3662 129.294 25.6338 129.294 24.9014C129.294 24.0226 129.014 23.4366 128.735 23.4366C128.316 23.4366 127.617 24.0226 127.197 24.9014Z" fill="black"/>
<path d="M148.164 43.9441C148.723 44.823 149.702 45.116 150.401 44.6765C152.357 43.3582 151.938 42.4793 149.422 42.4793C148.304 42.4793 147.745 43.2117 148.164 43.9441Z" fill="black"/>
<path d="M174.023 78.2198C174.023 79.5381 174.722 80.5635 175.421 80.5635C176.259 80.5635 176.818 79.9776 176.818 79.2452C176.818 78.3663 176.259 77.3409 175.421 76.9015C174.722 76.4621 174.023 77.048 174.023 78.2198Z" fill="black"/>
<path d="M62.201 104C62.201 108.834 62.7602 111.324 64.0182 111.324C65.1364 111.324 65.5557 109.127 65.2762 104C64.5773 94.4792 62.201 94.4792 62.201 104Z" fill="black"/>
<path d="M99.9409 98.1407C99.9409 98.8731 100.64 99.6055 101.339 99.6055C102.177 99.6055 102.736 98.8731 102.736 98.1407C102.736 97.2618 102.177 96.6759 101.339 96.6759C100.64 96.6759 99.9409 97.2618 99.9409 98.1407Z" fill="black"/>
<path d="M113.919 104C113.919 111.617 116.155 114.253 116.994 107.369C117.553 101.656 120.908 101.217 120.908 106.783C120.908 109.273 121.606 111.324 122.445 111.324C123.284 111.324 123.703 109.273 123.424 106.49C123.144 102.681 122.445 101.803 119.929 101.949C117.693 101.949 116.714 101.217 116.714 99.3124C116.714 97.8476 116.155 96.6758 115.316 96.6758C114.618 96.6758 113.919 99.8983 113.919 104Z" fill="black"/>
<path d="M8.38665 106.051L0 113.961L2.37622 125.825C11.4618 172.259 51.9972 207.854 95.7476 208H106.091L97.8442 199.211L89.5974 190.423L97.8442 181.634L106.091 172.845H98.5431C69.6092 172.699 41.9332 149.262 35.783 119.673C34.6648 114.84 32.7079 111.91 26.2782 105.904C21.8053 101.656 17.8915 98.141 17.4722 98.141C17.0529 98.141 12.9993 101.656 8.38665 106.051ZM26.8373 117.476C28.5146 115.279 28.6544 115.279 28.3748 118.648C28.0953 121.285 26.8373 122.456 23.4826 123.189C17.8915 124.361 14.6766 121.431 17.4722 117.916C19.0097 116.011 19.5688 116.011 22.0848 117.916C24.6008 119.82 25.1599 119.673 26.8373 117.476ZM28.6544 125.825C28.6544 126.558 27.1168 127.583 25.1599 128.023C20.2677 129.341 20.8268 131.831 25.8588 131.831C28.235 131.831 30.0522 132.417 30.0522 133.296C30.0522 134.028 28.5146 134.761 26.6975 134.761C24.8804 134.761 22.3644 135.2 21.1064 135.64C19.2893 136.372 18.87 135.493 18.87 131.392C18.87 128.609 19.7086 125.825 20.6871 125.532C23.6224 124.214 28.6544 124.507 28.6544 125.825ZM27.1168 139.448L28.6544 142.817L27.8157 139.301C27.2566 136.811 27.5362 136.079 28.7942 136.518C31.5897 137.397 32.009 142.817 29.493 144.868C25.0202 148.823 17.8915 143.11 21.5257 138.569C24.0417 135.493 25.1599 135.64 27.1168 139.448ZM31.3102 149.555C27.3964 152.631 28.5146 154.828 32.7079 152.192C36.9013 149.409 38.0195 151.752 34.1057 155.121C29.7726 158.783 31.4499 160.687 36.2024 157.465C39.1377 155.414 39.8366 155.268 39.8366 157.025C39.8366 158.051 38.0195 160.101 35.783 161.566C31.8693 163.91 31.7295 163.91 29.493 160.394C28.235 158.344 27.6759 156.732 28.235 156.732C28.9339 156.732 28.235 156 26.9771 155.121C23.3428 152.924 23.9019 149.848 28.235 147.358C33.4068 144.575 35.5035 146.186 31.3102 149.555ZM40.5355 164.056L36.4819 168.451H40.1161C42.073 168.451 44.0299 167.425 44.589 166.254C45.0083 165.082 45.9868 164.056 46.8255 164.056C49.2017 164.056 48.363 167.279 45.1481 170.941L42.073 174.31L38.1592 170.355L34.2455 166.4L37.3206 163.031C38.9979 161.127 41.2344 159.662 42.4923 159.662C43.8901 159.662 43.331 160.98 40.5355 164.056ZM34.3853 168.89C34.2455 170.648 32.2886 170.208 31.7295 168.304C31.3102 167.425 31.8693 166.839 32.8477 167.132C33.6864 167.572 34.3853 168.304 34.3853 168.89ZM54.3734 169.769C58.5668 174.603 53.395 181.341 47.9437 178.411C44.8686 176.8 44.7288 174.456 47.6641 170.208C50.3199 166.254 51.2983 166.254 54.3734 169.769ZM68.491 172.992C66.5341 176.068 71.1467 178.118 78.5549 177.532L85.9631 176.947V184.417V191.887H81.0709C78.4152 191.887 76.1787 191.155 76.1787 190.423C76.1787 189.544 77.4367 188.958 78.8345 188.958C80.372 188.958 82.0494 188.225 82.4687 187.493C82.888 186.614 82.0494 186.028 80.5118 186.028C78.8345 186.028 77.5765 185.296 77.5765 184.563C77.5765 183.685 78.8345 183.099 80.372 183.099C84.7051 183.099 83.7267 180.608 78.9743 179.876C74.6412 179.144 72.8241 181.341 74.2218 185.296C75.2003 187.786 72.6843 188.372 71.1467 185.882C70.5876 184.71 69.8887 184.856 69.0501 186.175C67.3727 189.104 65.975 186.614 67.5125 183.538C68.3512 181.927 68.491 179.876 67.9318 178.851C67.0932 177.532 66.2545 178.265 65.2761 181.341C64.1579 184.856 63.1794 185.589 60.943 185.003C56.1905 183.685 54.5132 180.608 56.4701 176.361C57.7281 173.431 58.8463 172.699 61.5021 173.138C63.5987 173.578 65.1363 173.138 65.5556 171.82C65.975 170.648 66.9534 170.208 67.7921 170.648C68.6307 171.234 68.9103 172.259 68.491 172.992Z" fill="black"/>
<path d="M49.2018 171.526C50.1802 172.552 51.2985 172.991 51.7178 172.552C52.1371 172.112 51.4382 171.233 50.0405 170.794C48.0836 169.915 47.9438 170.061 49.2018 171.526Z" fill="black"/>
<path d="M58.9862 177.972C57.868 180.755 60.8033 182.513 62.2011 180.023C63.4591 177.972 62.7602 175.775 60.8033 175.775C60.2442 175.775 59.4055 176.8 58.9862 177.972Z" fill="black"/>
<path d="M49.9006 103.707C47.804 111.031 47.804 112.349 49.9006 110.152C52.1371 107.808 56.1906 107.955 57.0293 110.152C57.3088 111.177 58.0077 111.617 58.5668 111.177C59.9646 109.713 55.7713 98.8733 53.5348 98.4338C52.2768 98.1409 50.8791 100.045 49.9006 103.707ZM55.2122 104C55.2122 105.611 54.2337 106.93 53.1155 106.93C50.7393 106.93 50.5995 106.637 51.8575 103.414C53.1155 100.045 55.2122 100.485 55.2122 104Z" fill="black"/>
<path d="M105.812 100.631C104.693 101.803 104.554 102.536 105.532 102.536C106.231 102.536 106.93 104.44 106.93 106.93C106.93 110.153 107.629 111.324 109.446 111.178C110.844 111.178 111.123 110.738 110.145 110.299C108.048 109.567 107.629 102.975 109.586 102.243C110.285 101.95 110.145 101.071 109.166 100.192C108.048 99.0201 107.07 99.1666 105.812 100.631Z" fill="black"/>
<path d="M165.636 105.612C165.636 115.865 162.282 129.341 157.669 137.544C148.863 153.217 133.208 166.254 117.553 170.648C109.446 172.992 107.629 174.164 101.339 181.781C97.5647 186.321 94.3499 190.569 94.3499 191.155C94.3499 191.595 97.5647 195.696 101.479 200.09C109.865 209.172 111.123 209.465 126.359 205.071C168.432 192.766 200.72 149.848 198.903 108.541L198.484 99.1666L190.377 106.93L182.27 114.693L173.883 106.051L165.636 97.5553V105.612ZM184.926 121.138C185.345 122.457 183.248 123.043 177.657 123.043C171.507 123.043 169.83 122.603 169.83 120.699C169.83 118.941 171.227 118.648 177.098 118.941C181.291 119.234 184.506 120.113 184.926 121.138ZM176.679 125.386C180.732 126.265 181.152 126.705 180.173 130.22C179.754 132.271 179.055 135.493 178.915 137.251C178.216 142.524 176.958 143.55 172.206 142.671L167.733 141.938L171.647 144.282C175.98 146.919 175.84 146.626 174.023 151.459C171.367 158.783 161.583 154.975 163.4 147.358C163.959 145.014 163.54 143.55 162.002 142.964C160.884 142.524 160.325 141.499 160.744 140.62C161.303 139.595 162.561 139.595 164.378 140.62C166.475 141.938 167.034 141.645 167.034 139.888C167.034 137.983 167.873 137.69 171.227 138.423C176.399 139.595 177.098 136.665 171.926 135.347C166.755 134.029 167.733 132.124 173.743 131.538L178.915 130.952L174.442 129.048C171.926 128.023 169.83 126.558 169.83 125.826C169.83 124.214 170.808 124.214 176.679 125.386ZM167.034 157.612C170.109 159.809 172.625 162.152 172.625 162.738C172.625 164.643 168.711 164.35 167.593 162.445C167.174 161.567 164.518 159.955 161.862 158.783C159.346 157.612 157.529 156 157.949 155.268C159.207 153.071 161.024 153.51 167.034 157.612ZM163.959 164.643C164.658 167.865 161.723 171.381 158.508 171.381C154.734 171.381 153.895 168.597 156.691 165.375C157.949 163.91 158.508 162.592 157.809 162.592C157.11 162.592 155.433 163.91 154.175 165.375C152.218 167.865 152.218 168.597 153.755 170.941C155.992 173.871 156.551 177.826 154.594 176.654C153.895 176.214 153.056 176.8 152.497 177.972C152.078 179.144 150.96 180.169 150.121 180.169C149.143 180.169 147.326 181.195 146.068 182.366C143.831 184.564 143.272 184.271 139.917 180.169C137.96 177.533 136.702 174.75 137.262 173.871C137.821 172.992 139.358 174.017 141.315 176.507C145.089 181.634 147.465 180.462 144.111 175.189C141.455 170.795 141.315 169.916 143.412 169.916C144.25 169.916 146.068 171.381 147.465 173.138C150.68 177.386 152.777 175.482 149.842 170.941C147.745 167.572 147.885 167.279 152.637 162.738C157.11 158.49 157.809 158.198 160.465 160.102C162.142 161.274 163.679 163.324 163.959 164.643ZM137.122 179.583C139.358 183.099 139.358 183.392 136.423 186.468C134.186 188.958 132.928 189.251 131.111 188.079C127.477 185.736 127.337 182.952 130.552 182.074C132.23 181.634 133.488 180.755 133.488 180.023C133.488 178.265 131.111 178.412 129.993 180.169C129.434 181.048 128.456 181.195 127.617 180.755C126.499 180.023 126.359 181.341 126.918 184.857C127.617 189.837 127.477 190.13 123.284 191.009C118.112 192.034 116.994 191.155 116.435 185.296C115.876 179.583 118.671 178.412 119.51 183.978C120.488 189.397 123.144 188.665 122.585 182.952C122.305 179.583 122.864 178.705 124.961 178.705C126.499 178.705 128.176 177.972 128.595 177.24C130.133 174.457 134.746 175.775 137.122 179.583ZM112.102 180.462C116.994 187.054 113.919 198.04 108.747 192.474C106.93 190.716 106.79 189.69 108.048 189.251C110.145 188.519 110.284 183.538 108.048 182.806C107.209 182.513 106.93 181.341 107.489 180.462C108.747 178.265 110.424 178.265 112.102 180.462Z" fill="black"/>
<path d="M165.636 148.53C165.636 150.581 169.69 153.071 170.948 151.752C171.227 151.313 171.227 149.995 170.808 148.676C169.69 145.893 165.636 145.747 165.636 148.53Z" fill="black"/>
<path d="M158.647 167.132C158.647 167.865 159.346 168.158 160.045 167.718C160.884 167.279 161.443 166.547 161.443 166.107C161.443 165.814 160.884 165.521 160.045 165.521C159.346 165.521 158.647 166.254 158.647 167.132Z" fill="black"/>
<path d="M132.09 184.563C132.09 185.295 132.789 186.028 133.488 186.028C134.326 186.028 134.885 185.295 134.885 184.563C134.885 183.684 134.326 183.098 133.488 183.098C132.789 183.098 132.09 183.684 132.09 184.563Z" fill="black"/>
<path d="M72.1251 100.924C69.05 101.803 68.6306 102.828 68.3511 108.834L68.0715 115.865L72.4046 115.425C77.856 114.839 78.4151 111.177 73.3831 109.859C69.8886 108.98 69.8886 108.98 72.9637 107.808C75.2002 107.076 76.0388 105.758 75.8991 103.121C75.7593 101.217 75.4797 99.6056 75.4797 99.7521C75.4797 99.8986 73.9422 100.338 72.1251 100.924ZM73.3831 104.732C73.3831 105.904 72.824 106.93 71.9853 106.93C71.2864 106.93 70.5875 105.904 70.5875 104.732C70.5875 103.561 71.2864 102.535 71.9853 102.535C72.824 102.535 73.3831 103.561 73.3831 104.732ZM74.082 112.789C74.5013 113.521 73.6626 114.253 71.9853 114.253C70.308 114.253 69.4693 113.521 69.8886 112.789C70.308 111.91 71.2864 111.324 71.9853 111.324C72.6842 111.324 73.6626 111.91 74.082 112.789Z" fill="black"/>
<path d="M79.5334 103.121C77.8561 107.662 79.5334 110.591 83.8665 110.591C87.6405 110.591 88.0599 110.152 88.0599 106.197C88.0599 102.535 87.5008 101.803 84.1461 101.363C81.7699 101.07 80.0925 101.656 79.5334 103.121ZM85.9632 106.197C85.9632 108.394 85.1245 109.859 84.0063 109.859C81.7699 109.859 80.5119 107.076 81.4903 104.293C82.6085 101.07 85.9632 102.388 85.9632 106.197Z" fill="black"/>
<path d="M91.5542 106.49C91.5542 109.127 92.2531 111.324 92.952 111.324C93.7906 111.324 94.3497 109.713 94.3497 107.662C94.3497 105.758 95.468 103.561 96.726 102.682C98.6829 101.657 98.4033 101.364 95.3282 101.51C92.1133 101.803 91.5542 102.389 91.5542 106.49Z" fill="black"/>
<path d="M99.9409 106.197C99.9409 108.981 100.64 111.324 101.339 111.324C102.177 111.324 102.736 108.981 102.736 106.197C102.736 103.414 102.177 101.071 101.339 101.071C100.64 101.071 99.9409 103.414 99.9409 106.197Z" fill="black"/>
<path d="M126.498 106.197C126.498 108.981 127.197 111.324 127.896 111.324C128.735 111.324 129.294 108.981 129.294 106.197C129.294 103.414 128.735 101.071 127.896 101.071C127.197 101.071 126.498 103.414 126.498 106.197Z" fill="black"/>
<path d="M134.127 108.238C134.128 108.264 134.129 108.29 134.13 108.316C134.17 108.125 134.212 107.923 134.256 107.709L134.256 107.709L134.256 107.706C134.578 106.171 135.02 104.947 135.518 104.066C135.999 103.213 136.593 102.576 137.268 102.415C137.631 102.329 137.992 102.389 138.31 102.594C138.615 102.79 138.85 103.1 139.029 103.472C139.384 104.212 139.579 105.324 139.579 106.783C139.579 107.988 139.748 109.067 140.006 109.827C140.136 110.21 140.279 110.485 140.414 110.654C140.48 110.737 140.534 110.782 140.571 110.805C140.588 110.816 140.6 110.82 140.607 110.822C140.613 110.824 140.615 110.824 140.616 110.824C140.616 110.824 140.616 110.824 140.616 110.824C140.617 110.824 140.622 110.822 140.631 110.816C140.652 110.802 140.692 110.767 140.743 110.688C140.847 110.527 140.953 110.253 141.035 109.851C141.196 109.057 141.234 107.902 141.097 106.54L141.097 106.538C140.992 105.436 140.89 104.634 140.726 104.031C140.564 103.438 140.355 103.087 140.068 102.845C139.772 102.597 139.334 102.417 138.615 102.286C137.897 102.155 136.957 102.083 135.695 102.009L135.695 102.009L135.689 102.009C134.646 101.936 133.814 101.9 133.172 101.907C132.517 101.914 132.107 101.965 131.879 102.04C131.862 102.046 131.847 102.051 131.833 102.056C131.842 102.072 131.853 102.091 131.866 102.112C131.928 102.208 132.027 102.331 132.172 102.483C132.73 103.069 133.215 103.986 133.559 104.992C133.905 106.003 134.126 107.153 134.127 108.238Z" fill="black"/>
<path d="M134.127 108.238C134.128 108.264 134.129 108.29 134.13 108.316C134.17 108.125 134.212 107.923 134.256 107.709L134.256 107.709L134.256 107.706C134.578 106.171 135.02 104.947 135.518 104.066C135.999 103.213 136.593 102.576 137.268 102.415C137.631 102.329 137.992 102.389 138.31 102.594C138.615 102.79 138.85 103.1 139.029 103.472C139.384 104.212 139.579 105.324 139.579 106.783C139.579 107.988 139.748 109.067 140.006 109.827C140.136 110.21 140.279 110.485 140.414 110.654C140.48 110.737 140.534 110.782 140.571 110.805C140.588 110.816 140.6 110.82 140.607 110.822C140.613 110.824 140.615 110.824 140.616 110.824C140.616 110.824 140.616 110.824 140.616 110.824C140.617 110.824 140.622 110.822 140.631 110.816C140.652 110.802 140.692 110.767 140.743 110.688C140.847 110.527 140.953 110.253 141.035 109.851C141.196 109.057 141.234 107.902 141.097 106.54L141.097 106.538C140.992 105.436 140.89 104.634 140.726 104.031C140.564 103.438 140.355 103.087 140.068 102.845C139.772 102.597 139.334 102.417 138.615 102.286C137.897 102.155 136.957 102.083 135.695 102.009L135.695 102.009L135.689 102.009C134.646 101.936 133.814 101.9 133.172 101.907C132.517 101.914 132.107 101.965 131.879 102.04C131.862 102.046 131.847 102.051 131.833 102.056C131.842 102.072 131.853 102.091 131.866 102.112C131.928 102.208 132.027 102.331 132.172 102.483C132.73 103.069 133.215 103.986 133.559 104.992C133.905 106.003 134.126 107.153 134.127 108.238Z" stroke="black"/>
<path d="M134.127 108.238C134.128 108.264 134.129 108.29 134.13 108.316C134.17 108.125 134.212 107.923 134.256 107.709L134.256 107.709L134.256 107.706C134.578 106.171 135.02 104.947 135.518 104.066C135.999 103.213 136.593 102.576 137.268 102.415C137.631 102.329 137.992 102.389 138.31 102.594C138.615 102.79 138.85 103.1 139.029 103.472C139.384 104.212 139.579 105.324 139.579 106.783C139.579 107.988 139.748 109.067 140.006 109.827C140.136 110.21 140.279 110.485 140.414 110.654C140.48 110.737 140.534 110.782 140.571 110.805C140.588 110.816 140.6 110.82 140.607 110.822C140.613 110.824 140.615 110.824 140.616 110.824C140.616 110.824 140.616 110.824 140.616 110.824C140.617 110.824 140.622 110.822 140.631 110.816C140.652 110.802 140.692 110.767 140.743 110.688C140.847 110.527 140.953 110.253 141.035 109.851C141.196 109.057 141.234 107.902 141.097 106.54L141.097 106.538C140.992 105.436 140.89 104.634 140.726 104.031C140.564 103.438 140.355 103.087 140.068 102.845C139.772 102.597 139.334 102.417 138.615 102.286C137.897 102.155 136.957 102.083 135.695 102.009L135.695 102.009L135.689 102.009C134.646 101.936 133.814 101.9 133.172 101.907C132.517 101.914 132.107 101.965 131.879 102.04C131.862 102.046 131.847 102.051 131.833 102.056C131.842 102.072 131.853 102.091 131.866 102.112C131.928 102.208 132.027 102.331 132.172 102.483C132.73 103.069 133.215 103.986 133.559 104.992C133.905 106.003 134.126 107.153 134.127 108.238Z" stroke="black" stroke-opacity="0.2"/>
<path d="M145.229 102.682C144.67 103.707 145.788 105.612 147.605 107.223L150.96 110.152L147.885 109.42C146.067 108.981 144.67 109.274 144.67 110.006C144.67 110.738 146.207 111.324 148.164 111.324C152.637 111.324 152.777 107.662 148.583 105.172L145.369 103.414L148.863 102.389C152.078 101.51 152.078 101.364 149.282 101.217C147.605 101.071 145.788 101.803 145.229 102.682Z" fill="black"/>
</svg>
