<svg width="191" height="182" viewBox="0 0 191 182" fill="none" xmlns="http://www.w3.org/2000/svg">
<path d="M28.2539 0.192073C28.1773 0.374632 27.7178 1.94464 27.2199 3.77023C26.3773 6.94676 25.4965 8.33421 24.3476 8.33421C24.0412 8.33421 22.3561 7.49444 20.5178 6.50862C18.6796 5.48629 17.0711 4.68303 16.9562 4.68303C16.6115 4.68303 5.00739 15.7461 5.00739 16.0747C5.00739 16.1842 5.84993 17.7177 6.92226 19.4703C7.95629 21.2229 8.83713 22.8294 8.83713 23.085C8.83713 24.2534 7.61161 24.9471 4.01165 25.8599L0.22021 26.8457V34.9878V43.13L3.97336 44.0793C7.61161 44.9921 8.83713 45.7223 8.83713 46.8907C8.83713 47.1463 7.95629 48.7528 6.92226 50.5054C5.84993 52.2579 5.00739 53.7914 5.00739 53.901C5.00739 54.2296 16.6115 65.2926 16.9562 65.2926C17.0711 65.2926 18.6796 64.4529 20.5178 63.4671C22.3561 62.4447 24.0412 61.6415 24.3093 61.6415C25.5348 61.6415 26.2625 62.8098 27.2199 66.242L28.2539 69.8566L30.973 69.9662L33.7305 70.0757V93.4067V116.774H20.8625C11.8626 116.774 7.49672 116.92 6.38609 117.212C4.27974 117.797 1.10105 120.827 0.488292 122.835C-0.162764 124.989 -0.162764 172.82 0.488292 174.974C1.10105 176.982 4.27974 180.013 6.38609 180.597C8.64564 181.218 64.9428 181.218 67.2024 180.597C69.3088 180.013 72.4874 176.982 73.1002 174.974C73.7513 172.856 73.7513 124.989 73.1002 122.908C72.8704 122.105 71.913 120.645 70.9938 119.695C68.313 116.847 67.8917 116.774 52.8026 116.774H39.858V93.4067V70.0757L42.6155 69.9662L45.3346 69.8566L46.3303 66.388C47.4792 62.3717 47.5941 62.1526 48.8196 61.8605C49.4707 61.7145 50.6962 62.1526 53.2621 63.5401L56.7855 65.4022L62.6833 59.7794C65.9386 56.6759 68.5811 54.047 68.5811 53.901C68.5811 53.7914 67.7386 52.2579 66.6662 50.5054C65.6322 48.7528 64.7514 47.1463 64.7514 46.8907C64.7514 45.7223 65.9769 45.0286 69.5768 44.1158L73.3683 43.13L73.4832 40.5376L73.5981 37.9088H76.6236H79.6874V45.7953C79.6874 55.1789 79.8788 55.9821 82.5597 58.538C85.2405 61.0938 86.083 61.2763 95.9255 61.2763H104.198V70.1852V79.1306L102.168 80.0069C99.6403 81.1023 97.6488 82.9644 96.2701 85.4837C95.351 87.1267 95.1978 87.8204 95.1978 90.4858C95.1978 93.1512 95.351 93.8449 96.2701 95.4879C97.6488 98.0072 99.6403 99.8693 102.168 100.965L104.198 101.841V118.089V134.3H113.389H122.58V145.107C122.58 152.556 122.734 156.426 123.04 157.448C123.653 159.457 126.831 162.487 128.938 163.071C131.197 163.692 181.367 163.692 183.627 163.071C185.733 162.487 188.912 159.457 189.524 157.448C190.175 155.294 190.175 107.464 189.524 105.31C188.912 103.301 185.733 100.271 183.627 99.6868C181.367 99.0661 131.197 99.0661 128.938 99.6868C126.831 100.271 123.653 103.301 123.04 105.31C122.734 106.332 122.58 110.202 122.58 117.651V128.458H116.453H110.325V115.168V101.841L112.355 100.965C114.883 99.8693 116.874 98.0072 118.253 95.4879C119.172 93.8449 119.325 93.1512 119.325 90.4858C119.325 87.8204 119.172 87.1267 118.253 85.4837C116.874 82.9644 114.883 81.1023 112.355 80.0069L110.325 79.1306V70.1852V61.2763H118.598C128.44 61.2763 129.283 61.0938 131.963 58.538C134.644 55.9821 134.836 55.1789 134.836 45.7953V37.9088H141.116H147.397L147.627 39.1502C148.125 41.5965 150.461 45.3937 152.759 47.4749C160.112 54.1565 170.835 54.1565 178.188 47.4749C183.435 42.7283 185.235 35.0609 182.593 28.8539L181.673 26.6631L185.235 23.2675C187.227 21.3689 188.835 19.6894 188.835 19.4703C188.835 18.9957 185.312 15.6366 184.814 15.6366C184.622 15.6366 182.975 17.024 181.137 18.7766L177.882 21.8801L175.89 20.6022C168.499 15.8556 159.231 16.6224 152.759 22.5008C150.461 24.582 148.125 28.3792 147.627 30.8255L147.397 32.0669H141.116H134.836V24.1803C134.836 19.1052 134.682 15.7461 134.376 14.8333C134.146 14.0301 133.189 12.5696 132.27 11.6203C129.474 8.6263 129.934 8.69933 107.338 8.69933C92.9766 8.69933 87.1936 8.80886 86.0447 9.13747C83.9384 9.72166 80.7597 12.7521 80.1469 14.7603C79.8405 15.7461 79.6874 19.0322 79.6874 24.1803V32.0669H76.6236H73.5981L73.4832 29.438L73.3683 26.8457L69.5768 25.8599C65.9769 24.9471 64.7514 24.2534 64.7514 23.085C64.7514 22.8294 65.6322 21.2229 66.6662 19.4703C67.7386 17.7177 68.5811 16.1842 68.5811 16.0747C68.5811 15.7461 56.977 4.68303 56.6323 4.68303C56.5174 4.68303 54.9089 5.48629 53.0706 6.50862C50.6196 7.85955 49.509 8.26118 48.8196 8.11514C47.5941 7.82304 47.4792 7.64048 46.3303 3.58767L45.3346 0.119049L36.8708 0.00951352C32.2369 -0.0269983 28.3688 0.0460253 28.2539 0.192073ZM40.9687 7.12932C41.1984 7.89607 41.5814 9.32003 41.8495 10.3058C42.1176 11.2917 42.6155 12.1679 42.9218 12.241C43.2282 12.3505 44.9133 13.0077 46.6367 13.7014L49.7771 14.9428L52.8409 13.3728L55.9047 11.8028L58.5089 14.2856L61.1131 16.7684L59.4663 19.6894L57.8195 22.6103L59.1216 25.6043C59.8493 27.2473 60.5386 28.8539 60.6535 29.1459C60.7301 29.438 61.6493 29.9127 62.6833 30.1683C63.7173 30.4239 65.2109 30.789 66.0152 31.008L67.4322 31.3732V34.9878V38.6025L66.0152 38.9676C65.2109 39.1867 63.7173 39.5518 62.6833 39.8074C61.6493 40.063 60.7301 40.5376 60.6535 40.8297C60.5386 41.1218 59.8493 42.7283 59.1216 44.3714L57.8195 47.3653L59.4663 50.2863L61.1131 53.2072L58.5089 55.69L55.9047 58.1728L52.8409 56.6028L49.7771 55.0328L46.6367 56.2742C44.9133 56.968 43.2282 57.6252 42.9218 57.7347C42.6155 57.8077 42.1176 58.684 41.8495 59.6698C41.5814 60.6556 41.1984 62.0796 40.9687 62.8098L40.5857 64.1973H36.7942H33.0028L32.6198 62.8098C32.39 62.0796 32.0071 60.6556 31.739 59.6698C31.4709 58.684 30.973 57.8077 30.6667 57.7347C30.3603 57.6252 28.6752 56.968 26.9518 56.2742L23.8114 55.0328L20.7476 56.6028L17.6838 58.1728L15.0796 55.69L12.4754 53.2437L14.1605 50.2133L15.8456 47.2193L14.9647 45.5763C14.4668 44.6635 13.8158 43.13 13.4328 42.1442C12.7435 40.209 12.935 40.3186 7.8031 39.0041L6.15631 38.6025V34.9878V31.3732L7.61161 31.008C8.37756 30.789 9.87116 30.4239 10.9052 30.1683C11.9392 29.9127 12.8584 29.438 12.935 29.1459C13.0498 28.8539 13.7392 27.2473 14.4668 25.6043L15.769 22.6103L14.1222 19.6894L12.4754 16.7684L15.0796 14.2856L17.6838 11.8028L20.7476 13.3728L23.8114 14.9428L26.9518 13.7014C28.6752 13.0077 30.3603 12.3505 30.6667 12.241C30.973 12.1679 31.4709 11.2917 31.739 10.3058C32.0071 9.32003 32.39 7.89607 32.6198 7.12932L33.0028 5.77838H36.7942H40.5857L40.9687 7.12932ZM127.751 15.454C128.555 16.1842 128.708 16.6954 128.708 18.375V20.3831H107.261H85.8149V18.375C85.8149 16.6954 85.9681 16.1842 86.7724 15.454L87.6915 14.5412H107.261H126.831L127.751 15.454ZM170.337 24.3994C173.746 25.7869 173.746 25.7869 169.38 29.9857L165.474 33.7099L163.635 31.9574C162.64 31.008 161.644 30.2413 161.452 30.2413C160.954 30.2413 157.431 33.6004 157.431 34.075C157.431 34.2941 159.231 36.1562 161.452 38.2739L165.474 42.1076L171.218 36.6309C177.652 30.4969 177.537 30.5334 177.537 35.353C177.499 37.7262 177.346 38.3834 176.197 40.3916C174.78 42.9474 173.593 44.0428 170.682 45.5032C169.035 46.3065 168.231 46.4525 165.474 46.4525C162.716 46.4525 161.912 46.3065 160.265 45.5032C157.393 44.0428 156.167 42.9474 154.712 40.3916C153.525 38.2739 153.41 37.8358 153.448 34.9878C153.448 32.4685 153.64 31.5557 154.367 30.0587C155.976 26.9187 159.078 24.5089 162.601 23.6327C164.516 23.158 168.231 23.5231 170.337 24.3994ZM128.708 39.9169V53.6454L127.751 54.5217L126.831 55.4345H107.261H87.6915L86.7724 54.5217L85.8149 53.6454V39.9169V26.225H107.261H128.708V39.9169ZM109.674 85.1551C113.619 86.7251 114.576 91.6177 111.513 94.5386C109.023 96.9119 105.5 96.9119 103.01 94.5386C98.2616 90.0477 103.508 82.6723 109.674 85.1551ZM182.899 106.003C183.703 106.734 183.856 107.245 183.856 108.924V110.932H156.282H128.708V108.924C128.708 107.245 128.861 106.734 129.665 106.003L130.585 105.091H156.282H181.98L182.899 106.003ZM183.856 136.308V155.878L182.899 156.755L181.98 157.668H156.282H130.585L129.665 156.755L128.708 155.878V136.308V116.774H156.282H183.856V136.308ZM66.4747 123.529C67.279 124.259 67.4322 124.77 67.4322 126.45V128.458H36.7942H6.15631V126.45C6.15631 124.77 6.3095 124.259 7.11375 123.529L8.03288 122.616H36.7942H65.5556L66.4747 123.529ZM67.4322 153.834V173.404L66.4747 174.28L65.5556 175.193H36.7942H8.03288L7.11375 174.28L6.15631 173.404V153.834V134.3H36.7942H67.4322V153.834Z" fill="black"/>
<path d="M32.2368 18.0465C22.5475 20.5293 16.5348 30.1319 18.9858 39.1868C21.5518 48.5338 31.5857 54.3392 41.1983 51.9659C51.0025 49.5196 57.0918 39.9536 54.6024 30.8621C52.0365 21.4055 41.8494 15.5637 32.2368 18.0465ZM42.5771 24.8011C45.143 26.1156 46.3302 27.284 47.8238 30.0223C48.6663 31.5923 48.8195 32.3591 48.8195 34.9879C48.8578 37.8359 48.7429 38.274 47.5557 40.3917C46.1004 42.9475 44.8749 44.0429 42.0026 45.5033C40.3558 46.3066 39.5516 46.4527 36.7941 46.4527C34.0367 46.4527 33.2325 46.3066 31.5857 45.5033C28.7134 44.0429 27.4879 42.9475 26.0326 40.3917C24.8454 38.274 24.7305 37.8359 24.7688 34.9879C24.7688 31.3368 25.6879 29.1461 28.1772 26.7728C32.007 23.1216 37.7133 22.3549 42.5771 24.8011Z" fill="black"/>
<path d="M91.9426 34.9877V37.9087H95.0064H98.0702V34.9877V32.0668H95.0064H91.9426V34.9877Z" fill="black"/>
<path d="M104.198 34.9877V37.9087H113.389H122.581V34.9877V32.0668H113.389H104.198V34.9877Z" fill="black"/>
<path d="M91.9426 46.6718V49.5928H107.262H122.581V46.6718V43.7509H107.262H91.9426V46.6718Z" fill="black"/>
<path d="M134.836 131.379V140.142H144.027H153.218V131.379V122.616H144.027H134.836V131.379ZM147.091 131.379V134.3H144.027H140.963V131.379V128.458H144.027H147.091V131.379Z" fill="black"/>
<path d="M159.346 125.537V128.458H168.537H177.729V125.537V122.616H168.537H159.346V125.537Z" fill="black"/>
<path d="M159.346 137.221V140.142H168.537H177.729V137.221V134.3H168.537H159.346V137.221Z" fill="black"/>
<path d="M134.836 148.905V151.826H156.282H177.729V148.905V145.984H156.282H134.836V148.905Z" fill="black"/>
<path d="M12.2839 148.905V157.667H24.5391H36.7943V148.905V140.142H24.5391H12.2839V148.905ZM30.6667 148.905V151.826H24.5391H18.4115V148.905V145.984H24.5391H30.6667V148.905Z" fill="black"/>
<path d="M42.9219 143.063V145.984H52.1133H61.3046V143.063V140.142H52.1133H42.9219V143.063Z" fill="black"/>
<path d="M42.9219 154.747V157.667H52.1133H61.3046V154.747V151.826H52.1133H42.9219V154.747Z" fill="black"/>
<path d="M12.2839 166.431V169.352H36.7943H61.3046V166.431V163.51H36.7943H12.2839V166.431Z" fill="black"/>
</svg>
