<svg width="196" height="190" viewBox="0 0 196 190" fill="none" xmlns="http://www.w3.org/2000/svg">
<g clip-path="url(#clip0_488_10)">
<path d="M74.9547 7.125L74.8398 14.2129L71.5859 15.2148C67.2602 16.5508 63.1641 18.1836 58.9148 20.2617L55.393 21.9688L50.3781 17.1074C47.6219 14.4355 45.1719 12.2461 44.9805 12.2461C44.4828 12.2461 12.6328 43.1211 12.6328 43.6035C12.6328 43.7891 14.8914 46.127 17.6094 48.7988L22.6242 53.6602L20.1359 58.6328C18.7961 61.3789 16.9969 65.6465 16.1547 68.0957L14.6234 72.5488L7.31172 72.6602L0 72.7344V95V117.266L7.31172 117.34L14.6234 117.451L16.1547 121.904C16.9969 124.354 18.7961 128.621 20.1359 131.367L22.6242 136.34L17.6094 141.201C14.8914 143.873 12.6328 146.211 12.6328 146.396C12.6328 146.879 44.4828 177.754 44.9805 177.754C45.1719 177.754 47.6219 175.564 50.3781 172.893L55.393 168.031L58.9148 169.738C63.1641 171.816 67.2602 173.449 71.5859 174.785L74.8398 175.787L74.9547 182.875L75.0313 190H98H120.969L121.045 182.949L121.16 175.898L125.754 174.377C128.28 173.561 132.683 171.779 135.516 170.48L140.645 168.068L145.66 172.93C148.416 175.564 150.828 177.754 151.02 177.754C151.517 177.754 183.367 146.879 183.367 146.396C183.367 146.211 181.109 143.873 178.391 141.201L173.376 136.34L175.864 131.367C177.204 128.621 179.003 124.354 179.845 121.904L181.377 117.451L188.688 117.34L196 117.266V95V72.7344L188.688 72.6602L181.377 72.5488L179.845 68.0957C179.003 65.6465 177.204 61.3789 175.864 58.6328L173.376 53.6602L178.391 48.7988C181.109 46.127 183.367 43.7891 183.367 43.6035C183.367 43.1211 151.517 12.2461 151.02 12.2461C150.828 12.2461 148.416 14.4355 145.66 17.0703L140.645 21.9316L135.516 19.5195C132.683 18.2207 128.28 16.4395 125.754 15.623L121.16 14.1016L121.045 7.05078L120.969 0H98H75.0313L74.9547 7.125ZM109.484 17.0703V23.0078L110.556 23.1934C120.892 25.2344 131.228 29.2051 139.459 34.3633C140.875 35.2539 142.177 35.9961 142.33 35.9961C142.483 35.9961 144.473 34.1777 146.809 31.9141L151.02 27.832L159.173 35.7363L167.289 43.6035L163.078 47.6855C160.781 49.9121 158.867 51.8789 158.867 52.0273C158.867 52.1758 159.633 53.4375 160.552 54.8105C165.911 62.8262 169.663 72.0293 172.074 82.8281L172.266 83.8672H178.391H184.516V95V106.133H178.391H172.266L172.074 107.135C169.663 117.971 165.911 127.174 160.552 135.189C159.633 136.562 158.867 137.824 158.867 137.973C158.867 138.121 160.743 140.051 163.078 142.314L167.289 146.396L159.135 154.301L151.02 162.168L146.809 158.086C144.512 155.859 142.483 154.004 142.33 154.004C142.177 154.004 140.875 154.746 139.459 155.637C131.113 160.832 121.773 164.469 110.556 166.807L109.484 166.992V172.93V178.867H98H86.5156V172.93C86.5156 167.066 86.5156 166.992 85.6734 166.844C74.3039 164.58 65.0016 160.906 54.6273 154.486L53.5938 153.818L49.268 158.012L44.9805 162.168L36.8266 154.264L28.7109 146.396L32.9219 142.314C35.2188 140.088 37.1328 138.121 37.1328 137.973C37.1328 137.824 36.3672 136.562 35.4484 135.189C30.0891 127.174 26.3375 117.971 23.9258 107.172L23.7344 106.133H17.6094H11.4844V95V83.8672H17.6094H23.7344L23.9258 82.8281C26.0313 72.8086 30.1273 62.7891 35.4484 54.8105C36.3672 53.4375 37.1328 52.1758 37.1328 52.0273C37.1328 51.8789 35.257 49.9492 32.9219 47.6855L28.7109 43.6035L36.8648 35.6992L44.9805 27.832L49.1914 31.9141C51.4883 34.1406 53.5172 35.9961 53.632 35.9961C53.7852 35.9961 55.5844 34.957 57.6516 33.6953C65.4992 28.9082 74.3422 25.5684 85.6734 23.1934C86.5156 23.0078 86.5156 22.8965 86.5156 17.0703V11.1328H98H109.484V17.0703Z" fill="black"/>
<path d="M92.8321 33.7695C64.0446 36.1816 40.5782 56.9629 35.5633 84.4609C34.4532 90.584 34.4532 99.416 35.5633 105.539C40.1954 130.996 60.9055 151.035 87.2047 155.525C93.4446 156.602 102.594 156.602 108.872 155.525C131.841 151.592 150.905 135.598 158.178 114.148C160.398 107.58 161.241 102.348 161.241 95C161.241 87.6523 160.398 82.4199 158.178 75.8516C151.938 57.4453 136.97 42.8984 117.906 36.7012C110.327 34.2519 100.603 33.1016 92.8321 33.7695ZM107.188 45.4961C117.6 47.2402 127.974 52.6582 135.554 60.3769C144.856 69.9141 149.795 81.8262 149.795 95C149.795 108.768 144.703 120.643 134.559 130.439C126.711 138.084 117.523 142.723 106.805 144.578C102.02 145.395 93.9805 145.395 89.1954 144.578C67.6047 140.867 50.6844 124.465 46.8563 103.535C46.0141 98.8965 46.0141 91.1035 46.8563 86.4648C48.8086 75.8144 54.3211 65.9062 62.3985 58.5215C74.5719 47.4258 90.5735 42.75 107.188 45.4961Z" fill="black"/>
<path d="M73.1171 73.2538C66.6093 74.9609 61.5562 80.4159 60.4843 86.8359C59.9867 89.953 59.9867 100.047 60.4843 103.164C62.2835 114.26 74.7632 120.457 85.2906 115.484C88.3148 114.074 91.4921 110.957 92.9468 107.951C94.4781 104.871 94.9375 101.865 94.9375 94.9999C94.9375 88.1347 94.4781 85.1288 92.9468 82.0487C90.8796 77.7812 86.2476 74.1816 81.5007 73.1425C79.2421 72.623 75.2226 72.6972 73.1171 73.2538ZM80.3906 84.6835C83.1851 86.539 83.2617 86.7987 83.2617 94.9999C83.2617 101.902 83.2234 102.422 82.4578 103.424C79.7015 107.023 75.3375 107.023 72.5812 103.424C71.8156 102.422 71.7773 101.902 71.7773 94.9999C71.7773 88.0976 71.8156 87.578 72.5812 86.5761C73.8828 84.8691 75.7203 83.8671 77.5195 83.8671C78.5531 83.8671 79.5867 84.164 80.3906 84.6835Z" fill="black"/>
<path d="M111.131 73.4395C100.565 76.9648 97.847 89.9902 106.192 97.0781C109.178 99.6016 111.437 100.307 117.141 100.455C119.782 100.529 122.309 100.789 122.768 101.012C124.452 101.828 124.72 104.686 123.189 105.65C122.921 105.799 118.634 106.021 113.695 106.133L104.699 106.318L104.584 111.811L104.47 117.303L114.729 117.191C124.95 117.08 124.988 117.08 127.17 116.078C136.205 111.996 138.502 101.012 131.802 93.8496C128.855 90.6953 125.256 89.4336 118.978 89.4336C116.758 89.4336 114.614 89.3223 114.27 89.2109C113.963 89.0625 113.427 88.5059 113.083 87.9121C112.585 86.9844 112.585 86.6875 113.083 85.5371C113.389 84.832 113.695 84.2012 113.772 84.1641C113.849 84.127 118.021 83.9785 123.074 83.8672L132.262 83.6816L132.377 78.1895L132.491 72.7344H122.806C114.499 72.7715 112.853 72.8457 111.131 73.4395Z" fill="black"/>
</g>
<defs>
<clipPath id="clip0_488_10">
<rect width="196" height="190" fill="white"/>
</clipPath>
</defs>
</svg>
