<svg width="333" height="109" viewBox="0 0 333 109" fill="none" xmlns="http://www.w3.org/2000/svg">
<path d="M141.579 3.59793C141.579 6.25142 142.174 7.28333 143.959 7.28333C146.219 7.28333 146.338 8.31524 146.338 23.4991C146.338 38.6829 146.457 39.7148 148.718 39.7148C150.978 39.7148 151.097 38.6829 151.097 23.6465C151.097 8.02041 151.216 7.43075 153.834 6.9885C155.499 6.69367 156.451 5.51434 156.451 3.59793C156.451 0.944445 155.499 0.649613 149.075 0.207365C141.698 -0.234883 141.579 -0.087467 141.579 3.59793Z" fill="black"/>
<path d="M161.448 1.68142C159.545 3.45042 159.426 5.80907 159.664 21.2877L160.021 38.9777L165.137 39.4199C173.108 40.157 173.703 38.8303 173.703 20.6981C173.703 12.148 173.227 4.1875 172.751 3.15559C171.204 0.354683 163.947 -0.677231 161.448 1.68142ZM167.754 20.5507C167.754 31.312 167.397 33.8181 165.969 33.8181C164.542 33.8181 164.185 31.312 164.185 20.5507C164.185 9.7893 164.542 7.28323 165.969 7.28323C167.397 7.28323 167.754 9.7893 167.754 20.5507Z" fill="black"/>
<path d="M179.295 1.82849C177.51 3.45007 177.272 5.95614 177.51 21.2874L177.867 38.9773L182.983 39.4196C189.527 40.0092 191.549 37.9454 191.549 30.722C191.549 25.1202 191.43 25.1202 188.575 26.7418C186.909 27.6263 185.601 29.5427 185.601 31.1643C185.601 32.6384 184.768 33.8178 183.816 33.8178C182.388 33.8178 182.031 31.3117 182.031 20.5503C182.031 9.78896 182.388 7.28288 183.816 7.28288C184.768 7.28288 185.601 8.60963 185.601 10.2312C185.601 13.3269 186.552 13.7692 189.646 12.295C190.836 11.7054 191.549 9.64154 191.549 7.13547C191.549 3.89232 190.836 2.41815 188.456 1.38624C184.411 -0.530164 181.674 -0.530162 179.295 1.82849Z" fill="black"/>
<path d="M0 64.7752C0 66.9865 0.832825 67.7235 2.97438 67.7235H5.94875V84.3815C5.94875 100.008 6.06773 101.04 8.32825 101.04C10.5888 101.04 10.7078 100.008 10.7078 84.3815C10.7078 68.7555 10.8267 67.7235 13.0873 67.7235C14.6339 67.7235 15.4668 66.6916 15.4668 64.7752C15.4668 62.1217 14.6339 61.8269 7.73338 61.8269C0.832825 61.8269 0 62.1217 0 64.7752Z" fill="black"/>
<path d="M19.9865 63.4493C18.0829 64.776 17.845 67.2821 17.845 82.3185C17.845 98.5342 17.9639 99.861 20.2245 100.598C22.485 101.335 22.604 100.598 22.604 88.0677C22.604 76.2744 22.8419 74.9477 24.7455 75.3899C26.4112 75.8322 26.7681 77.896 27.125 88.6574C27.4819 100.451 27.6009 101.335 29.7425 100.598C31.884 99.861 32.122 98.5342 32.122 87.3306C32.122 80.5495 31.5271 73.621 30.9322 71.9994C29.5045 68.9036 25.5783 68.314 24.1506 70.9675C23.5558 72.2942 22.9609 70.9675 22.604 67.4295C22.1281 62.7122 21.7711 62.2699 19.9865 63.4493Z" fill="black"/>
<path d="M131.706 62.8582C131.23 63.3005 130.874 72.2928 130.874 82.612C130.874 100.597 130.993 101.334 133.253 100.597C135.276 99.8596 135.633 98.5329 135.633 91.8992C135.633 84.8232 135.989 83.6439 138.607 82.1697C140.511 81.1378 141.581 79.3688 141.581 77.0102C141.581 74.0618 141.224 73.767 139.321 75.0938C135.989 77.305 135.633 77.0102 135.633 72.1454C135.633 67.5755 137.536 65.954 138.25 69.9342C138.607 71.998 138.964 71.998 141.343 69.9342C145.388 66.3962 143.009 61.8263 136.941 61.8263C134.443 61.8263 132.063 62.2686 131.706 62.8582Z" fill="black"/>
<path d="M156.333 63.7438C156.095 64.7757 155.976 73.3258 156.095 82.613L156.452 99.4185H162.995H169.539L169.896 92.9322C170.253 87.4778 170.015 86.5933 168.349 87.4778C167.278 87.92 166.089 88.3623 165.851 88.3623C165.613 88.3623 165.375 89.689 165.375 91.3106C165.375 93.227 164.542 94.2589 162.995 94.2589C160.735 94.2589 160.616 93.227 160.616 80.9915C160.616 68.7559 160.735 67.724 162.995 67.724C164.78 67.724 165.375 68.7559 165.375 71.4094C165.375 74.8 165.613 74.9474 167.754 73.6207C170.134 71.9991 170.729 68.4611 169.42 64.186C168.468 61.0903 157.284 60.7955 156.333 63.7438Z" fill="black"/>
<path d="M294.94 63.7436C293.869 64.7755 293.275 66.3971 293.513 67.2816C294.226 69.7876 298.628 66.9867 298.628 64.0384C298.628 61.3849 297.439 61.2375 294.94 63.7436Z" fill="black"/>
<path d="M254.369 64.9235C253.06 65.808 252.227 68.1667 252.227 70.5253C252.227 72.884 251.394 75.0952 250.442 75.6849C249.491 76.1271 248.658 77.8961 248.658 79.6651C248.658 81.8763 249.253 82.466 250.442 81.8763C251.87 81.2867 252.227 82.6134 252.227 89.8368C252.227 96.7654 252.703 98.8292 254.369 99.7137C257.7 101.777 261.15 101.04 261.507 98.2395C261.745 96.4705 261.15 95.7334 259.484 95.7334C257.224 95.7334 256.986 94.8489 256.986 86.8885C256.986 80.2548 257.462 77.7487 258.771 77.159C259.722 76.5694 260.555 74.653 260.555 72.7366C260.555 70.3779 260.079 69.4934 258.89 70.0831C257.7 70.6727 256.986 69.6408 256.748 67.1348C256.51 64.1864 256.034 63.7442 254.369 64.9235Z" fill="black"/>
<path d="M284.113 65.3652C282.923 66.3971 281.972 69.0506 281.972 71.1144C281.972 73.1782 281.496 75.3895 280.782 75.8317C280.187 76.274 279.592 78.043 279.592 79.6645C279.592 81.2861 280.187 82.1706 280.782 81.7284C281.496 81.1387 281.972 84.087 281.972 89.6888C281.972 96.9122 282.447 98.8286 284.232 100.155C288.158 102.661 291.49 101.924 291.49 98.6812C291.49 96.7648 290.657 95.7329 289.11 95.7329C286.968 95.7329 286.731 94.701 286.731 86.8879C286.731 79.6645 287.087 77.8955 289.11 76.5688C292.322 74.505 292.441 68.6083 289.229 69.9351C287.444 70.6722 286.85 69.9351 286.493 67.1342C286.136 63.891 285.898 63.7436 284.113 65.3652Z" fill="black"/>
<path d="M36.5256 70.2299C36.0497 70.6721 35.6927 77.7481 35.6927 85.7086V100.303L41.9984 99.8605L48.1851 99.4182L48.5421 93.669C48.899 88.9517 48.661 88.0672 46.9954 88.9517C45.9246 89.394 44.7349 89.8362 44.4969 89.8362C44.259 89.8362 44.021 91.1629 44.021 92.7845C44.021 94.4061 43.1882 95.7328 42.2364 95.7328C41.1656 95.7328 40.4518 94.4061 40.4518 92.0474C40.4518 89.2465 41.5225 87.7724 44.6159 85.856C48.1851 83.6447 48.78 82.7602 48.78 78.0429C48.78 75.0946 48.1851 71.9989 47.3523 70.967C45.8056 69.0506 37.8343 68.4609 36.5256 70.2299ZM44.021 77.8955C44.021 79.3697 43.1882 80.9912 42.2364 81.5809C40.9277 82.1706 40.4518 81.4335 40.4518 78.78C40.4518 76.4214 41.1656 75.0946 42.2364 75.0946C43.1882 75.0946 44.021 76.4214 44.021 77.8955Z" fill="black"/>
<path d="M53.6579 71.2613C52.7061 72.588 52.3492 78.0424 52.5871 86.4451L52.9441 99.4177L58.7738 99.86C62.581 100.155 64.9605 99.7125 65.5554 98.3858C66.9831 95.5849 66.8641 75.3889 65.4364 71.9983C63.8898 68.6078 55.7995 68.0181 53.6579 71.2613ZM60.6774 85.5606C60.6774 93.2262 60.3205 95.8797 59.2497 95.4375C58.2979 94.9952 57.5841 91.1624 57.3461 84.971C57.1082 76.8631 57.3461 75.0941 58.8928 75.0941C60.3205 75.0941 60.6774 77.1579 60.6774 85.5606Z" fill="black"/>
<path d="M70.1967 85.266C70.1967 100.597 70.3156 101.334 72.5762 100.597C74.7177 99.8602 74.9557 98.5334 74.9557 87.4772C74.9557 80.2539 75.4316 75.0943 76.1454 75.0943C76.8593 75.0943 77.3352 76.421 77.3352 78.0426C77.3352 80.6961 77.6921 80.8435 79.8336 79.5168C81.4993 78.3374 82.0942 76.7159 81.8562 73.915C81.4993 70.2296 81.0234 69.9347 75.9075 69.6399L70.1967 69.3451V85.266Z" fill="black"/>
<path d="M84.472 83.2025C84.472 90.8682 84.71 97.2071 85.0669 97.2071C85.5428 97.2071 87.3274 96.1751 89.231 94.9958L92.8003 92.6372V97.9441C92.8003 101.482 92.2054 103.104 91.0157 103.104C90.0639 103.104 89.231 102.072 89.231 100.892C89.231 98.976 88.7551 98.8286 86.7326 100.155C83.0443 102.661 84.1151 108.116 88.5172 108.705C90.3018 109 93.1572 108.853 94.7039 108.411C97.5593 107.526 97.5593 107.231 97.5593 88.3621C97.5593 70.2299 97.4403 69.198 95.1798 69.198C93.0382 69.198 92.8003 70.2299 92.8003 77.8956C92.8003 84.2345 92.3244 86.7405 91.0157 87.4776C89.588 88.0673 89.231 86.5931 89.231 78.7801C89.231 70.2299 88.9931 69.198 86.8515 69.198C84.591 69.198 84.472 70.2299 84.472 83.2025Z" fill="black"/>
<path d="M114.335 71.262C113.383 72.5888 113.026 78.0431 113.264 86.4459L113.621 99.4185H119.57H125.518L125.875 85.5614C126.113 75.3897 125.756 71.262 124.686 70.3775C122.187 68.4611 115.762 69.0508 114.335 71.262ZM121.354 85.4139C121.354 93.6692 120.997 95.7331 119.57 95.7331C118.142 95.7331 117.785 93.6692 117.785 85.4139C117.785 77.1586 118.142 75.0948 119.57 75.0948C120.997 75.0948 121.354 77.1586 121.354 85.4139Z" fill="black"/>
<path d="M175.012 71.2618C174.06 72.5885 173.703 78.0429 173.941 86.4456L174.298 99.4182L179.414 100.303C186.79 101.482 187.98 99.5657 187.98 86.0034C187.98 71.8515 186.909 69.198 180.96 69.198C178.462 69.198 175.726 70.0825 175.012 71.2618ZM182.031 85.5611C182.031 93.2268 181.674 95.8803 180.603 95.438C179.652 94.9958 178.938 91.1629 178.7 84.9715C178.462 76.8636 178.7 75.0946 180.247 75.0946C181.674 75.0946 182.031 77.1584 182.031 85.5611Z" fill="black"/>
<path d="M191.551 85.5615C191.551 99.7135 191.788 101.335 193.692 101.04C195.358 100.745 195.715 98.6815 196.072 87.9202C196.31 77.8959 196.785 75.095 198.094 75.095C199.522 75.095 199.879 77.7485 199.879 88.215C199.879 99.8609 200.117 101.335 202.02 101.04C203.686 100.745 204.043 98.6815 204.4 87.9202C204.638 77.8959 205.114 75.095 206.422 75.095C207.85 75.095 208.207 77.7485 208.207 88.215C208.207 100.745 208.326 101.335 210.587 100.598C212.847 99.8609 212.966 98.829 212.728 85.7089C212.49 74.3579 212.014 71.4096 210.349 70.0829C208.802 68.9035 207.612 68.9035 205.828 70.2303C204.638 71.2622 203.21 71.557 202.853 70.8199C202.496 70.0829 199.879 69.4932 196.904 69.4932L191.551 69.6406V85.5615Z" fill="black"/>
<path d="M216.534 89.0988C216.534 107.968 216.653 109 218.914 109C220.818 109 221.293 107.968 221.293 103.546C221.293 99.7128 221.65 98.5335 222.602 99.7128C223.197 100.45 225.101 100.892 226.766 100.45C229.741 99.8602 229.741 99.7128 229.384 84.8238L229.027 69.9348L222.84 69.6399L216.534 69.3451V89.0988ZM224.863 84.6764C224.863 92.1946 224.506 94.2584 223.078 94.2584C221.65 94.2584 221.293 92.1946 221.293 84.6764C221.293 77.1582 221.65 75.0943 223.078 75.0943C224.506 75.0943 224.863 77.1582 224.863 84.6764Z" fill="black"/>
<path d="M233.428 84.2334L233.785 99.4172H238.306C240.685 99.4172 242.708 99.8595 242.708 100.449C242.708 100.891 243.66 101.186 244.85 101.039C246.634 100.597 246.872 98.5327 247.229 84.9705C247.586 70.0815 247.467 69.197 245.207 69.197C243.065 69.197 242.827 70.3763 242.47 82.0221C242.232 92.3413 241.756 94.9947 240.329 94.9947C238.901 94.9947 238.425 92.3413 238.187 82.0221C237.83 70.3763 237.592 69.197 235.451 69.197C233.19 69.197 233.071 70.0815 233.428 84.2334Z" fill="black"/>
<path d="M264.124 71.9977C261.268 78.6315 263.648 84.2333 266.741 78.0418C267.574 76.4202 269.24 75.0935 270.429 75.0935C274.118 75.0935 272.214 79.9582 267.336 83.2014C263.291 85.8548 262.934 86.7393 262.934 92.3411C262.934 99.5645 265.908 102.955 269.953 100.154C271.619 99.1223 272.333 99.1223 272.69 100.449C272.928 101.334 274.118 101.776 275.188 101.186C276.854 100.449 277.211 98.0904 277.211 86.4445C277.211 77.747 276.735 72.1452 275.783 70.9658C273.404 68.0175 265.551 68.7546 264.124 71.9977ZM272.214 90.867C271.976 93.3731 271.143 94.9946 270.072 94.9946C267.812 94.9946 266.979 89.8351 269.121 88.2135C271.857 86.0023 272.571 86.7393 272.214 90.867Z" fill="black"/>
<path d="M303.029 70.2288C301.601 71.9978 302.077 97.943 303.623 99.8594C305.408 102.071 309.929 102.218 313.022 100.154C315.045 98.8275 315.283 96.9111 315.283 85.7075C315.283 77.5996 314.807 72.1452 313.855 70.9659C312.309 69.0495 304.337 68.4598 303.029 70.2288ZM310.524 85.4126C310.524 93.6679 310.167 95.7318 308.739 95.7318C307.312 95.7318 306.955 93.6679 306.955 85.4126C306.955 77.1573 307.312 75.0935 308.739 75.0935C310.167 75.0935 310.524 77.1573 310.524 85.4126Z" fill="black"/>
<path d="M319.091 85.2657C319.448 98.6805 319.686 100.892 321.59 101.334C323.374 101.776 323.612 100.45 323.612 88.5088C323.612 77.7475 323.969 75.094 325.397 75.094C326.706 75.094 327.182 77.8949 327.42 87.9192C327.776 99.7124 328.014 100.892 330.156 100.892C332.298 100.892 332.535 99.7124 332.892 88.0666C333.368 71.2612 332.535 69.4922 324.802 69.4922H318.734L319.091 85.2657Z" fill="black"/>
<path d="M294.7 71.7044C294.224 72.1467 293.867 79.2226 293.867 87.1831C293.867 100.303 294.105 101.777 296.009 101.335C297.794 100.893 298.032 98.829 298.388 85.7089C298.626 73.7683 298.388 70.6725 297.08 70.6725C296.128 70.6725 295.057 71.1148 294.7 71.7044Z" fill="black"/>
</svg>
