<svg width="29" height="30" viewBox="0 0 29 30" fill="none" xmlns="http://www.w3.org/2000/svg">
<path fill-rule="evenodd" clip-rule="evenodd" d="M14.3815 1.93921C7.27551 1.93921 1.53101 7.92552 1.53101 15.3314C1.53101 21.2513 5.2117 26.2624 10.3178 28.036C10.9562 28.1693 11.19 27.7478 11.19 27.3933C11.19 27.0828 11.169 26.0186 11.169 24.9098C7.59431 25.7081 6.84991 23.3133 6.84991 23.3133C6.27543 21.7613 5.42424 21.3624 5.42424 21.3624C4.25424 20.542 5.50946 20.542 5.50946 20.542C6.8073 20.6307 7.4883 21.9166 7.4883 21.9166C8.63699 23.9563 10.488 23.38 11.2327 23.0252C11.3389 22.1604 11.6796 21.5618 12.0412 21.2293C9.19016 20.9188 6.19047 19.7659 6.19047 14.6218C6.19047 13.1584 6.70077 11.9611 7.50935 11.03C7.38177 10.6975 6.93487 9.32251 7.63718 7.48226C7.63718 7.48226 8.72222 7.12744 11.1687 8.85694C12.2162 8.56379 13.2964 8.41466 14.3815 8.41341C15.4665 8.41341 16.5726 8.56878 17.594 8.85694C20.0408 7.12744 21.1258 7.48226 21.1258 7.48226C21.8281 9.32251 21.3809 10.6975 21.2534 11.03C22.0833 11.9611 22.5725 13.1584 22.5725 14.6218C22.5725 19.7659 19.5728 20.8965 16.7004 21.2293C17.1686 21.6505 17.5727 22.4486 17.5727 23.7125C17.5727 25.5084 17.5516 26.9498 17.5516 27.393C17.5516 27.7478 17.7857 28.1693 18.4239 28.0363C23.53 26.2621 27.2107 21.2513 27.2107 15.3314C27.2317 7.92552 21.4662 1.93921 14.3815 1.93921Z" fill="#24292F"/>
</svg>
