<svg width="23" height="25" viewBox="0 0 23 25" fill="none" xmlns="http://www.w3.org/2000/svg">
<mask id="mask0_162_104" style="mask-type:alpha" maskUnits="userSpaceOnUse" x="1" y="1" width="21" height="23">
<path d="M7.22058 1.41581C6.13292 1.47161 5.39004 1.66097 4.74088 1.93746C4.06888 2.22222 3.49923 2.60383 2.93254 3.22232C2.36519 3.84117 2.01677 4.46145 1.75678 5.19263C1.50507 5.90003 1.3345 6.70789 1.28647 7.89086C1.23878 9.07601 1.22784 9.45401 1.23316 12.4712C1.23845 15.4881 1.2507 15.8668 1.3027 17.0523C1.35469 18.2342 1.52826 19.0413 1.78262 19.7473C2.04493 20.4777 2.39566 21.0966 2.96499 21.7129C3.534 22.3292 4.10499 22.7076 4.77798 22.9906C5.42813 23.2638 6.17167 23.4499 7.25968 23.5018C8.34999 23.554 8.69807 23.5655 11.4732 23.5597C14.2497 23.554 14.5978 23.5407 15.6881 23.4845C16.7757 23.428 17.5179 23.2386 18.1678 22.9629C18.8398 22.677 19.4094 22.2965 19.9761 21.6776C20.5428 21.0591 20.8912 20.4385 21.1512 19.707C21.4029 19.0003 21.5742 18.1921 21.6215 17.0102C21.6692 15.8243 21.6805 15.4456 21.6752 12.4287C21.6699 9.41153 21.6573 9.03352 21.6056 7.84875C21.554 6.66577 21.3798 5.859 21.1257 5.15267C20.8631 4.42222 20.5127 3.80373 19.9437 3.18704C19.3747 2.57107 18.8037 2.19162 18.1307 1.90974C17.4802 1.63613 16.737 1.44965 15.649 1.39853C14.5587 1.34597 14.2106 1.33445 11.4345 1.34021C8.659 1.34597 8.31091 1.35893 7.22058 1.41581ZM7.33983 21.502C6.34324 21.4548 5.80207 21.2748 5.44139 21.1239C4.96379 20.9231 4.62299 20.6822 4.2643 20.2952C3.90627 19.9068 3.68403 19.5374 3.49757 19.0194C3.35746 18.6273 3.18889 18.0398 3.14219 16.9565C3.09151 15.7854 3.07993 15.4341 3.07495 12.4673C3.06966 9.50117 3.07958 9.1498 3.12662 7.97763C3.16934 6.89509 3.33595 6.30613 3.47438 5.91443C3.65918 5.39459 3.88009 5.02486 4.2368 4.63498C4.59416 4.24509 4.93397 4.00425 5.4109 3.80157C5.77125 3.64856 6.31178 3.46675 7.30803 3.41528C8.38609 3.35983 8.709 3.34796 11.4378 3.3422C14.1672 3.33643 14.4904 3.34688 15.5688 3.39836C16.5647 3.44552 17.1066 3.62481 17.4666 3.77637C17.9445 3.97724 18.2853 4.21665 18.6437 4.6051C19.0021 4.99355 19.2243 5.36219 19.4108 5.88167C19.5515 6.27228 19.7188 6.86053 19.7658 7.94307C19.8171 9.11489 19.8287 9.46625 19.8337 12.4323C19.839 15.3991 19.8291 15.7505 19.7817 16.922C19.7383 18.0052 19.573 18.5938 19.4339 18.9862C19.2491 19.505 19.0282 19.8754 18.6712 20.2653C18.3142 20.6538 17.9743 20.896 17.4971 21.0987C17.1374 21.2514 16.5962 21.4335 15.6006 21.485C14.5226 21.5401 14.1996 21.5527 11.4699 21.5581C8.74113 21.5639 8.41821 21.5527 7.33983 21.502ZM15.6732 6.51061C15.6745 7.24646 16.2249 7.84227 16.9019 7.84083C17.5792 7.83939 18.1274 7.24142 18.1264 6.50557C18.125 5.76971 17.5746 5.17355 16.8973 5.17499C16.22 5.17643 15.6718 5.77476 15.6732 6.51061ZM6.20547 12.4608C6.21109 15.6119 8.5656 18.1607 11.4639 18.1546C14.3626 18.1485 16.7088 15.5899 16.7032 12.4388C16.6976 9.28877 14.3427 6.73849 11.4437 6.74461C8.54539 6.75073 6.19983 9.31037 6.20547 12.4608ZM8.0466 12.4568C8.04329 10.4116 9.56616 8.75021 11.4474 8.7466C13.3289 8.74264 14.8577 10.3972 14.8614 12.4428C14.865 14.4883 13.3422 16.1494 11.4603 16.1534C9.57907 16.1573 8.05024 14.5024 8.0466 12.4568Z" fill="#000008"/>
</mask>
<g mask="url(#mask0_162_104)">
<rect x="0.375732" y="0.408203" width="22.2589" height="24.1944" fill="url(#paint0_radial_162_104)"/>
<g filter="url(#filter0_f_162_104)">
<ellipse cx="12.9188" cy="9.72088" rx="12.9188" ry="9.72088" transform="matrix(0.960465 -0.278401 0.238272 0.971198 -10.1829 -6.35645)" fill="#7334FF"/>
</g>
<g filter="url(#filter1_f_162_104)">
<ellipse cx="21.9212" cy="0.563728" rx="12.1282" ry="13.1829" fill="#B202F5"/>
</g>
<g filter="url(#filter2_f_162_104)">
<ellipse cx="4.65651" cy="22.1212" rx="6.84889" ry="7.44444" fill="#FFB401"/>
</g>
</g>
<defs>
<filter id="filter0_f_162_104" x="-44.9333" y="-47.4672" width="98.9493" height="93.9109" filterUnits="userSpaceOnUse" color-interpolation-filters="sRGB">
<feFlood flood-opacity="0" result="BackgroundImageFix"/>
<feBlend mode="normal" in="SourceGraphic" in2="BackgroundImageFix" result="shape"/>
<feGaussianBlur stdDeviation="18.425" result="effect1_foregroundBlur_162_104"/>
</filter>
<filter id="filter1_f_162_104" x="-34.8737" y="-57.2858" width="113.59" height="115.7" filterUnits="userSpaceOnUse" color-interpolation-filters="sRGB">
<feFlood flood-opacity="0" result="BackgroundImageFix"/>
<feBlend mode="normal" in="SourceGraphic" in2="BackgroundImageFix" result="shape"/>
<feGaussianBlur stdDeviation="22.3333" result="effect1_foregroundBlur_162_104"/>
</filter>
<filter id="filter2_f_162_104" x="-37.9257" y="-21.0566" width="85.1644" height="86.3553" filterUnits="userSpaceOnUse" color-interpolation-filters="sRGB">
<feFlood flood-opacity="0" result="BackgroundImageFix"/>
<feBlend mode="normal" in="SourceGraphic" in2="BackgroundImageFix" result="shape"/>
<feGaussianBlur stdDeviation="17.8667" result="effect1_foregroundBlur_162_104"/>
</filter>
<radialGradient id="paint0_radial_162_104" cx="0" cy="0" r="1" gradientUnits="userSpaceOnUse" gradientTransform="translate(9.22221 23.517) rotate(-63.8256) scale(12.6154 12.016)">
<stop stop-color="#FFD502"/>
<stop offset="0.869374" stop-color="#FF1154"/>
</radialGradient>
</defs>
</svg>
