<svg width="30" height="24" viewBox="0 0 30 24" fill="none" xmlns="http://www.w3.org/2000/svg">
<path d="M27.835 19.7774C27.4053 19.781 26.9948 19.9358 26.6932 20.2078C26.3916 20.4798 26.2235 20.8469 26.2255 21.2288C26.2276 21.6107 26.3997 21.9763 26.7042 22.2457C27.0088 22.5151 27.4209 22.6663 27.8506 22.6663C28.2802 22.6663 28.6924 22.5151 28.9969 22.2457C29.3015 21.9763 29.4736 21.6107 29.4756 21.2288C29.4777 20.8469 29.3096 20.4798 29.008 20.2078C28.7063 19.9358 28.2958 19.781 27.8662 19.7774H27.835ZM27.835 22.501C27.5532 22.5051 27.2763 22.4349 27.0394 22.2992C26.8025 22.1635 26.6162 21.9684 26.504 21.7386C26.3918 21.5088 26.3588 21.2546 26.4092 21.0081C26.4596 20.7616 26.591 20.5339 26.787 20.3539C26.9829 20.1738 27.2345 20.0494 27.51 19.9965C27.7855 19.9435 28.0724 19.9643 28.3346 20.0564C28.5967 20.1484 28.8223 20.3074 28.9827 20.5133C29.1432 20.7193 29.2313 20.9629 29.236 21.2134V21.2346C29.2439 21.5632 29.1047 21.8812 28.8489 22.1185C28.5931 22.3559 28.2418 22.4932 27.8721 22.5003H27.8353M21.5969 19.3827H18.0657V14.4672C18.0657 13.295 18.0422 11.7861 16.2291 11.7861C14.39 11.7861 14.1086 13.0632 14.1086 14.3819V19.3824H10.5774V9.27406H13.9673V10.6555H14.0148C14.354 10.1399 14.8443 9.71571 15.4333 9.42817C16.0223 9.14062 16.688 9.00047 17.3595 9.02263C20.9385 9.02263 21.5984 11.1152 21.5984 13.8375L21.5969 19.3827ZM6.59306 7.89232C6.18777 7.89238 5.79155 7.78562 5.45453 7.58552C5.1175 7.38543 4.85479 7.10099 4.69963 6.76818C4.54446 6.43537 4.50381 6.06913 4.58281 5.71578C4.66181 5.36243 4.8569 5.03784 5.14344 4.78305C5.42997 4.52826 5.79506 4.35472 6.19255 4.28438C6.59004 4.21403 7.00208 4.25004 7.37654 4.38784C7.75101 4.52565 8.0711 4.75906 8.29632 5.05857C8.52155 5.35808 8.6418 5.71023 8.64188 6.07049C8.64192 6.30969 8.58898 6.54656 8.48604 6.76757C8.3831 6.98858 8.2322 7.18941 8.04195 7.35858C7.8517 7.52776 7.62582 7.66196 7.37722 7.75354C7.12862 7.84512 6.86216 7.89228 6.59306 7.89232ZM8.35865 19.3827H4.82379V9.27406H8.35865V19.3827ZM23.3573 1.33445H3.04937C2.58844 1.32983 2.14429 1.48806 1.81454 1.77437C1.48478 2.06068 1.2964 2.45165 1.29077 2.86136V20.9878C1.2962 21.3977 1.48447 21.7889 1.81422 22.0755C2.14396 22.3622 2.58821 22.5207 3.04937 22.5163H23.3573C23.8194 22.5215 24.2649 22.3634 24.596 22.0768C24.927 21.7902 25.1165 21.3985 25.1229 20.9878V2.86005C25.1163 2.44953 24.9267 2.05811 24.5956 1.77181C24.2646 1.48551 23.8192 1.32773 23.3573 1.33314M28.0928 21.3134C28.1533 21.314 28.2132 21.3035 28.2689 21.2826C28.3246 21.2616 28.3749 21.2308 28.4167 21.1919C28.4584 21.153 28.4907 21.1068 28.5116 21.0564C28.5324 21.0059 28.5414 20.9522 28.5379 20.8985C28.5379 20.6043 28.3381 20.4637 27.9284 20.4637H27.2663V22.0043H27.5153V21.3327H27.8213L27.8283 21.3409L28.3032 22.0043H28.5695L28.0586 21.3177L28.0928 21.3134ZM27.8048 21.1591H27.516V20.6383H27.882C28.0711 20.6383 28.2866 20.6657 28.2866 20.8858C28.2866 21.1388 28.0685 21.1591 27.8033 21.1591" fill="#2867B2"/>
</svg>
