<svg width="265" height="260" viewBox="0 0 265 260" fill="none" xmlns="http://www.w3.org/2000/svg">
<path d="M125.647 0.16394C93.1532 1.83832 63.3759 14.6864 40.0067 37.0679C28.4789 48.105 19.3889 60.5088 12.8066 74.1428C3.36837 93.6199 -0.810909 114.156 0.129429 136.094C2.07976 180.857 27.9913 221.725 68.391 243.764C80.1278 250.188 93.2229 254.904 106.318 257.467C128.294 261.772 151.419 260.576 172.42 253.981C207.317 243.047 236.224 218.41 252.07 185.982C269.31 150.753 269.31 109.509 252.07 74.0403C236.085 41.2025 206.203 16.0532 170.574 5.46036C156.33 1.25742 140.727 -0.587799 125.647 0.16394ZM28.4441 81.9678C30.7427 82.9587 32.6582 83.9155 32.7278 84.0863C32.7626 84.2572 32.693 84.5989 32.5188 84.8381C32.2751 85.2481 32.0313 85.214 31.1258 84.7697C28.3396 83.3346 28.4092 83.3346 27.2599 85.829C26.6679 87.0592 26.2151 88.1184 26.2151 88.2209C26.2151 88.2893 27.0858 88.6993 28.1306 89.1777C29.8371 89.8953 30.4292 90.5787 29.8371 91.1596C29.663 91.3305 27.5385 90.5104 22.3144 88.2209C20.8169 87.5717 20.3641 87.1958 20.5034 86.82C20.782 86.1024 21.4438 86.1366 23.0806 86.9566C23.8468 87.3325 24.613 87.6401 24.822 87.6401C25.1355 87.6401 27.4341 83.1637 27.1903 83.0612C24.1951 81.7628 23.1155 81.1135 23.2896 80.6351C23.6031 79.8834 23.8468 79.9517 28.4441 81.9678ZM223.373 84.223C223.582 85.9315 223.895 87.3667 224 87.435C224.104 87.5034 225.358 87.3667 226.751 87.1275C228.144 86.9225 229.328 86.82 229.398 86.9225C229.467 87.025 229.607 87.8109 229.642 88.6652L229.781 90.2028L227.238 90.5787C225.88 90.7837 224.661 91.0229 224.592 91.0913C224.522 91.1596 224.905 93.8249 225.427 97.0027C226.159 101.411 226.542 102.914 227.03 103.256C227.831 103.837 228.562 103.803 229.398 103.188C230.408 102.436 230.721 102.538 231.836 103.939L232.846 105.169L231.836 105.955C229.607 107.732 226.124 108.279 224.034 107.186C222.293 106.229 221.666 104.657 220.691 98.8479C219.437 91.0913 219.716 91.7747 218.114 91.9797C216.616 92.1847 216.407 91.9797 216.268 90.2028C216.198 89.3486 216.372 89.2119 217.696 88.7677C219.019 88.3235 219.159 88.1526 219.159 87.1617C219.159 86.5466 219.263 85.0773 219.367 83.9497L219.611 81.8653L221.039 81.5236C221.84 81.3527 222.572 81.216 222.711 81.1819C222.815 81.1477 223.129 82.5487 223.373 84.223ZM210.312 90.3395C211.88 91.0571 213.273 92.6289 213.9 94.44C214.387 95.9093 216.512 108.792 216.268 109.031C216.059 109.27 211.845 109.953 211.671 109.782C211.601 109.714 211.044 106.673 210.452 103.017C209.337 96.0118 208.815 94.5425 207.248 93.9957C205.088 93.244 201.397 95.26 201.397 97.1736C201.397 97.652 201.884 100.898 202.441 104.384C202.999 107.869 203.486 110.808 203.486 110.91C203.486 111.183 198.959 112.004 198.75 111.798C198.541 111.593 195.406 92.048 195.58 91.8772C195.65 91.8088 196.556 91.7063 197.6 91.638C199.307 91.5696 199.481 91.638 199.934 92.5264L200.421 93.4832L201.849 92.0822C204.183 89.827 207.596 89.1436 210.312 90.3395ZM187.744 93.9957C190.53 95.1234 192.62 97.9937 192.934 101.137C193.177 103.29 193.839 103.017 185.829 104.247C179.351 105.238 179.421 105.204 180.291 107.22C181.754 110.671 185.759 111.388 189.59 108.826C191.471 107.596 192.028 107.561 193.282 108.621L194.257 109.441L193.526 110.432C192.481 111.833 189.555 113.439 187.117 113.951C180.639 115.318 175.833 111.901 174.58 105.067C173.674 100.249 176.042 95.7726 180.361 94.1324C182.451 93.3123 185.968 93.244 187.744 93.9957ZM166.43 97.1736C168.241 97.9937 169.495 99.5997 170.191 101.992C170.818 104.281 172.664 115.626 172.42 115.865C172.142 116.104 167.962 116.787 167.753 116.582C167.649 116.514 167.196 113.985 166.743 111.013C165.42 102.778 165.246 102.094 164.236 101.308C162.32 99.8389 159.29 100.864 158.698 103.188C158.559 103.7 158.977 107.083 159.604 110.944C160.196 114.703 160.649 117.812 160.579 117.847C160.474 117.915 155.808 118.633 155.773 118.598C155.738 118.564 155.216 115.386 154.589 111.457C153.892 107.322 153.196 104.042 152.847 103.529C151.698 101.821 148.25 102.231 146.892 104.247C146.404 104.999 146.439 105.545 147.414 111.662C148.006 115.25 148.529 118.564 148.633 118.94C148.807 119.726 148.877 119.692 145.15 120.273L143.757 120.478L142.26 110.978C141.424 105.75 140.693 101.206 140.588 100.898C140.449 100.454 140.762 100.283 142.399 100.078C144.419 99.8389 144.941 100.078 145.429 101.445C145.499 101.65 145.917 101.411 146.369 100.864C147.797 99.0871 150.758 98.062 152.847 98.6087C153.509 98.8138 154.554 99.463 155.181 100.112L156.295 101.24L156.992 100.044C158.733 97.0369 163.121 95.7043 166.43 97.1736ZM22.6627 102.675C24.0906 103.017 25.3096 103.393 25.4141 103.461C25.4837 103.563 25.2748 104.896 24.9265 106.4C24.4389 108.586 24.1603 109.167 23.7075 109.167C22.9413 109.167 22.9413 109.133 23.6031 106.775C23.8817 105.75 24.1255 104.794 24.1255 104.691C24.1255 104.554 23.4637 104.315 22.6627 104.11C20.9562 103.666 20.8169 103.803 20.4686 105.99C20.2596 107.288 19.7372 107.835 19.18 107.288C19.0755 107.186 19.18 106.263 19.4238 105.272L19.8765 103.427L18.6576 103.188C17.9959 103.085 17.2645 102.914 17.0207 102.812C16.7072 102.709 16.4286 103.29 16.1152 104.725C15.6972 106.605 15.0355 107.561 14.5131 107.015C14.4086 106.946 14.5479 105.955 14.8266 104.862C15.1052 103.734 15.4535 102.436 15.5579 101.923L15.7669 101.035L17.9262 101.513C19.1452 101.787 21.2696 102.299 22.6627 102.675ZM73.6848 102.402C74.1723 104.52 78.1775 130.387 78.0382 130.558C77.7944 130.763 73.5803 131.481 73.441 131.344C73.1972 131.071 68.7044 102.572 68.8786 102.402C69.0875 102.197 71.4906 101.752 72.7444 101.684C73.2668 101.65 73.5803 101.889 73.6848 102.402ZM134.18 103.153C135.956 104.315 137.523 106.639 138.046 109.065C138.394 110.603 138.394 110.978 137.976 111.354C137.697 111.593 134.633 112.243 131.115 112.789L124.742 113.746L124.951 114.6C125.682 117.471 128.364 119.316 131.22 118.906C132.055 118.769 133.553 118.154 134.528 117.505C136.722 116.104 137.245 116.07 138.498 117.334L139.439 118.291L137.732 119.794C134.807 122.391 130.418 123.416 126.692 122.357C122.269 121.059 119.239 116.206 119.622 110.91C120.04 105.272 124.08 101.821 130.07 102.094C132.264 102.197 132.996 102.367 134.18 103.153ZM115.025 105.75C116.592 106.536 116.662 106.707 115.861 108.211C115.373 109.133 115.199 109.202 114.05 109.031C110.393 108.45 109.627 108.45 108.408 109.065C106.562 110.022 105.796 111.628 105.796 114.498C105.83 117.881 107.154 120.58 109.313 121.503C111.194 122.323 113.109 121.981 115.025 120.478C116.697 119.179 117.08 119.179 118.299 120.409L119.239 121.366L118.333 122.425C117.846 123.006 116.383 123.997 115.094 124.612C113.109 125.569 112.413 125.74 110.323 125.74C106.213 125.706 103.706 124.066 101.825 120.102C101.024 118.462 100.92 117.778 100.92 114.805C100.92 111.047 101.407 109.612 103.392 107.664C106.213 104.93 111.577 104.042 115.025 105.75ZM62.2962 106.263C67.4507 108.723 68.6348 116.48 64.4555 120.444C62.8535 121.981 60.1718 123.109 56.7935 123.724C55.1914 123.997 53.7287 124.305 53.5197 124.373C53.2411 124.442 53.3804 125.979 53.9377 129.362C54.3904 132.062 54.7039 134.283 54.669 134.317C54.5297 134.453 49.4449 135.137 49.3753 135.069C49.3056 134.966 44.7781 106.98 44.8129 106.878C44.8477 106.844 46.9025 106.502 49.3753 106.126C51.8828 105.75 54.2859 105.374 54.7735 105.272C56.9676 104.896 60.3459 105.34 62.2962 106.263ZM92.3174 108.655C95.5911 110.022 96.2877 111.559 97.7504 120.341C98.4122 124.271 98.8997 127.449 98.8997 127.483C98.8649 127.517 98.0987 127.619 97.1932 127.722C95.6608 127.927 95.5215 127.893 94.825 126.936L94.0587 125.911L92.4915 127.278C90.8546 128.679 88.3122 129.67 86.3271 129.67C84.4812 129.67 82.3916 128.405 81.6254 126.799C79.5358 122.63 82.2523 119.282 89.2874 117.402C90.6457 117.027 91.8646 116.617 91.9691 116.548C92.3174 116.172 91.6208 113.883 90.8198 113.029C89.6008 111.593 87.4067 111.73 84.9688 113.37C82.7399 114.874 82.0085 114.942 80.7895 113.678L79.8144 112.687L81.3468 111.32C82.1826 110.534 83.2623 109.714 83.715 109.475C86.2923 108.142 90.1233 107.766 92.3174 108.655ZM20.3989 120.649C22.0706 120.819 22.3841 120.956 22.3841 121.537C22.3841 122.186 22.2448 122.22 19.18 122.015C17.4038 121.879 15.349 121.708 14.6524 121.605L13.329 121.4V123.109C13.329 125.159 13.0852 125.911 12.4235 125.911C11.8662 125.911 11.8314 125.296 12.1797 122.152L12.3886 120.034L15.3838 120.239C17.0207 120.375 19.2845 120.546 20.3989 120.649ZM189.695 121.537C190.774 127.414 194.083 148.976 193.944 149.318C193.735 149.864 191.331 150.172 190.496 149.762C190.147 149.591 189.729 149.044 189.52 148.566L189.172 147.677L187.884 148.976C185.341 151.504 181.649 152.29 178.898 150.924C176.356 149.625 174.893 147.37 174.022 143.304C172.838 137.87 174.58 133.326 178.55 131.515C180.639 130.558 183.635 130.421 185.167 131.207C185.724 131.515 186.212 131.686 186.247 131.651C186.282 131.583 185.968 129.396 185.515 126.765C185.063 124.134 184.679 121.81 184.679 121.605C184.679 121.264 186.839 120.751 189.068 120.478C189.312 120.478 189.555 120.956 189.695 121.537ZM230.826 124.51C233.229 125.569 235.179 128.405 235.702 131.617C235.91 132.916 235.841 133.121 235.109 133.394C234.483 133.668 223.407 135.479 222.467 135.479C222.084 135.479 222.641 137.255 223.407 138.486C225.149 141.288 229.293 141.458 232.706 138.861C233.786 138.007 234.761 138.041 235.771 138.964C236.886 139.989 236.781 140.365 235.109 141.766C232.985 143.577 230.303 144.465 227.169 144.465C224.104 144.465 222.606 143.919 220.586 142.142C217.452 139.374 216.163 133.702 217.765 129.601C218.671 127.243 220.935 125.125 223.303 124.407C225.636 123.69 229.154 123.758 230.826 124.51ZM166.674 125.227C168.485 126.628 168.136 129.191 166.012 130.182C163.888 131.173 161.693 129.84 161.693 127.551C161.693 124.954 164.584 123.621 166.674 125.227ZM214.109 127.688C214.318 128.576 214.213 128.884 213.586 129.396C213.168 129.738 212.576 130.011 212.298 130.011C211.88 130.011 211.845 130.25 212.089 131.105C213.308 135.889 210.487 139.511 204.984 140.194C202.929 140.433 202.163 141.082 202.581 142.142C202.79 142.688 203.208 142.723 207.631 142.483C212.959 142.21 214.318 142.449 215.676 143.85C217.417 145.661 216.86 149.693 214.561 151.778C212.681 153.52 208.362 154.956 205.088 154.956C199.237 154.956 195.998 150.719 199.377 147.438L200.421 146.379L199.551 145.73C197.949 144.465 198.018 142.176 199.69 140.638C200.108 140.262 200.421 139.887 200.317 139.818C200.247 139.75 199.586 139.374 198.889 138.93C197.426 138.075 196.172 135.854 196.172 134.18C196.172 132.779 197.008 130.797 198.018 129.738C199.76 127.893 203.974 126.663 206.656 127.243C207.735 127.449 208.919 127.414 210.626 127.107C211.984 126.868 213.238 126.663 213.482 126.628C213.691 126.628 214.004 127.073 214.109 127.688ZM138.533 130.49C141.807 131.481 143.931 134.795 143.409 138.144C143.2 139.442 142.852 140.057 141.459 141.424C140.518 142.347 139.752 143.133 139.752 143.201C139.752 143.269 140.1 143.338 140.553 143.338C141.668 143.372 143.966 144.465 144.837 145.422C146.3 147.028 146.753 149.933 145.986 152.256C145.116 154.819 142.921 156.733 139.683 157.826C137.802 158.441 126.587 160.252 126.309 159.979C126.1 159.774 121.572 132.027 121.712 131.891C121.781 131.822 124.184 131.412 127.04 130.934C133.205 129.943 136.235 129.84 138.533 130.49ZM169.669 142.552C170.47 147.78 171.236 152.29 171.306 152.598C171.445 153.042 170.992 153.213 169.112 153.52C167.823 153.726 166.674 153.828 166.569 153.726C166.43 153.555 163.156 134.043 163.261 133.873C163.295 133.77 166.778 133.189 167.614 133.121C168.067 133.087 168.45 134.863 169.669 142.552ZM160.231 134.419C160.544 134.59 160.649 135.308 160.579 136.709L160.474 138.725L158.803 138.964C156.643 139.237 155.668 139.887 154.902 141.527C154.275 142.791 154.275 142.928 155.181 148.634C155.703 151.812 156.121 154.682 156.121 154.99C156.121 155.4 155.564 155.639 153.962 155.912C152.743 156.083 151.663 156.152 151.524 156.015C151.245 155.742 148.111 136.401 148.32 136.196C148.389 136.128 149.33 135.991 150.375 135.889C151.768 135.786 152.325 135.854 152.464 136.196C152.534 136.469 152.778 137.119 153.021 137.7L153.405 138.725L153.927 137.7C155.355 134.966 158.489 133.326 160.231 134.419ZM22.1751 138.417C22.2796 138.725 22.3841 139.852 22.3841 140.912C22.3841 143.167 21.6179 144.465 20.0855 144.841C18.17 145.32 16.1152 143.645 16.1152 141.561C16.1152 140.126 15.6624 139.852 13.9211 140.092C12.5976 140.297 12.2493 140.228 12.0752 139.784C11.9359 139.476 11.9359 139.135 12.0404 138.998C12.1797 138.896 14.339 138.622 16.8814 138.383C19.4238 138.144 21.6179 137.939 21.7224 137.905C21.8617 137.905 22.0706 138.11 22.1751 138.417ZM24.9613 157.348C24.7872 157.484 22.8369 158.031 20.6427 158.509C18.4486 159.022 16.359 159.5 16.0107 159.603C15.4186 159.774 14.7569 158.885 15.2097 158.475C15.3141 158.373 17.4734 157.792 20.0158 157.177C23.9513 156.254 24.6827 156.152 24.9613 156.562C25.1006 156.835 25.1006 157.177 24.9613 157.348ZM29.0013 170.025C29.0013 170.401 28.2351 172.007 27.2947 173.578C26.3544 175.116 25.3444 176.859 25.031 177.44L24.5086 178.431L27.7127 177.132C31.2999 175.663 31.892 175.56 31.7178 176.38C31.6482 176.722 30.0461 177.576 27.1206 178.772C24.6479 179.763 22.5931 180.583 22.5234 180.583C21.9313 180.583 22.7324 178.67 24.6479 175.458C25.9017 173.373 26.9116 171.597 26.9116 171.562C26.9116 171.494 25.4489 172.041 23.7075 172.758C20.0855 174.228 19.4934 174.33 19.6676 173.51C19.7372 173.168 21.3044 172.314 24.1255 171.152C26.5285 170.161 28.5834 169.341 28.7575 169.341C28.8968 169.307 29.0013 169.615 29.0013 170.025ZM235.353 185.709C238.662 189.399 239.219 190.493 237.721 190.493C237.373 190.493 235.493 190.117 233.507 189.673L229.92 188.887L230.582 189.604C235.04 194.593 235.702 195.584 234.9 196.097C234.761 196.165 232.323 195.687 229.502 195.003C224.592 193.773 224.383 193.705 224.835 193.09C225.323 192.441 225.393 192.441 228.91 193.363C230.861 193.876 232.532 194.217 232.602 194.149C232.706 194.047 231.662 192.714 230.303 191.142C228.98 189.57 227.865 188.169 227.865 188.033C227.865 187.383 229.084 187.383 232.219 188.067C234.065 188.477 235.702 188.784 235.91 188.784C236.119 188.784 235.075 187.486 233.612 185.88C231.348 183.454 231 182.907 231.348 182.463C231.592 182.189 231.836 181.95 231.87 181.95C231.905 181.95 233.473 183.659 235.353 185.709ZM38.7529 189.775C40.1112 190.732 41.1909 192.543 41.1909 193.773C41.1909 195.311 40.2853 195.311 40.0067 193.807C39.7281 192.27 38.8574 191.176 37.4992 190.629C36.4892 190.219 36.1409 190.219 34.9219 190.698C31.9964 191.86 31.2302 194.559 33.2154 196.814C34.295 198.01 34.295 198.01 35.305 197.429C36.2454 196.883 36.2802 196.78 35.7926 196.097C35.3747 195.448 35.3747 195.277 35.7578 194.969C36.1409 194.662 36.3847 194.832 36.9767 195.721C37.3947 196.37 37.7081 197.019 37.7081 197.19C37.7081 197.361 36.9767 197.942 36.0712 198.455C34.6085 199.343 34.4344 199.377 33.6682 198.899C32.3447 198.044 31.0561 196.063 30.8471 194.662C30.2899 190.595 35.4443 187.383 38.7529 189.775ZM220.83 204.503C223.164 205.904 224.069 208.466 223.024 210.79C222.189 212.704 220.621 213.729 218.497 213.729C213.308 213.729 211.288 207.031 215.641 204.366C216.895 203.614 219.437 203.683 220.83 204.503ZM59.51 213.045C59.7887 213.319 59.7538 214.207 59.4752 216.052C59.2314 217.487 59.0921 218.718 59.1269 218.786C59.1618 218.82 60.2762 218.478 61.5648 218C63.759 217.214 65.2217 217.112 65.2217 217.829C65.2217 218.102 59.6493 220.221 58.9528 220.221C58.7787 220.221 58.5 220.426 58.3607 220.699C58.2214 220.939 57.6294 221.656 57.1069 222.271C56.2363 223.262 56.0621 223.331 55.6094 222.886C55.1566 222.442 55.2263 222.203 56.3059 220.973C56.9676 220.187 57.5945 219.128 57.699 218.615C57.9428 217.453 58.6045 213.319 58.6045 212.943C58.6045 212.601 59.0921 212.635 59.51 213.045ZM202.79 218.342C203.974 218.923 204.357 220.016 204.043 221.725L203.835 222.852L205.994 223.467C208.78 224.219 208.884 224.287 208.083 224.868C207.526 225.244 207.073 225.21 205.123 224.595C203.486 224.048 202.616 223.946 202.093 224.185C201.362 224.492 201.362 224.526 202.65 226.167C203.8 227.636 203.869 227.841 203.382 228.319C202.894 228.798 202.546 228.422 199.795 224.834L196.765 220.802L197.775 219.982C198.576 219.298 201.222 217.863 201.675 217.829C201.745 217.829 202.232 218.068 202.79 218.342ZM78.8392 226.474C81.2771 228.046 81.7995 230.848 80.1278 233.479C79.1875 234.983 76.7844 236.076 75.2172 235.769C72.9186 235.29 70.7941 232.967 70.7941 230.951C70.7941 229.515 72.1175 227.192 73.3365 226.406C74.8689 225.415 77.3068 225.449 78.8392 226.474ZM186.699 228.627C186.63 228.969 186.177 229.242 185.55 229.276C181.789 229.55 180.361 233.206 182.903 235.905C184.122 237.17 185.968 237.34 187.744 236.281C188.963 235.529 189.033 235.324 188.476 234.094C188.127 233.377 187.953 233.308 187.396 233.582C186.769 233.923 186.073 233.752 186.073 233.24C186.073 233.035 188.267 231.839 188.685 231.839C188.789 231.839 189.242 232.591 189.729 233.513L190.565 235.188L189.834 236.11C188.963 237.204 186.665 238.297 185.272 238.331C181.475 238.365 178.794 233.513 180.953 230.472C181.928 229.037 183.774 228.08 185.48 228.08C186.525 228.08 186.804 228.217 186.699 228.627ZM94.9643 233.855C95.0687 234.026 94.6856 235.495 94.1284 237.17C93.5363 238.81 93.0836 240.484 93.0836 240.86C93.0836 241.953 94.4418 243.115 95.7305 243.115C97.2629 243.115 98.0291 242.056 99.248 238.468C100.119 235.803 100.711 235.085 101.268 235.939C101.407 236.144 100.989 237.75 100.397 239.527C99.5963 241.919 99.0391 242.978 98.238 243.628C95.8698 245.61 91.6905 243.867 91.6905 240.894C91.6905 239.356 93.7453 233.547 94.3025 233.547C94.5812 233.547 94.8598 233.684 94.9643 233.855ZM152.847 239.869C154.136 240.689 155.216 243.218 154.972 244.926C154.31 249.71 147.797 250.838 145.603 246.532C143.723 242.876 146.474 238.741 150.444 239.117C151.28 239.22 152.325 239.527 152.847 239.869ZM133.832 241.065C133.832 241.646 133.588 241.748 132.299 241.748H130.802L130.593 244.038C130.453 245.336 130.349 247.25 130.349 248.309C130.349 250.086 130.279 250.291 129.617 250.291C128.921 250.291 128.886 250.154 128.991 245.917L129.095 241.577L127.458 241.475C126.309 241.407 125.821 241.236 125.821 240.86C125.821 240.484 126.553 240.382 129.826 240.382C133.588 240.382 133.832 240.416 133.832 241.065Z" fill="white"/>
<path d="M181.649 97.5497C180.256 98.3698 179.595 99.3949 179.246 101.103C179.037 102.265 179.072 102.402 179.664 102.231C180.047 102.129 182.137 101.787 184.331 101.445C186.525 101.138 188.371 100.83 188.441 100.796C188.754 100.523 187.431 98.2331 186.595 97.618C185.376 96.6613 183.147 96.6271 181.649 97.5497Z" fill="white"/>
<path d="M126.866 106.024C125.508 106.741 124.428 108.484 124.428 109.953C124.428 110.705 124.568 110.876 125.055 110.739C125.369 110.671 127.423 110.329 129.583 109.988C133.866 109.372 134.075 109.202 132.822 107.322C131.498 105.375 129.13 104.862 126.866 106.024Z" fill="white"/>
<path d="M53.485 109.578C51.9874 109.783 50.9426 110.09 50.9426 110.295C50.9426 110.535 51.2561 112.824 51.674 115.387C52.5447 120.786 52.1616 120.444 56.306 119.59C57.6991 119.316 59.1619 118.735 59.8584 118.223C62.6794 116.104 61.9132 111.013 58.6046 109.714C57.0722 109.099 57.1071 109.099 53.485 109.578Z" fill="white"/>
<path d="M89.6356 120.41C87.0236 121.298 85.9788 122.152 85.8395 123.485C85.5608 126.321 89.4267 126.834 92.1432 124.271C93.1184 123.382 93.2577 122.699 92.8746 120.82C92.596 119.59 92.2477 119.521 89.6356 120.41Z" fill="white"/>
<path d="M181.197 134.727C179.316 135.649 178.689 137.153 178.864 140.467C179.142 146.789 182.834 149.454 186.735 146.174C188.406 144.773 188.441 144.465 187.501 138.895C186.943 135.615 186.839 135.308 185.899 134.727C184.575 133.941 182.764 133.941 181.197 134.727Z" fill="white"/>
<path d="M224.139 127.961C222.85 128.712 221.945 130.25 221.945 131.651V132.608L226.402 131.959C228.84 131.583 230.895 131.241 230.93 131.173C231 131.139 230.895 130.524 230.651 129.84C229.85 127.482 226.542 126.526 224.139 127.961Z" fill="white"/>
<path d="M201.675 131.719C200.735 132.642 200.63 132.95 200.805 134.18C201.048 135.991 201.989 136.879 203.869 137.084C206.725 137.358 208.362 135.615 207.874 132.915C207.561 131.378 206.516 130.694 204.427 130.694C202.999 130.694 202.581 130.865 201.675 131.719Z" fill="white"/>
<path d="M204.74 146.721C201.884 147.165 201.222 150.035 203.73 151.06C206.029 152.017 210.8 150.821 212.019 149.01C212.576 148.19 212.576 148.053 212.054 147.267C211.531 146.481 211.288 146.413 208.78 146.447C207.317 146.481 205.471 146.618 204.74 146.721Z" fill="white"/>
<path d="M131.394 134.487C130.523 134.624 129.339 134.863 128.747 134.966L127.667 135.136L128.329 139.134C128.677 141.321 129.025 143.167 129.06 143.201C129.269 143.406 135.12 142.21 135.886 141.8C137.488 141.014 138.185 139.954 138.15 138.417C138.08 134.829 135.991 133.633 131.394 134.487Z" fill="white"/>
<path d="M131.916 146.515C130.767 146.686 129.792 146.891 129.722 146.925C129.583 147.028 130.627 154.101 130.871 154.819C131.045 155.365 137.105 154.374 138.812 153.52C141.319 152.29 141.807 149.044 139.752 147.028C138.847 146.139 138.568 146.071 136.374 146.105C135.085 146.139 133.065 146.31 131.916 146.515Z" fill="white"/>
<path d="M17.6129 139.818C16.986 140.057 17.0556 141.663 17.7174 142.586C18.7622 144.055 21.3394 143.269 21.3394 141.458C21.3394 139.921 20.9911 139.579 19.4587 139.613C18.6925 139.613 17.8218 139.716 17.6129 139.818Z" fill="white"/>
<path d="M215.746 205.972C214.805 206.963 214.352 208.159 214.561 209.218C214.77 210.346 216.756 212.225 217.975 212.464C220.447 212.908 222.711 210.414 221.945 208.09C221.039 205.425 217.452 204.195 215.746 205.972Z" fill="white"/>
<path d="M200.7 219.47C200.387 219.606 199.794 219.982 199.342 220.29L198.506 220.871L199.62 222.237C200.839 223.775 201.501 223.741 202.581 222.203C203.312 221.178 203.277 220.7 202.441 219.88C201.71 219.162 201.536 219.128 200.7 219.47Z" fill="white"/>
<path d="M74.6949 227.226C73.267 227.841 72.0132 230.301 72.3615 231.839C72.6053 232.932 73.8939 234.128 75.2173 234.436C76.9935 234.88 79.0483 233.172 79.6752 230.78C79.9887 229.481 79.0135 227.773 77.5856 227.192C76.1577 226.611 76.1229 226.611 74.6949 227.226Z" fill="white"/>
<path d="M148.006 240.757C146.16 241.817 145.951 245.336 147.658 247.01C148.703 248.036 150.966 248.241 152.185 247.386C153.892 246.225 153.822 242.603 152.116 241.133C151.141 240.313 149.121 240.142 148.006 240.757Z" fill="white"/>
</svg>
