<svg width="27" height="25" viewBox="0 0 27 25" fill="none" xmlns="http://www.w3.org/2000/svg">
<path d="M23.8005 7.52811C23.8164 7.74086 23.8164 7.9536 23.8164 8.16831C23.8164 14.7105 18.4375 22.2556 8.60212 22.2556V22.2516C5.6967 22.2556 2.85164 21.485 0.405762 20.032C0.828232 20.0791 1.25282 20.1026 1.67847 20.1036C4.08623 20.1056 6.42517 19.3575 8.31941 17.9801C6.03129 17.9399 4.02482 16.5585 3.32388 14.5418C4.12541 14.685 4.95129 14.6556 5.738 14.4565C3.24341 13.9899 1.4487 11.9605 1.4487 9.6036C1.4487 9.58204 1.4487 9.56145 1.4487 9.54086C2.192 9.92419 3.02423 10.1369 3.87553 10.1605C1.526 8.70655 0.801762 5.81243 2.22059 3.54968C4.93541 6.64282 8.94094 8.52321 13.2408 8.72223C12.8099 7.00262 13.3986 5.20066 14.7878 3.99184C16.9414 2.11733 20.3286 2.21341 22.3531 4.20655C23.5506 3.98792 24.6984 3.58106 25.7487 3.00458C25.3495 4.15066 24.5141 5.12419 23.3981 5.74282C24.458 5.62713 25.4935 5.36439 26.4687 4.96341C25.7508 5.95949 24.8466 6.82713 23.8005 7.52811Z" fill="#1D9BF0"/>
</svg>
