<svg width="214" height="202" viewBox="0 0 214 202" fill="none" xmlns="http://www.w3.org/2000/svg">
<path d="M48.728 114.537C48.728 109.307 53.219 105.068 58.7593 105.068H182.144C183.901 105.068 184.809 107.833 183.552 108.991C180.407 111.887 177.098 116.392 177.098 122.523C177.098 128.851 180.624 133.542 183.854 136.512C185.098 137.656 184.21 140.303 182.473 140.303H58.7593C53.219 140.303 48.728 136.064 48.728 130.834V114.537Z" fill="black"/>
<path d="M118.992 48.0692C118.992 57.1675 111.841 67.8382 97.5392 67.8382C83.2373 67.8382 76.0862 57.1675 76.0862 48.0692C76.0862 38.2602 82.8583 36.1313 90.1988 36.3382C93.2114 36.4231 97.5392 38.5881 97.5392 38.5881C97.5392 38.5881 101.867 36.4231 104.88 36.3382C112.22 36.1313 118.992 38.1847 118.992 48.0692Z" fill="white" stroke="black" stroke-width="2" stroke-linecap="round" stroke-linejoin="round"/>
<path d="M103.886 61.9317C106.121 61.1162 111.001 57.9154 112.646 51.6379" stroke="black" stroke-width="2" stroke-linecap="round" stroke-linejoin="round"/>
<path d="M98.0933 37.93C93.6852 37.9693 89.6538 35.1473 88.5894 27.0974C92.7891 28.6426 99.6289 27.9185 98.0933 37.93Z" fill="white" stroke="black" stroke-width="2" stroke-linecap="round" stroke-linejoin="round"/>
<path d="M98.165 37.8006C100.131 35.4803 103.081 28.3083 100.534 23.0771" stroke="black" stroke-width="2" stroke-linecap="round" stroke-linejoin="round"/>
<path d="M85.7412 50.768C84.8235 49.1448 84.5643 46.4669 85.5014 44.4082" stroke="black" stroke-width="2" stroke-linecap="round" stroke-linejoin="round"/>
<path d="M36.8228 79.073C36.8228 73.8436 41.3139 69.6042 46.854 69.6042H166.441C166.441 69.6042 157.18 75.2464 156.216 85.909C155.252 96.5716 166.441 102.139 166.441 102.139H46.854C41.3139 102.139 36.8228 97.9002 36.8228 92.6707V79.073Z" fill="white"/>
<path fill-rule="evenodd" clip-rule="evenodd" d="M168.261 72.252L168.256 72.2549L168.224 72.2757C168.181 72.3032 168.107 72.3514 168.007 72.4202C167.806 72.558 167.5 72.7772 167.121 73.076C166.359 73.676 165.319 74.5839 164.253 75.7854C162.112 78.1967 159.954 81.6793 159.548 86.1774C159.173 90.3203 161.125 93.5417 163.418 95.8767C164.561 97.04 165.741 97.9281 166.635 98.524C167.079 98.8198 167.445 99.0379 167.689 99.1766C167.809 99.2459 167.9 99.2948 167.955 99.3233C167.982 99.3377 167.998 99.3469 168.007 99.351L168.003 99.3497L168.002 99.3486C168.005 99.35 168.01 99.3527 168.01 99.3527C169.363 100.032 170.055 101.493 169.687 102.898C169.318 104.306 167.978 105.296 166.441 105.296H46.854C39.4672 105.296 33.479 99.6434 33.479 92.6708V79.073C33.479 72.1004 39.4672 66.448 46.854 66.448H166.441C167.923 66.448 169.229 67.3696 169.649 68.7121C170.067 70.0507 169.503 71.4888 168.264 72.2495L168.261 72.252ZM161.972 98.9832C164.3 101.074 166.441 102.139 166.441 102.139H46.854C41.3139 102.139 36.8228 97.9002 36.8228 92.6708V79.073C36.8228 73.8436 41.3139 69.6042 46.854 69.6042H166.441C166.441 69.6042 164.686 70.6734 162.624 72.7605C159.95 75.4678 156.76 79.8879 156.216 85.909C155.674 91.9076 158.978 96.2938 161.972 98.9832Z" fill="black"/>
<path d="M28.2415 152.7C28.2415 147.47 32.7326 143.231 38.2727 143.231H157.859C157.859 143.231 149.46 148.188 148.065 159.291C146.67 170.396 157.859 175.767 157.859 175.767H38.2727C32.7326 175.767 28.2415 171.526 28.2415 166.298V152.7Z" fill="white"/>
<path fill-rule="evenodd" clip-rule="evenodd" d="M159.64 145.902C159.64 145.903 159.64 145.902 159.64 145.902C159.638 145.904 159.636 145.905 159.635 145.906C159.634 145.906 159.635 145.906 159.635 145.906M154.126 146.387C156.139 144.246 157.859 143.231 157.859 143.231H38.2727C32.7326 143.231 28.2415 147.47 28.2415 152.7V166.298C28.2415 171.526 32.7326 175.767 38.2727 175.767H157.859C157.859 175.767 155.689 174.725 153.379 172.611C150.444 169.923 147.285 165.506 148.065 159.291C148.829 153.213 151.691 148.977 154.126 146.387ZM159.377 172.955C159.381 172.956 159.384 172.958 159.387 172.959C159.388 172.959 159.389 172.959 159.387 172.959C160.758 173.624 161.47 175.087 161.111 176.502C160.75 177.921 159.406 178.923 157.859 178.923H38.2727C30.8859 178.923 24.8977 173.27 24.8977 166.298V152.7C24.8977 145.727 30.8859 140.075 38.2727 140.075H157.859C159.351 140.075 160.662 141.007 161.073 142.361C161.483 143.708 160.902 145.148 159.649 145.897C159.646 145.899 159.643 145.901 159.64 145.902M159.385 172.958C159.378 172.955 159.362 172.947 159.336 172.932C159.284 172.906 159.197 172.86 159.078 172.794C158.84 172.663 158.482 172.453 158.047 172.165C157.171 171.588 156.02 170.722 154.916 169.573C152.724 167.291 150.836 164.041 151.386 159.664C151.994 154.824 154.117 151.356 156.075 149.094C157.057 147.959 157.995 147.133 158.669 146.601C159.005 146.336 159.273 146.147 159.444 146.031C159.529 145.974 159.59 145.934 159.622 145.914L159.64 145.902L159.637 145.905L159.635 145.906M159.385 172.958H159.383L159.38 172.955" fill="black"/>
<path d="M58.7451 114.604H136.691" stroke="white" stroke-width="2" stroke-linecap="round" stroke-linejoin="round"/>
<path d="M58.7451 122.686H101.294" stroke="white" stroke-width="2" stroke-linecap="round" stroke-linejoin="round"/>
<path d="M128.646 68.5212H142.501V87.8697C142.501 89.2756 140.7 89.9798 139.646 88.9856L136.756 86.2567C136.103 85.6404 135.044 85.6404 134.391 86.2567L131.5 88.9856C130.447 89.9798 128.646 89.2756 128.646 87.8697V68.5212Z" fill="black"/>
<path d="M35.8618 151.417H113.808" stroke="black" stroke-width="2" stroke-linecap="round" stroke-linejoin="round"/>
<path d="M35.8618 159.5H78.4102" stroke="black" stroke-width="2" stroke-linecap="round" stroke-linejoin="round"/>
<path d="M45.873 78.0425H111.305" stroke="black" stroke-width="2" stroke-linecap="round" stroke-linejoin="round"/>
</svg>
