<svg width="90" height="84" viewBox="0 0 90 84" fill="none" xmlns="http://www.w3.org/2000/svg">
<path d="M60.252 2.74074C57.929 4.23933 55.8877 5.67877 55.7117 5.95483C55.2366 6.66468 55.0782 7.72947 55.0606 10.0957V12.2252H40.4544H25.8483L25.7427 11.6731C24.898 7.39426 21.9416 3.98299 18.334 3.15483C16.2399 2.66187 12.7203 3.25342 12.2804 4.16046C11.9812 4.81116 12.1572 5.73792 12.6851 6.17173C13.1427 6.54638 13.1779 6.54638 14.3041 6.21116C17.6829 5.18581 21.0969 6.88158 22.6103 10.352C23.0678 11.4365 23.1206 11.7126 23.1206 13.6055C23.1206 15.5576 23.0854 15.7745 22.5575 16.9774C19.9882 22.8337 12.5092 22.7548 10.0631 16.859C9.39435 15.2224 9.27117 12.6393 9.8167 11.0421C10.2742 9.70131 10.2742 9.44497 9.8167 8.79426C9.34156 8.12384 8.46167 8.0844 7.95134 8.71539C7.21223 9.64215 6.93066 10.9633 6.93066 13.6055C6.93066 16.4252 7.15944 17.3914 8.2329 19.2844C9.51754 21.4929 11.4181 23.1492 13.5122 23.8788C14.8321 24.3323 17.1374 24.4112 18.5452 24.0562C21.7656 23.2281 24.722 19.9943 25.5667 16.3464L25.7955 15.2816L40.4017 15.2224L55.0078 15.183L55.1134 16.7605C55.1662 17.7858 55.3246 18.5548 55.5357 18.9689C55.9229 19.7182 57.0492 20.5069 57.7531 20.5069C58.9321 20.5069 59.3897 18.7323 58.4042 17.9041L57.8763 17.4703V13.4872V9.50412L60.9559 11.4957L64.0355 13.4872V17.3914V21.2957L63.2612 21.1774C62.2933 21.0196 61.7478 21.5323 61.7478 22.5576C61.7478 23.3267 62.1877 23.7802 63.7715 24.7267C65.3025 25.6337 65.5489 25.5548 69.9131 22.7351C72.0601 21.3745 74.0662 20.0337 74.4006 19.7576C75.1749 19.1069 75.474 18.2393 75.474 16.5633V15.183H76.6707C79.3279 15.183 81.9676 16.5041 84.1145 18.9098C86.4199 21.4929 87.5813 24.8647 87.3877 28.3943C87.1238 32.9689 84.9064 36.7943 81.2813 38.9238C79.0464 40.245 78.7824 40.2844 70.9866 40.3633C63.0676 40.4619 63.1556 40.4421 63.1556 41.783C63.1556 42.2957 63.2788 42.6506 63.5251 42.9069C63.8771 43.2619 64.2642 43.2816 71.057 43.2619C77.8497 43.2619 78.2721 43.2421 79.5919 42.8281C84.5193 41.29 88.1972 37.2281 89.5875 31.8252C90.0978 29.7943 90.1506 25.8309 89.6579 23.8788C88.2852 18.259 84.4489 14.0393 79.4511 12.6196C78.6768 12.4027 77.4802 12.2252 76.7587 12.2252H75.474V9.76046C75.474 7.09849 75.3157 6.32947 74.5766 5.5999C74.3478 5.36328 72.3416 4.00271 70.1243 2.58299C66.552 0.29567 66.0064 -0.000106812 65.2849 -0.000106812C64.5634 -0.000106812 64.0179 0.29567 60.252 2.74074ZM68.4173 4.90976C70.5819 6.30975 71.3738 6.90131 71.2154 7.03933C71.0922 7.13792 69.702 8.04497 68.1358 9.0506L65.2849 10.8844L62.2933 8.95201C60.6391 7.8675 59.3017 6.94074 59.3369 6.86187C59.3721 6.70412 65.0913 2.95764 65.3025 2.95764C65.3553 2.95764 66.7631 3.82525 68.4173 4.90976ZM72.8344 13.4478V17.4506L69.9131 19.3238C68.3117 20.3492 66.9391 21.2365 66.8335 21.2562C66.7279 21.3154 66.6927 19.8562 66.7103 17.352L66.7631 13.3689L69.7548 11.4168C71.409 10.352 72.764 9.46468 72.7992 9.46468C72.8168 9.46468 72.8344 11.259 72.8344 13.4478Z" fill="#00FFF0"/>
<path d="M14.6205 9.52397C13.9518 10.3127 14.1102 10.9437 15.3244 12.3437L16.3979 13.6057L15.3244 14.8676C14.4973 15.8338 14.2334 16.2676 14.2334 16.7014C14.2334 17.4902 14.8141 18.1409 15.518 18.1409C16.0284 18.1409 16.3451 17.8648 17.9113 16.0704C19.5479 14.2169 19.7239 13.9606 19.6183 13.4676C19.5479 13.1324 18.8088 12.1465 17.7705 10.9831C15.87 8.87326 15.3596 8.63664 14.6205 9.52397Z" fill="#00FFF0"/>
<path d="M42.4427 25.4367C41.6156 25.9888 41.2988 26.6593 41.1933 28.1184C41.1053 29.3804 41.0877 29.4395 40.5069 29.7156C39.891 29.9917 39.891 29.9917 39.0639 29.124C37.4625 27.448 36.5474 27.6057 34.4357 29.9522C32.324 32.2987 32.1832 33.2846 33.6966 35.0987L34.4885 36.0452L34.1893 36.8536L33.9078 37.6621H32.7111C31.3913 37.6621 30.8106 37.9973 30.3354 39.0424C29.9483 39.8705 29.9659 43.7748 30.353 44.6818C30.7226 45.5494 31.8136 46.141 33.0279 46.141C33.9078 46.141 33.943 46.1607 34.2069 46.8508L34.4709 47.5804L33.6966 48.5071C32.2536 50.2424 32.3768 51.3071 34.2773 53.4959C35.7555 55.2114 36.2835 55.6057 37.1106 55.6057C37.8145 55.6057 38.272 55.3494 39.1519 54.4029C39.8558 53.6339 39.8558 53.6339 40.4893 53.91C41.0877 54.2057 41.1053 54.2452 41.1933 55.4677C41.2988 56.9071 41.6684 57.755 42.3899 58.248C43.0938 58.7015 46.9653 58.7015 47.6692 58.248C48.3908 57.755 48.7603 56.9071 48.8659 55.4677C48.9539 54.2452 48.9715 54.2057 49.5698 53.91C50.2033 53.6339 50.2033 53.6339 50.9072 54.4029C51.7871 55.3494 52.2447 55.6057 52.9486 55.6057C53.7757 55.6057 54.3036 55.2114 55.7818 53.4959C57.6824 51.3071 57.8056 50.2424 56.3625 48.5071L55.5882 47.5804L55.8522 46.8508C56.1162 46.1607 56.1514 46.141 57.0313 46.141C58.2455 46.141 59.3366 45.5494 59.7061 44.6818C60.0933 43.7748 60.1109 39.8705 59.7237 39.0424C59.2486 37.9973 58.6679 37.6621 57.348 37.6621H56.1514L55.8698 36.8536L55.5706 36.0452L56.3625 35.0987C57.876 33.2846 57.7352 32.2987 55.6234 29.9522C53.5117 27.6057 52.5966 27.448 50.9952 29.124C50.1681 29.9917 50.1681 29.9917 49.5522 29.7156C48.9715 29.4395 48.9539 29.3804 48.8659 28.1184C48.7603 26.6593 48.4435 25.9888 47.6164 25.4367C46.7894 24.8649 43.2698 24.8649 42.4427 25.4367ZM46.2614 29.2029C46.2614 30.9579 46.631 31.5297 48.2324 32.2987C48.9363 32.6339 49.6754 32.9494 49.869 33.0086C50.4849 33.2057 51.4 32.7719 52.1919 31.9043L52.9486 31.0762L53.7757 31.9832L54.6028 32.91L53.8637 33.7973C52.7198 35.1776 52.667 36.1635 53.6173 38.4902C54.2332 40.0086 54.6732 40.3635 56.2922 40.5607L57.348 40.679V41.9015V43.1438L56.1162 43.2226C55.0779 43.2818 54.8139 43.3804 54.3916 43.8339C53.7405 44.524 52.9486 46.7719 52.9486 47.8762C52.9486 48.6057 53.0542 48.8424 53.7757 49.71L54.6028 50.6959L53.7757 51.6226L52.9486 52.5297L52.2975 51.8198C51.4528 50.9325 51.0128 50.6762 50.2737 50.6762C49.341 50.6762 47.3701 51.6424 46.7718 52.3917C46.3142 52.9832 46.2614 53.2001 46.2614 54.324V55.6057H45.0296H43.7977V54.324C43.7977 53.2001 43.7449 52.9832 43.2874 52.4114C42.7067 51.6818 40.6829 50.6762 39.7678 50.6762C39.0463 50.6762 38.6064 50.9325 37.7617 51.8198L37.1106 52.5297L36.2835 51.6226L35.4564 50.6959L36.2835 49.71C37.005 48.8424 37.1106 48.6057 37.1106 47.8762C37.1106 46.7719 36.3187 44.524 35.6676 43.8339C35.2452 43.3804 34.9812 43.2818 33.943 43.2226L32.7111 43.1438V41.9015V40.679L33.767 40.5607C35.386 40.3635 35.8259 40.0086 36.4419 38.4902C37.3921 36.1635 37.3393 35.1776 36.1955 33.7973L35.4564 32.91L36.2835 31.9832L37.1106 31.0762L37.8673 31.9043C38.6592 32.7719 39.5743 33.2057 40.1902 33.0086C40.3838 32.9494 41.1229 32.6339 41.8268 32.2987C43.4282 31.5297 43.7977 30.9579 43.7977 29.2029V28.0001H45.0296H46.2614V29.2029Z" fill="#00FFF0"/>
<path d="M43.6394 35.7888C42.4427 36.1635 41.7212 36.6564 40.8941 37.6818C39.8911 38.9437 39.5039 40.0677 39.5039 41.8029C39.5039 43.5776 40.0142 45.017 41.0877 46.2198C43.2522 48.6452 46.8598 48.6452 48.9891 46.2198C50.6081 44.3663 51.0657 41.448 50.0802 39.2001C48.9011 36.479 46.1207 35.0198 43.6394 35.7888ZM46.455 38.9635C47.5989 39.6142 48.2148 41.2508 47.8453 42.6902C47.4229 44.3663 45.9271 45.3916 44.3785 45.0564C43.393 44.8592 42.2844 43.5381 42.126 42.355C41.9852 41.3494 42.4075 40.0283 43.0587 39.3776C43.9385 38.4902 45.3464 38.3128 46.455 38.9635Z" fill="#00FFF0"/>
<path d="M12.2098 40.7183C7.72234 41.8028 3.71005 45.2535 1.6863 49.7887C-2.76594 59.6676 1.96787 71.4394 11.5411 74.2789C13.1953 74.7718 13.512 74.7915 19.4953 74.9099L25.7249 75.0282L25.9712 75.9549C26.3408 77.4338 27.555 79.2282 28.8045 80.1944C31.4442 82.2056 34.6821 82.2056 37.3218 80.1944C38.5713 79.2282 39.7855 77.4338 40.1551 75.9549L40.4014 75.0282L50.4498 74.969L60.4981 74.9296L60.6917 75.7577C61.4308 79.0113 63.2961 81.6141 65.883 83.0141C67.2908 83.7634 68.2235 83.9803 70.0185 84C72.7462 84 74.6819 83.1127 76.6353 80.9437C78.5886 78.7944 79.5213 76.3296 79.5213 73.3521C79.5213 68.2451 76.3713 63.9662 71.7431 62.8225C71.2503 62.7042 71.2503 62.6845 71.2503 61.0282V59.3718L75.4386 59.3127C81.2459 59.2338 81.1051 59.3521 81.1051 53.9099V50.4394L80.4188 49.6704L79.7325 48.9014H75.0163C70.5816 48.9014 70.2473 48.9211 69.7017 49.2958C68.6635 50.0056 68.6107 50.4 68.6107 56.8873C68.6107 61.3831 68.5579 62.7239 68.3995 62.7831C66.8861 63.2366 66.1118 63.5521 65.883 63.8084C65.0559 64.7549 65.6014 66.1746 66.7805 66.1352C67.1677 66.1352 67.7308 66.0563 68.0475 65.9577L68.6107 65.8V67.3972V68.9746L67.9596 69.3493C67.0445 69.8817 66.2174 71.1634 65.971 72.4254C65.3199 75.6 68.0123 78.6169 70.8456 77.8873C72.8341 77.3944 74.066 75.6592 74.066 73.3718C74.066 71.5972 73.3797 70.2366 72.1302 69.4479L71.2503 68.9155V67.3775C71.2503 65.9775 71.2855 65.8592 71.6199 65.8592C72.3062 65.8592 73.978 66.9239 74.8755 67.9099C75.3506 68.462 75.9841 69.4479 76.2833 70.0986C76.7408 71.1831 76.7936 71.4592 76.7936 73.3521C76.7936 75.3042 76.7584 75.5211 76.2305 76.7239C75.5442 78.3014 74.2772 79.6817 72.8693 80.4113C71.9894 80.8845 71.6551 80.9437 70.0185 80.9437C68.3819 80.9437 68.0475 80.8845 67.1677 80.4113C65.7598 79.6817 64.4928 78.3014 63.8065 76.7239C63.3313 75.6197 63.2257 75.1662 63.1906 73.707C63.1378 72.4845 63.2082 71.7155 63.4017 71.0451C63.8065 69.7042 63.7713 69.1127 63.2257 68.6394C62.0819 67.6338 61.1492 68.5014 60.6741 70.9859L60.4805 71.9718H50.485H40.4894L40.1903 70.9465C40.0319 70.3746 39.7151 69.5465 39.4863 69.1127C38.888 67.9493 37.2514 66.3127 36.1076 65.7014C35.1925 65.2282 34.8933 65.169 33.0631 65.169C31.145 65.169 30.9866 65.2084 29.878 65.8C27.995 66.8451 26.376 68.9746 25.8657 71.1437L25.6545 71.9718H20.5159C17.6827 71.9718 14.7263 71.8732 13.952 71.7746C8.72541 71.0451 4.71312 67.2394 3.11172 61.5211C2.77736 60.2789 2.70697 59.6479 2.72457 57.4789C2.74217 54.5408 3.09412 52.9634 4.29077 50.538C5.25865 48.5859 7.58156 46.062 9.39413 45.0169C12.0338 43.4986 11.9282 43.5183 19.6184 43.4C26.0768 43.2817 26.5344 43.262 26.8863 42.907C27.1327 42.6507 27.2559 42.2958 27.2559 41.7831C27.2559 40.4028 27.3263 40.4225 19.8648 40.4422C15.131 40.4422 12.9665 40.5211 12.2098 40.7183ZM78.4654 54.1268V56.3944L74.9107 56.3549L71.3383 56.2958L71.2855 54.0676L71.2327 51.8592H74.8579H78.4654V54.1268ZM34.9989 68.4423C38.1489 70.0394 38.8176 74.7521 36.2659 77.3352C35.2629 78.3606 34.4182 78.7155 33.0631 78.7155C31.6025 78.7352 30.5115 78.1831 29.4908 76.9014C28.6109 75.8169 28.3117 74.8704 28.3117 73.2338C28.3117 70.2958 30.3883 68.0282 33.0631 68.0282C33.8375 68.0282 34.471 68.1662 34.9989 68.4423ZM71.0216 72.2084C71.2855 72.4845 71.4263 72.8592 71.4263 73.293C71.4263 74.2394 71.1799 74.6732 70.476 74.9296C69.2618 75.3634 68.1355 74.062 68.6107 72.7606C68.7339 72.4254 68.9626 72.0704 69.121 71.9718C69.6313 71.6366 70.5816 71.7549 71.0216 72.2084Z" fill="#00FFF0"/>
<path d="M13.7934 49.3746C11.6113 49.9859 9.76351 51.6816 8.74284 53.969C8.17971 55.2506 8.16211 55.3887 8.16211 57.5774C8.16211 59.707 8.1973 59.9239 8.70764 61.1267C9.72831 63.4929 11.4529 65.1295 13.6174 65.7605C17.225 66.8056 20.7797 64.9323 22.3987 61.1267C22.9091 59.9239 22.9442 59.707 22.9442 57.5774C22.9442 55.4084 22.9267 55.2506 22.3635 53.969C20.7621 50.3408 17.2074 48.4281 13.7934 49.3746ZM16.9962 52.352C18.1401 52.7267 19.4423 54.0281 19.9702 55.3098C20.4454 56.414 20.5158 58.3859 20.1638 59.4901C19.7766 60.6732 18.8968 61.7971 17.9113 62.4084C17.0842 62.9211 16.785 62.9999 15.5532 62.9999C14.3213 62.9999 14.0222 62.9211 13.1951 62.4084C12.2096 61.7971 11.3297 60.6732 10.9426 59.4901C10.837 59.1351 10.7314 58.2873 10.7314 57.5774C10.7138 55.9211 11.2417 54.5999 12.3856 53.476C13.723 52.1549 15.2716 51.7802 16.9962 52.352Z" fill="#00FFF0"/>
</svg>
