<svg width="163" height="148" viewBox="0 0 163 148" fill="none" xmlns="http://www.w3.org/2000/svg">
<path d="M29.0701 129.5H133.93L123.742 120.25H39.2576L29.0701 129.5ZM117.156 122.562H122.25V127.188H117.156V122.562ZM106.969 122.562H112.063V127.188H106.969V122.562ZM61.125 122.562H101.875V127.188H61.125V122.562ZM50.9375 122.562H56.0313V127.188H50.9375V122.562ZM40.75 122.562H45.8438V127.188H40.75V122.562Z" fill="white"/>
<path d="M137.531 134.125H25.4688V138.75H137.531V134.125Z" fill="white"/>
<path d="M48.3906 115.625H43.2969V111C43.2969 110.387 43.0284 109.798 42.5509 109.365C42.0734 108.931 41.4254 108.688 40.75 108.688H25.4688C23.4423 108.688 21.4989 107.957 20.066 106.656C18.6331 105.354 17.8281 103.59 17.8281 101.75C17.8281 99.9102 18.6331 98.1455 20.066 96.8445C21.4989 95.5435 23.4423 94.8125 25.4688 94.8125H40.75C41.4254 94.8125 42.0734 94.5688 42.5509 94.1352C43.0284 93.7016 43.2969 93.1133 43.2969 92.5V87.875H48.3906V92.5C48.3906 94.3398 47.5856 96.1045 46.1527 97.4055C44.7198 98.7065 42.7763 99.4375 40.75 99.4375H25.4688C24.7933 99.4375 24.1455 99.6812 23.6678 100.115C23.1902 100.548 22.9219 101.137 22.9219 101.75C22.9219 102.363 23.1902 102.952 23.6678 103.385C24.1455 103.819 24.7933 104.062 25.4688 104.062H40.75C42.7763 104.062 44.7198 104.793 46.1527 106.094C47.5856 107.396 48.3906 109.16 48.3906 111V115.625Z" fill="white"/>
<path d="M65.4725 38.6349L61.125 42.5824V47.6051L62.1794 48.5625H66.2188C66.638 48.5625 67.0506 48.6564 67.4204 48.8358C67.7899 49.0153 68.1052 49.275 68.3378 49.5916L72.6751 55.5H75.3518L78.9531 52.2301V14.5688L75.0437 9.25H72.3669L68.7656 12.5199V15.2301L73.1131 19.1776C73.5909 19.6111 73.8591 20.1992 73.8594 20.8125V27.75H68.7656V21.7699L65.4369 18.7474L58.5781 20.3061V25.4375H61.125V30.0625H56.6323L53.4844 31.4916V37.6452L57.8905 38.9795L61.125 36.0426V34.6875H66.2188V37C66.2185 37.6133 65.9503 38.2013 65.4725 38.6349ZM68.7656 37H73.8594V42.9801L75.66 44.6151L72.0587 47.8849L69.5119 45.5724C69.0341 45.1388 68.7659 44.5508 68.7656 43.9375V37Z" fill="white"/>
<path d="M134.984 20.8125V69.375H28.0156V20.8125C28.0156 20.1992 28.2841 19.611 28.7616 19.1773C29.2391 18.7436 29.8871 18.5 30.5625 18.5H53.4844V26.3163L49.7914 28.0044C49.3671 28.1915 49.01 28.4844 48.762 28.8489C48.5139 29.2133 48.3853 29.6342 48.3906 30.0625V39.3125C48.3944 39.796 48.563 40.2669 48.873 40.6602C49.1832 41.0534 49.6195 41.35 50.1225 41.5094L56.0312 43.29V48.5625C56.0363 49.1755 56.3007 49.7634 56.7698 50.2044L59.3167 52.5169C59.8024 52.9428 60.4498 53.1829 61.125 53.1875H64.8434L69.1986 59.0844C69.4293 59.4026 69.7431 59.6639 70.1116 59.8454C70.4804 60.027 70.893 60.1229 71.3125 60.125H76.4062C77.0814 60.1204 77.7288 59.8803 78.2145 59.4544L81.5 56.4481L84.7855 59.4544C85.2712 59.8803 85.9186 60.1204 86.5938 60.125H91.6875C92.107 60.1229 92.5196 60.027 92.8884 59.8454C93.2569 59.6639 93.5707 59.4026 93.8014 59.0844L98.1566 53.1875H101.875C102.55 53.1829 103.198 52.9428 103.683 52.5169L106.23 50.2044C106.699 49.7634 106.964 49.1755 106.969 48.5625V43.29L112.878 41.5094C113.381 41.35 113.817 41.0534 114.127 40.6602C114.437 40.2669 114.606 39.796 114.609 39.3125V30.0625C114.615 29.6342 114.486 29.2133 114.238 28.8489C113.99 28.4844 113.633 28.1915 113.209 28.0044L109.516 26.3163V18.5H132.438C133.113 18.5 133.761 18.7436 134.238 19.1773C134.716 19.611 134.984 20.1992 134.984 20.8125Z" fill="white"/>
<path d="M105.11 38.9795L109.516 37.6452V31.4916L106.368 30.0625H101.875V25.4375H104.422V20.3061L97.5631 18.7474L94.2344 21.7699V27.75H89.1406V20.8125C89.1409 20.1992 89.4091 19.6111 89.8869 19.1776L94.2344 15.2301V12.5199L90.6331 9.25H87.9563L84.0469 14.5688V52.2301L87.6482 55.5H90.3249L94.6546 49.5916C94.8879 49.2741 95.2042 49.0137 95.5753 48.8342C95.9464 48.6545 96.3608 48.5613 96.7812 48.5625H100.821L101.875 47.6051V42.5824L97.5275 38.6349C97.0497 38.2013 96.7815 37.6133 96.7812 37V34.6875H101.875V36.0426L105.11 38.9795ZM94.2344 43.9375C94.2341 44.5508 93.9659 45.1388 93.4881 45.5724L90.9413 47.8849L87.34 44.6151L89.1406 42.9801V37H94.2344V43.9375Z" fill="white"/>
<path d="M28.0156 80.9375C28.0156 81.5508 28.2841 82.1391 28.7616 82.5727C29.2391 83.0063 29.8871 83.25 30.5625 83.25H132.438C133.113 83.25 133.761 83.0063 134.238 82.5727C134.716 82.1391 134.984 81.5508 134.984 80.9375V74H28.0156V80.9375ZM119.703 76.3125H124.797V80.9375H119.703V76.3125Z" fill="white"/>
<path d="M91.6875 87.875H71.3125V97.125H91.6875V87.875Z" fill="white"/>
<path d="M104.422 101.75H58.5781V106.375H104.422V101.75Z" fill="white"/>
</svg>
