<svg width="150" height="136" viewBox="0 0 150 136" fill="none" xmlns="http://www.w3.org/2000/svg">
<g clip-path="url(#clip0_123_3122)">
<path fill-rule="evenodd" clip-rule="evenodd" d="M61.2915 46.9777C65.4348 46.9874 69.4823 48.2241 72.9226 50.5316C76.363 52.8391 79.0418 56.1138 80.6207 59.9421C82.1996 63.7705 82.6077 67.9806 81.7934 72.0406C80.9792 76.1006 78.9792 79.8283 76.046 82.7529C73.1128 85.6774 69.3782 87.6676 65.3138 88.4718C61.2493 89.2761 57.0376 88.8585 53.2106 87.2717C49.3836 85.6848 46.1131 83 43.8122 79.5565C41.5113 76.1129 40.2832 72.065 40.2832 67.9243C40.2832 65.1694 40.827 62.4416 41.8833 59.8971C42.9397 57.3526 44.4879 55.0413 46.4394 53.0956C48.3908 51.1499 50.7071 49.608 53.2557 48.5582C55.8042 47.5084 58.535 46.9713 61.2915 46.9777ZM111.462 114.6V103.962H82.3486C84.8774 101.677 87.1827 99.1562 89.2334 96.4345H115.21C116.204 96.4377 117.157 96.8329 117.861 97.5343C118.565 98.2356 118.963 99.1863 118.97 100.18V114.6C121.398 115.482 123.437 117.19 124.729 119.426C126.021 121.661 126.484 124.28 126.036 126.823C125.588 129.365 124.257 131.669 122.279 133.329C120.3 134.988 117.799 135.898 115.216 135.898C112.633 135.898 110.132 134.988 108.153 133.329C106.175 131.669 104.844 129.365 104.396 126.823C103.948 124.28 104.411 121.661 105.703 119.426C106.995 117.19 109.035 115.482 111.462 114.6ZM108.838 37.3889H92.1753C90.5576 34.7319 88.7158 32.2178 86.6699 29.874H105.09V21.3344C102.654 20.476 100.598 18.7871 99.2844 16.5644C97.9704 14.3416 97.4822 11.7273 97.9054 9.18049C98.3287 6.63372 99.6364 4.31747 101.599 2.63862C103.561 0.959769 106.053 0.0257086 108.636 0.000522925C111.219 -0.0246628 113.729 0.860637 115.723 2.5009C117.718 4.14117 119.071 6.43148 119.544 8.96951C120.017 11.5075 119.58 14.1309 118.309 16.3789C117.039 18.6268 115.017 20.3555 112.598 21.2612V33.6437C112.598 34.1366 112.5 34.6246 112.311 35.0798C112.122 35.535 111.845 35.9484 111.496 36.2963C111.146 36.6442 110.732 36.9199 110.276 37.1074C109.82 37.2949 109.331 37.3905 108.838 37.3889ZM150 18.2235C149.995 16.2481 149.457 14.3106 148.442 12.6153C147.427 10.9201 145.973 9.52983 144.234 8.59117C142.495 7.6525 140.534 7.20019 138.559 7.2819C136.584 7.36362 134.668 7.97634 133.012 9.05547C131.357 10.1346 130.023 11.6402 129.152 13.4135C128.281 15.1867 127.904 17.1621 128.063 19.1312C128.221 21.1003 128.908 22.9903 130.051 24.6019C131.194 26.2134 132.751 27.4869 134.558 28.2881V50.2472H97.8027C98.5007 52.7114 99.0188 55.223 99.353 57.7621H138.306C139.3 57.7557 140.251 57.3574 140.953 56.6537C141.655 55.9501 142.05 54.9981 142.053 54.0047V28.8005C144.348 28.1402 146.365 26.7506 147.799 24.8421C149.233 22.9336 150.006 20.6101 150 18.2235ZM149.817 79.1356C149.844 76.5341 148.947 74.0075 147.284 72.0059C145.62 70.0044 143.3 68.658 140.737 68.2068C138.173 67.7556 135.532 68.2289 133.285 69.5423C131.038 70.8557 129.33 72.9238 128.467 75.3782H98.7305C98.2138 77.9293 97.5038 80.4374 96.6065 82.8809H128.467C129.33 85.3341 131.036 87.4016 133.282 88.715C135.528 90.0284 138.168 90.5025 140.73 90.0529C143.293 89.6033 145.613 88.2592 147.277 86.2599C148.941 84.2607 149.841 81.736 149.817 79.1356ZM60.4981 128.385H56.1524C54.1741 128.382 52.2776 127.596 50.8776 126.199C49.4776 124.802 48.6881 122.908 48.6817 120.931V113.294C44.416 112.338 40.3066 110.785 36.4746 108.683L31.3721 113.782C29.9697 115.178 28.0714 115.961 26.0925 115.961C24.1137 115.961 22.2154 115.178 20.813 113.782L14.6484 107.573C13.2552 106.17 12.4734 104.273 12.4734 102.296C12.4734 100.32 13.2552 98.4231 14.6484 97.0201L19.2993 92.3721C16.8646 88.4654 15.0256 84.2181 13.8428 79.77H7.47071C5.49246 79.7668 3.59597 78.9808 2.19599 77.584C0.796011 76.1871 0.0064617 74.2931 9.97392e-06 72.3161V63.5325C-0.00159438 62.5504 0.190369 61.5776 0.564938 60.6697C0.939508 59.7618 1.48935 58.9365 2.18307 58.2409C2.87679 57.5454 3.7008 56.9932 4.60806 56.6159C5.51531 56.2386 6.48804 56.0436 7.47071 56.042H13.7207C14.8795 51.5494 16.7065 47.2562 19.1406 43.3057L14.6484 38.8163C13.2589 37.4137 12.4795 35.5198 12.4795 33.5461C12.4795 31.5724 13.2589 29.6785 14.6484 28.2759L20.8618 22.0664C22.2642 20.671 24.1625 19.8877 26.1414 19.8877C28.1202 19.8877 30.0185 20.671 31.4209 22.0664L36.3037 26.9462C40.1786 24.7897 44.3429 23.1998 48.6694 22.225V14.9053C48.6791 12.9282 49.4718 11.0355 50.874 9.64096C52.2763 8.24641 54.1741 7.46355 56.1524 7.46357H64.9292C66.8394 7.4767 68.6722 8.21941 70.0521 9.53949C71.432 10.8596 72.2545 12.6571 72.3511 14.5637V39.5482C69.0532 38.3486 65.5701 37.7375 62.0606 37.7427C61.5357 37.7427 61.0108 37.7427 60.4981 37.7427C59.9854 37.7427 59.4605 37.7427 58.9478 37.7427C54.9525 37.6622 50.9813 38.3791 47.2668 39.8515C43.5522 41.3238 40.1688 43.522 37.3149 46.3173C34.4609 49.1126 32.1936 52.4488 30.6458 56.1307C29.098 59.8125 28.3007 63.766 28.3007 67.7596C28.3007 71.7532 29.098 75.7067 30.6458 79.3885C32.1936 83.0704 34.4609 86.4066 37.3149 89.2019C40.1688 91.9972 43.5522 94.1954 47.2668 95.6677C50.9813 97.14 54.9525 97.8569 58.9478 97.7765C59.4605 97.7765 59.9854 97.7765 60.4981 97.7765C61.0108 97.7765 61.5357 97.7765 62.0606 97.7765C65.5701 97.7817 69.0532 97.1705 72.3511 95.9709V121.285C72.2542 123.198 71.4265 125.001 70.0388 126.322C68.6511 127.643 66.8091 128.381 64.8926 128.385H60.4981Z" fill="#F5F5F5"/>
</g>
<defs>
<clipPath id="clip0_123_3122">
<rect width="150" height="136" fill="white"/>
</clipPath>
</defs>
</svg>
