<svg width="95" height="91" viewBox="0 0 95 91" fill="none" xmlns="http://www.w3.org/2000/svg">
<path d="M17.2559 5.24316V10.4863H18.6475H20.0391V6.57617V2.66602H48.9844H77.9297V1.33301V0H47.5928H17.2559V5.24316Z" fill="#00FFF0"/>
<path d="M80.7129 1.333V2.66601H83.4033H86.0938V31.7256V60.7852H87.4854H88.877V30.3926V-3.8147e-06H84.7949H80.7129V1.333Z" fill="#00FFF0"/>
<path d="M28.9453 14.2187V20.9726H30.3369H31.7285V18.591V16.2094L33.918 16.156C35.9775 16.085 36.1816 16.0494 37.0352 15.5518C38.3154 14.7875 39.0205 13.6322 39.1133 12.157C39.2246 10.6107 38.8164 9.65097 37.666 8.65566C36.46 7.60702 35.7363 7.46484 32.0254 7.46484H28.9453V14.2187ZM35.9219 10.7174C36.5898 11.4639 36.5342 12.4592 35.792 13.0457C35.2725 13.4723 35.0869 13.5078 33.4727 13.5078H31.7285V11.8016V10.0953L33.6025 10.1664C35.3838 10.2197 35.4951 10.2375 35.9219 10.7174Z" fill="#00FFF0"/>
<path d="M41.9336 14.1299V20.7949H46.3867H50.8398V19.4619V18.1289H47.7783H44.7168V12.7969V7.46484H43.3252H41.9336V14.1299Z" fill="#00FFF0"/>
<path d="M57.501 7.6959C55.8682 8.28242 54.7363 9.3666 54.2168 10.824C54.0684 11.215 53.9941 13.0457 53.9941 16.2094V20.9904L55.3486 20.9371L56.6846 20.8838L56.7402 19.5863L56.7959 18.3066H59.0967H61.416V19.6397V20.9904L62.7705 20.9371L64.1064 20.8838V16.085C64.1064 11.5883 64.0879 11.2328 63.7168 10.4863C63.1602 9.33106 62.418 8.58457 61.3418 8.05137C60.21 7.50039 58.4844 7.34043 57.501 7.6959ZM60.0244 10.4152C61.1006 10.8951 61.3047 11.3928 61.3789 13.6322L61.4531 15.6406H59.1152H56.7773V13.6145C56.7773 11.6772 56.7959 11.5527 57.2783 11.0195C58.0762 10.1131 58.9297 9.91758 60.0244 10.4152Z" fill="#00FFF0"/>
<path d="M66.9824 14.2187V20.9726H68.374H69.7656L69.8027 17.1691L69.8584 13.3478L72.2891 17.0269L74.7197 20.706L75.9443 20.7594L77.1875 20.8127V14.1299V7.46484H75.7959H74.4043L74.3672 11.2861L74.3115 15.1074L71.8066 11.2861L69.3018 7.48261L68.1514 7.46484H66.9824V14.2187Z" fill="#00FFF0"/>
<path d="M17.2559 45.4111V77.6699H11.6895H6.12305V80.567C6.12305 83.7129 6.32715 84.8148 7.16211 86.4145C7.83008 87.6764 9.44434 89.2404 10.7432 89.9158C12.7656 90.9467 13.3037 91 20.9111 91H27.832V89.667V88.3518L20.6514 88.2984L13.4521 88.2451L12.4131 87.7475C11.8379 87.4809 11.0029 86.8943 10.5762 86.45C9.40723 85.2236 9.03613 84.2994 8.94336 82.1488L8.85059 80.3359H28.4629H48.0566V79.0029V77.6699H34.0479H20.0391V45.4111V13.1523H18.6475H17.2559V45.4111Z" fill="#00FFF0"/>
<path d="M52.6025 26.3047L51.6934 27.1934L52.8809 28.3486L54.0684 29.5039H48.6504H43.2324V27.7266V25.9492H33.4912H23.75V30.8369V35.7246H33.4912H43.2139L43.2695 33.9828L43.3252 32.2588L48.6689 32.2055C51.6006 32.1877 53.9941 32.2232 53.9941 32.2943C53.9941 32.3654 53.4932 32.9164 52.8809 33.5029L51.7676 34.5871L52.751 35.5113L53.7158 36.4355L56.5918 33.6807L59.4678 30.9258L56.5918 28.1709C55.0147 26.6602 53.6787 25.416 53.6231 25.416C53.5674 25.416 53.1035 25.8248 52.6025 26.3047ZM40.4492 30.8369V33.0586H33.4912H26.5332V30.9613C26.5332 29.8061 26.5889 28.793 26.6631 28.7396C26.7188 28.6686 29.8545 28.6152 33.6211 28.6152H40.4492V30.8369Z" fill="#00FFF0"/>
<path d="M62.9004 30.8369V35.7246L67.0381 35.7602L71.1572 35.8135L71.2129 39.7592L71.25 43.7227H67.0938H62.9189L62.8633 45.5355L62.8076 47.3662L57.4824 47.4195C54.5322 47.4373 52.1387 47.4018 52.1387 47.3307C52.1387 47.2596 52.6582 46.6908 53.2891 46.0865L54.458 44.9668L53.4746 44.0248L52.5098 43.1006L49.5967 45.9088L46.665 48.6992L49.5967 51.4896L52.5098 54.2979L53.4746 53.3736L54.458 52.4316L53.252 51.2764L52.0645 50.1211H57.4824H62.9004V51.8984V53.6758H72.6416H82.3828L82.3457 48.7348L82.29 43.8115L78.1709 43.7582L74.0332 43.7227V39.7236V35.7246H78.208H82.3828V30.8369V25.9492H72.6416H62.9004V30.8369ZM79.5996 30.8369V33.0586H72.6416H65.6836V30.8369V28.6152H72.6416H79.5996V30.8369ZM79.5625 48.7348L79.5068 50.9209L72.6045 50.9742L65.6836 51.0098V48.7881V46.5664H72.6416H79.6182L79.5625 48.7348Z" fill="#00FFF0"/>
<path d="M23.8428 43.9537C23.7871 44.0781 23.7686 46.282 23.7871 48.877L23.8428 53.5869L27.9805 53.6402L32.0996 53.6758V57.6748V61.6738H27.9248H23.75V66.5615V71.4492H33.4912H43.2324V69.6719V67.8945H48.6504H54.0684L52.8809 69.0498L51.6748 70.2051L52.6582 71.1471L53.6231 72.0713L56.5361 69.2631L59.4678 66.4727L56.5918 63.7178L53.7158 60.9629L52.751 61.8871L51.7676 62.8113L52.8809 63.8955C53.4932 64.482 53.9941 65.033 53.9941 65.1041C53.9941 65.1752 51.6006 65.2107 48.6689 65.193L43.3252 65.1396L43.2695 63.4156L43.2139 61.6738L39.0947 61.6383L34.9756 61.585L34.9199 57.6215L34.8828 53.6758H39.0576H43.2324V48.6992V43.7227H33.584C25.958 43.7227 23.8984 43.776 23.8428 43.9537ZM40.4492 48.7881V51.0098L33.5469 50.9742L26.626 50.9209L26.5703 48.7348L26.5146 46.5664H33.4912H40.4492V48.7881ZM40.4492 66.5615V68.7832H33.4912H26.5332V66.5615V64.3398H33.4912H40.4492V66.5615Z" fill="#00FFF0"/>
<path d="M62.9004 66.5615V71.4492H72.6416H82.3828V66.5615V61.6738H72.6416H62.9004V66.5615ZM79.5996 66.5615V68.7832H72.6416H65.6836V66.5615V64.3398H72.6416H79.5996V66.5615Z" fill="#00FFF0"/>
<path d="M86.0566 73.7064C86.001 83.8018 86.001 83.9973 85.5928 84.8148C85.0361 85.9879 83.8115 87.1787 82.5869 87.7475C81.1211 88.4406 79.043 88.4584 77.5586 87.783C76.2969 87.2143 75.2949 86.29 74.627 85.0814C74.1445 84.1928 74.126 84.0506 74.0703 80.9047L73.9961 77.6699H62.418H50.8398V79.0029V80.3359H61.0449H71.25V82.0955C71.25 84.2283 71.6768 85.7213 72.7158 87.2143L73.458 88.2451L52.0273 88.2984L30.6152 88.334V89.667V91H55.8125C77.9668 91 81.1396 90.9645 82.1045 90.7334C83.7373 90.3246 84.7393 89.7914 86.0381 88.6184C87.3555 87.4453 88.376 85.7035 88.6914 84.0861C88.8027 83.5174 88.877 79.0918 88.877 73.2977V63.4512H87.4854H86.1123L86.0566 73.7064Z" fill="#00FFF0"/>
<path d="M14.2871 84.335V85.668H15.6787H17.0703V84.335V83.002H15.6787H14.2871V84.335Z" fill="#00FFF0"/>
<path d="M19.8535 84.335V85.668H21.2451H22.6367V84.335V83.002H21.2451H19.8535V84.335Z" fill="#00FFF0"/>
</svg>
