<svg width="96" height="95" viewBox="0 0 96 95" fill="none" xmlns="http://www.w3.org/2000/svg">
<path d="M44.2875 2.50488C44.0813 2.76465 43.8375 3.54395 43.7063 4.3418C43.4813 5.64062 43.425 5.75195 42.975 5.86328C40.8375 6.30859 38.3813 7.29199 36.075 8.62793L35.4938 8.98047L34.3313 8.07129C32.5688 6.69824 32.475 6.7168 29.7 9.5C27.9188 11.2627 27.375 11.9307 27.375 12.3018C27.375 12.5986 27.75 13.248 28.3125 14.0088L29.2688 15.2148L28.5188 16.4766C27.6562 17.9424 26.8313 19.9648 26.3438 21.7646C25.9688 23.1377 26.1 23.0635 24 23.3789C23.0625 23.5088 22.6875 23.6572 22.3688 24.0283C21.9563 24.4922 21.9375 24.6592 21.9375 27.5537C21.9375 30.4482 21.9563 30.6152 22.3688 31.0791C22.725 31.5059 23.0438 31.6172 24.3563 31.7842C26.1188 32.0068 25.9125 31.7842 26.7 34.2891C27.1875 35.8477 28.125 37.9258 28.8938 39.1875L29.3063 39.874L28.5563 40.8574C27.6188 42.1006 27.375 42.5459 27.375 43.0654C27.375 43.5293 31.4813 47.7969 32.2125 48.0752C32.775 48.2979 33.2812 48.0752 34.575 47.0361C35.5125 46.2568 35.7 46.1826 36.0563 46.3682C39.525 48.168 39.4688 48.1123 39.5813 48.9473C39.675 49.6709 39.6375 49.7451 39.075 50.0791C37.6125 50.9326 36.9188 53.5117 37.575 55.7012C38.0438 57.2969 39.7313 58.6328 41.3063 58.6328C41.55 58.6328 41.625 58.7812 41.625 59.2822C41.625 61.1562 43.2375 63.4014 45.3375 64.4219C46.4063 64.9414 46.7625 65.0342 48 65.0342C49.2375 65.0342 49.5938 64.9414 50.6625 64.4219C52.7625 63.4014 54.375 61.1562 54.375 59.2822C54.375 58.7812 54.45 58.6328 54.7125 58.6328C56.2688 58.6328 57.9563 57.2969 58.425 55.7012C59.0438 53.6045 58.5188 51.3594 57.0938 50.1162C56.5125 49.6152 56.4188 49.4297 56.475 48.8359C56.5312 48.168 56.5875 48.1123 58.3125 47.2031L60.0938 46.2754L61.4625 47.2773C63.4688 48.7803 63.4875 48.7617 66.2063 46.0898C67.4438 44.8838 68.4938 43.6963 68.5688 43.4551C68.7 42.8984 68.4563 42.3789 67.4625 41.0801L66.6938 40.0596L67.1063 39.373C67.875 38.1113 68.8125 36.0332 69.3 34.4746C70.0875 31.9697 69.8813 32.1924 71.6438 31.9697C72.9563 31.8027 73.275 31.6914 73.6313 31.2646C74.0438 30.8008 74.0625 30.6338 74.0625 27.7393C74.0625 24.8447 74.0438 24.6777 73.6313 24.2139C73.275 23.7871 72.9563 23.6758 71.6438 23.5088C69.8813 23.2861 70.0875 23.5088 69.3 21.0039C68.8125 19.4453 67.875 17.3672 67.1063 16.1055L66.6938 15.4189L67.4438 14.4355C68.3813 13.1924 68.625 12.7471 68.625 12.2275C68.625 11.7637 64.5188 7.49609 63.8063 7.21777C63.225 6.99512 62.7188 7.21777 61.5 8.20117L60.5063 9.01758L58.1438 7.84863C56.85 7.19922 55.0688 6.47559 54.1875 6.23438L52.5938 5.78906L52.2938 4.28613C51.825 1.98535 51.9375 2.04102 47.9813 2.04102C44.6625 2.04102 44.6438 2.04102 44.2875 2.50488ZM49.5938 5.69629C49.9125 7.99707 50.1938 8.34961 51.9375 8.62793C53.8688 8.94336 56.775 10.1494 58.8938 11.5039C59.5312 11.9121 60.2438 12.2461 60.4875 12.2461C60.7125 12.2461 61.425 11.8564 62.0625 11.374L63.225 10.5205L64.2375 11.5225L65.25 12.543L64.3875 13.7119C63.8438 14.417 63.5063 15.0664 63.5063 15.3633C63.5063 15.6416 63.8063 16.3281 64.1625 16.8848C65.625 19.1299 66.8625 22.1172 67.2188 24.251C67.425 25.5127 67.7625 25.7725 69.4688 26.0322L70.9688 26.2734V27.7393V29.2051L69.4688 29.4463C67.7625 29.7061 67.425 29.9658 67.2188 31.2275C66.8625 33.3613 65.625 36.3486 64.1625 38.5938C63.8063 39.1504 63.5063 39.8369 63.5063 40.1152C63.5063 40.4121 63.8438 41.0615 64.3688 41.7666L65.25 42.9355L64.275 43.9189C63.7313 44.457 63.2438 44.9023 63.1875 44.9023C63.1313 44.9023 62.5125 44.4941 61.8 43.9746C61.0875 43.4736 60.3375 43.0469 60.1125 43.0469C59.8875 43.0469 59.175 43.3809 58.5188 43.8076C57.8813 44.2158 57.3 44.5312 57.2625 44.4756C57.1313 44.3457 57.5438 42.4717 57.9 41.6924C58.0875 41.2656 58.875 40.208 59.625 39.3359C61.9313 36.7012 63 34.7715 63.7688 31.8955C64.35 29.7617 64.35 25.9951 63.7875 23.917C62.2313 18.2393 57.9375 13.8975 52.2188 12.2275C50.2875 11.6709 47.1938 11.5596 45.1875 11.9492C37.2938 13.5449 31.8375 20.0576 31.8375 27.9062C31.8375 32.0625 33.1313 35.3096 36.225 38.9648C36.9563 39.8369 37.7625 40.9688 37.9875 41.4883C38.4375 42.4346 38.8875 44.3271 38.7188 44.4941C38.6625 44.5498 38.0625 44.1973 37.35 43.7334C36.6563 43.251 35.9063 42.8613 35.6813 42.8613C35.4563 42.8613 34.7063 43.2881 34.0125 43.8076L32.775 44.7539L31.7625 43.752L30.75 42.75L31.6125 41.5811C32.1562 40.876 32.4938 40.2266 32.4938 39.9297C32.4938 39.6514 32.1938 38.9648 31.8375 38.4082C30.375 36.1631 29.1375 33.1758 28.7813 31.042C28.5938 29.873 28.2188 29.5391 26.9062 29.3164C24.7313 28.9453 24.9188 29.1309 24.975 27.5166L25.0313 26.0879L26.5125 25.8652C27.3188 25.7354 28.1063 25.5127 28.2563 25.3828C28.3875 25.2344 28.7625 24.1211 29.0625 22.915C29.6625 20.54 30.525 18.5547 31.725 16.8105C32.7375 15.3447 32.7188 14.9365 31.6313 13.582L30.7688 12.4873L31.7812 11.5039L32.775 10.5205L33.9375 11.3926C34.575 11.8564 35.2688 12.2461 35.4938 12.2461C35.7 12.2461 36.525 11.8379 37.2938 11.3184C39.6562 9.79688 42.8813 8.53516 44.4188 8.53516C44.6438 8.53516 45.075 8.40527 45.375 8.25684C45.9563 7.95996 46.1625 7.42188 46.4063 5.69629L46.5375 4.82422H48H49.4625L49.5938 5.69629ZM50.25 14.7324C54.975 15.5674 58.8938 18.9072 60.675 23.5645C61.1813 24.8633 61.2 25.123 61.2188 27.832C61.2188 30.5039 61.1813 30.8008 60.6938 32.1924C60.0375 34.0107 58.9125 35.8291 57.2812 37.666C55.3688 39.8184 54.8625 41.0244 54.1875 44.9951C53.8688 46.832 53.5688 48.5205 53.5313 48.7432C53.4375 49.1514 53.3438 49.1699 51.4688 49.1699H49.5V42.416V35.6621L50.5125 35.1797C52.3313 34.3076 53.4375 32.6377 53.5875 30.5967C53.7375 28.3887 52.6688 26.459 50.6813 25.29C49.5375 24.6406 47.55 24.4922 46.1063 24.9561C44.7188 25.4199 43.125 26.9971 42.6562 28.3701C41.775 31.0234 42.9938 33.9736 45.4875 35.1797L46.5 35.6621V42.416V49.1699H44.5312C42.6562 49.1699 42.5625 49.1514 42.4688 48.7432C42.4313 48.5205 42.1313 46.8691 41.8125 45.0508C41.025 40.4678 40.7063 39.7627 38.0063 36.627C34.2188 32.2295 33.6562 26.0137 36.5625 21.1338C39.4125 16.3467 44.9062 13.7861 50.25 14.7324ZM49.65 27.999C49.9688 28.2217 50.3625 28.7598 50.5313 29.2236C50.9813 30.374 50.775 31.2461 49.875 32.1367C49.2188 32.8047 49.1063 32.8418 48.0375 32.8418C47.025 32.8418 46.8188 32.7676 46.2375 32.2852C44.1938 30.5039 45.5063 27.2939 48.2063 27.5166C48.6938 27.5537 49.3313 27.7578 49.65 27.999ZM55.3875 52.4355C55.8 52.8252 55.8 55.1445 55.4062 55.4785C55.0312 55.7939 40.9688 55.7939 40.5938 55.4785C40.3875 55.3115 40.3125 54.8662 40.3125 53.9756C40.3125 52.0273 39.8625 52.1387 48.1313 52.1387C54.2063 52.1387 55.1438 52.1758 55.3875 52.4355ZM51.5625 58.9482C51.5438 59.5049 50.8875 60.748 50.325 61.2676C48.5625 62.8818 45.8438 62.2881 44.7938 60.0244C44.1188 58.5771 43.9875 58.6328 48 58.6328C51.2625 58.6328 51.5625 58.6514 51.5625 58.9482Z" fill="#00FFF0"/>
<path d="M6.50613 29.6875C5.32488 29.9844 4.40613 30.5596 3.48738 31.5615C2.00613 33.1944 2.04363 32.8233 2.09988 46.127L2.15613 57.7979L2.71863 59.0039C3.13113 59.8945 4.93113 62.2139 9.59988 67.8916C16.3311 76.0928 16.3124 76.0742 16.3124 78.1152C16.3124 78.8574 16.2374 79.0801 15.9936 79.1543C15.0186 79.4326 14.0061 80.1006 13.6311 80.6943C13.2374 81.3252 13.2186 81.5664 13.1624 85.8525C13.0874 90.9736 13.1999 91.5117 14.5499 92.5137L15.2436 93.0518L25.3874 93.0889L35.5311 93.1445L36.2811 92.7178C36.7686 92.458 37.1811 92.0127 37.4624 91.4746C37.8749 90.6582 37.8936 90.5283 37.8374 85.8711L37.7811 81.1211L37.1999 80.3975C36.8624 79.9893 36.3186 79.5811 35.8499 79.4326L35.0999 79.1543L35.0249 72.9385C34.9499 66.834 34.9499 66.667 34.4624 65.2754C33.4499 62.2695 33.1311 61.8799 25.9124 54.6992C18.5999 47.4258 18.3936 47.2774 16.3124 47.2774C15.7311 47.2774 14.9436 47.4072 14.5499 47.5742C14.1561 47.7412 13.7999 47.8711 13.7624 47.8711C13.7249 47.8711 13.6874 44.8281 13.6874 41.1172C13.6874 35.2725 13.6499 34.2334 13.3686 33.3985C12.9561 32.1182 11.5686 30.6152 10.3311 30.0772C9.24363 29.6133 7.51863 29.4463 6.50613 29.6875ZM9.37488 32.8047C9.78738 33.0274 10.1999 33.4541 10.4624 33.9551C10.8749 34.7715 10.8749 34.8272 10.8749 43.4551C10.8749 52.4356 10.9499 53.3818 11.6811 54.8291C12.1499 55.7754 19.9499 63.6055 20.7561 63.9395C21.8061 64.3848 22.6874 63.7725 22.6874 62.585C22.6874 62.1582 21.9374 61.3233 18.3936 57.7979C14.7749 54.1983 14.0624 53.419 13.9686 52.8438C13.6311 51.0254 15.7311 49.4854 17.3999 50.3574C18.2061 50.7842 29.8686 62.5108 30.5436 63.5869C31.9686 65.8506 32.2311 67.4834 32.2499 74.1631V79.043H25.7061H19.1624L19.0874 77.3174C19.0311 75.9072 18.9186 75.4063 18.5061 74.5713C18.2249 74.0147 15.2249 70.1924 11.8124 66.0733C8.41863 61.9541 5.49363 58.2246 5.30613 57.8164C4.98738 57.1113 4.96863 56.1465 4.91238 46.0156C4.85613 33.6211 4.83738 33.8252 6.14988 32.9346C6.99363 32.3594 8.41863 32.3037 9.37488 32.8047ZM34.9686 86.1865V90.2686H25.5936H16.2186L16.1624 86.1309L16.1249 82.0117L25.5374 82.0488L34.9686 82.1045V86.1865Z" fill="#00FFF0"/>
<path d="M17.9249 84.999C17.3999 85.4072 17.2686 86.1865 17.6249 86.8359C18.1686 87.8379 21.7686 87.8379 22.3124 86.8359C22.6686 86.1865 22.5374 85.4072 22.0124 84.999C21.5999 84.6836 21.2436 84.6094 19.9686 84.6094C18.6936 84.6094 18.3374 84.6836 17.9249 84.999Z" fill="#00FFF0"/>
<path d="M86.7561 29.6875C85.5748 29.9844 84.6561 30.5596 83.7748 31.5244C82.3498 33.083 82.3123 33.3613 82.3123 41.1172C82.3123 44.8281 82.2748 47.8711 82.2373 47.8711C82.1998 47.8711 81.8436 47.7412 81.4498 47.5742C81.0561 47.4072 80.2498 47.2774 79.6686 47.2774C77.7186 47.2774 77.2311 47.6299 72.3186 52.4727C63.9936 60.6553 62.7936 62.1026 61.7248 65.2754C61.2373 66.667 61.2373 66.834 61.1623 72.9199L61.0873 79.1358L60.2248 79.4141C59.6623 79.5996 59.1748 79.9336 58.7998 80.3975L58.2186 81.1211L58.1623 85.8711C58.1061 90.5283 58.1248 90.6582 58.5373 91.4746C58.8186 92.0127 59.2311 92.458 59.7186 92.7178L60.4686 93.1445L70.6123 93.0889L80.7561 93.0518L81.4498 92.5137C82.7998 91.5117 82.9123 90.9736 82.8373 85.834L82.7811 81.3252L82.2936 80.6016C81.8436 79.9336 81.2061 79.5254 80.0248 79.1543C79.7623 79.0801 79.6873 78.8389 79.6873 78.1152C79.6873 76.0742 79.6686 76.0928 86.3998 67.8916C91.0686 62.2139 92.8686 59.8945 93.2811 59.0039L93.8436 57.7979L93.8998 46.127C93.9561 32.7305 93.9936 33.1758 92.4373 31.4873C91.8561 30.8565 91.1623 30.3369 90.5811 30.0772C89.4936 29.6133 87.7686 29.4463 86.7561 29.6875ZM89.8498 32.9346C91.1623 33.8252 91.1436 33.6211 91.0873 46.0156C91.0311 56.1465 91.0123 57.1113 90.6936 57.8164C90.5061 58.2246 87.5811 61.9541 84.1873 66.0733C80.7748 70.1924 77.7748 74.0147 77.4936 74.5713C77.0811 75.4063 76.9686 75.9072 76.9123 77.3174L76.8373 79.043H70.4811H64.1248V73.2168C64.1248 67.502 64.1436 67.335 64.5936 65.9063C64.8561 65.0713 65.3811 63.9951 65.8311 63.3457C66.6561 62.2139 77.9248 50.7285 78.6373 50.3389C80.1936 49.4483 82.3686 51.0625 82.0311 52.8438C81.9373 53.419 81.2248 54.1983 77.6061 57.7979C74.0623 61.3233 73.3123 62.1582 73.3123 62.585C73.3123 63.7725 74.1936 64.3848 75.2436 63.9395C76.0498 63.6055 83.8498 55.7754 84.3186 54.8291C85.0498 53.3818 85.1248 52.4356 85.1248 43.4551C85.1248 34.8272 85.1248 34.7715 85.5561 33.9551C86.3248 32.4707 88.4061 31.9697 89.8498 32.9346ZM79.8373 86.1309L79.7811 90.2686H70.4061H61.0311L60.9748 86.3721C60.9561 84.2383 60.9748 82.3828 61.0123 82.2529C61.0873 82.0674 63.0561 82.0117 70.4998 82.0117H79.8748L79.8373 86.1309Z" fill="#00FFF0"/>
<path d="M73.9874 84.999C73.4624 85.4072 73.3311 86.1865 73.6874 86.8359C74.0624 87.5225 76.1249 87.8193 77.4186 87.374C78.4874 87.0029 78.7499 85.667 77.8874 84.999C77.4749 84.6836 77.1186 84.6094 75.9374 84.6094C74.7561 84.6094 74.3999 84.6836 73.9874 84.999Z" fill="#00FFF0"/>
</svg>
