<svg width="165" height="152" viewBox="0 0 165 152" fill="none" xmlns="http://www.w3.org/2000/svg">
<g clip-path="url(#clip0_123_3169)">
<path d="M60.4086 97.4785H55.5034V123.54H60.4086V97.4785Z" fill="#FAFAFA" fill-opacity="0.98"/>
<path d="M45.3088 89.1635C45.0404 84.8276 44.9033 80.6464 44.9 76.7362C44.9099 63.1593 46.4904 52.7798 49.7346 45.0007C51.4477 40.8589 53.5234 37.8843 55.5998 35.7446C54.5936 34.9598 53.5814 34.3339 52.6016 33.8696C50.3228 32.7787 48.3182 32.5234 47.0977 32.504C47.0028 32.4989 46.9091 32.4902 46.8129 32.4902H20.7263C20.6254 32.4902 20.5266 32.4989 20.427 32.5046C19.2051 32.5246 17.2046 32.7818 14.9324 33.8696C11.3005 35.5794 7.38509 39.3175 4.64469 45.9444C1.87127 52.5946 0.00918283 62.213 0 76.7343C0.0012829 80.4875 0.127884 84.5685 0.403504 89.0133C0.571631 91.7381 2.95201 93.8397 5.792 93.8397C5.89815 93.8397 6.00496 93.8366 6.11246 93.831C9.09026 93.6638 11.3625 91.2387 11.1884 88.4125C10.924 84.1492 10.8033 80.2685 10.8046 76.7343C10.7802 61.2098 13.1659 52.4907 15.508 47.9421V144.077C15.508 148.454 19.2467 152 23.8558 152C28.4662 152 32.2049 148.454 32.2049 144.077V86.2258H35.3343V144.077C35.3343 148.454 39.073 152 43.6821 152C48.2925 152 52.0312 148.454 52.0312 144.077V96.2879C48.3809 95.6966 45.5323 92.7826 45.3088 89.1635ZM31.2027 37.7347H33.769H36.334L37.6171 42.5412L37.4219 42.8334C36.365 43.6702 35.0699 44.0895 33.7676 44.0907C32.466 44.0895 31.1729 43.6708 30.1166 42.8359L29.9195 42.5412L31.2027 37.7347ZM33.769 79.07L27.3545 71.3797L31.049 45.5395C31.9247 45.8512 32.8464 46.0139 33.7676 46.0133H33.769H33.7729C34.6934 46.0133 35.6132 45.8506 36.4876 45.5389L40.1835 71.3797L33.769 79.07Z" fill="#FAFAFA" fill-opacity="0.98"/>
<path d="M33.7691 28.8385C42.1595 28.8385 48.9613 22.3828 48.9613 14.4193C48.9613 6.45573 42.1595 0 33.7691 0C25.3787 0 18.5769 6.45573 18.5769 14.4193C18.5769 22.3828 25.3787 28.8385 33.7691 28.8385Z" fill="#FAFAFA" fill-opacity="0.98"/>
<path d="M159.26 93.3409C160.983 92.5636 162.219 90.9465 162.34 89.0114C162.611 84.5667 162.736 80.4875 162.738 76.7337C162.709 57.391 159.456 46.6867 155.016 40.25C152.798 37.0544 150.204 35.0055 147.806 33.8696C145.527 32.7787 143.523 32.5234 142.302 32.504C142.207 32.4989 142.114 32.4902 142.017 32.4902H115.931C115.83 32.4902 115.731 32.4989 115.631 32.5046C114.41 32.5246 112.409 32.7818 110.137 33.8696C109.145 34.3364 108.134 34.9604 107.129 35.7471C107.982 36.6245 108.841 37.6446 109.669 38.8387C115.141 46.7724 117.811 59.1646 117.838 76.73C117.834 80.6202 117.699 84.8001 117.434 89.1603C117.296 91.3801 116.156 93.4035 114.36 94.7478V94.9143H117.399H120.1V97.4783V123.54V126.104H117.399H110.712V144.077C110.712 148.454 114.451 152 119.06 152C123.671 152 127.409 148.454 127.409 144.077V86.2258H130.539V144.077C130.539 148.454 134.277 152 138.887 152C143.497 152 147.236 148.454 147.236 144.077V47.9778C147.635 48.7563 148.038 49.6494 148.436 50.6902C150.34 55.6975 151.94 63.9122 151.933 76.7337C151.935 80.2685 151.815 84.1505 151.553 88.4137C151.398 90.9233 153.175 93.1125 155.659 93.6889V97.4783H150.708V123.54H165V97.4783H159.26V93.3409ZM126.407 37.7347H128.973H131.538L132.822 42.5412L132.626 42.8334C131.569 43.6702 130.274 44.0895 128.972 44.0907C127.671 44.0895 126.377 43.6708 125.321 42.8359L125.124 42.5412L126.407 37.7347ZM128.973 79.07L122.559 71.3797L126.253 45.5395C127.129 45.8512 128.051 46.0139 128.972 46.0133H128.973H128.977C129.898 46.0133 130.818 45.8506 131.692 45.5389L135.388 71.3797L128.973 79.07Z" fill="#FAFAFA" fill-opacity="0.98"/>
<path d="M128.973 28.8385C137.364 28.8385 144.166 22.3828 144.166 14.4193C144.166 6.45573 137.364 0 128.973 0C120.583 0 113.781 6.45573 113.781 14.4193C113.781 22.3828 120.583 28.8385 128.973 28.8385Z" fill="#FAFAFA" fill-opacity="0.98"/>
<path d="M117.398 123.54V97.4783H111.658V93.3409C113.38 92.5636 114.617 90.9465 114.737 89.0114C115.008 84.5667 115.134 80.4875 115.136 76.7337C115.107 57.391 111.854 46.6867 107.414 40.25C105.196 37.0544 102.602 35.0055 100.204 33.8696C97.9248 32.7787 95.9203 32.5234 94.6998 32.504C94.6048 32.4989 94.5112 32.4902 94.4149 32.4902H68.3284C68.2275 32.4902 68.1286 32.4989 68.0291 32.5046C66.8072 32.5246 64.8066 32.7818 62.5344 33.8696C58.9025 35.5794 54.9871 39.3175 52.2467 45.9444C49.4733 52.5946 47.6112 62.213 47.6021 76.7343C47.6033 80.4875 47.7299 84.5685 48.0056 89.0133C48.1737 91.7381 50.5541 93.8397 53.3941 93.8397C53.5002 93.8397 53.607 93.8366 53.7145 93.831C56.6923 93.6638 58.9645 91.2387 58.7905 88.4125C58.526 84.1492 58.4054 80.2685 58.4067 76.7343C58.3823 61.2098 60.7679 52.4907 63.11 47.9421V144.077C63.11 148.454 66.8487 152 71.4578 152C76.0682 152 79.8069 148.454 79.8069 144.077V86.2258H82.9364V144.077C82.9364 148.454 86.6751 152 91.2842 152C95.8946 152 99.6332 148.454 99.6332 144.077V47.9778C100.033 48.7563 100.436 49.6494 100.833 50.6902C102.738 55.6975 104.337 63.9122 104.331 76.7337C104.333 80.2685 104.213 84.1505 103.95 88.4137C103.796 90.9233 105.572 93.1125 108.057 93.6889V97.4783H103.106V123.54H117.398ZM78.8047 37.7347H81.371H83.936L85.2192 42.5412L85.024 42.8334C83.967 43.6702 82.672 44.0895 81.3697 44.0907C80.0681 44.0895 78.775 43.6708 77.7187 42.8359L77.5215 42.5412L78.8047 37.7347ZM81.371 79.07L74.9566 71.3797L78.651 45.5395C79.5267 45.8512 80.4485 46.0139 81.3697 46.0133H81.371C81.371 46.0133 81.3737 46.0133 81.375 46.0133C82.2955 46.0133 83.2153 45.8506 84.0896 45.5389L87.7855 71.3797L81.371 79.07Z" fill="#FAFAFA" fill-opacity="0.98"/>
<path d="M81.3711 28.8385C89.7615 28.8385 96.5633 22.3828 96.5633 14.4193C96.5633 6.45573 89.7615 0 81.3711 0C72.9807 0 66.179 6.45573 66.179 14.4193C66.179 22.3828 72.9807 28.8385 81.3711 28.8385Z" fill="#FAFAFA" fill-opacity="0.98"/>
</g>
<defs>
<clipPath id="clip0_123_3169">
<rect width="165" height="152" fill="white"/>
</clipPath>
</defs>
</svg>
