<svg width="152" height="141" viewBox="0 0 152 141" fill="none" xmlns="http://www.w3.org/2000/svg">
<g clip-path="url(#clip0_123_3105)">
<path d="M91.5463 0C70.7904 0 52.4798 9.03051 41.594 22.7864C43.0579 24.2301 44.1865 25.9331 44.8662 27.807C54.4432 14.1928 71.7847 5.07857 91.5463 5.07857C121.636 5.07857 146.117 26.2092 146.117 52.1823C146.117 78.1555 121.636 99.2861 91.5463 99.2861C80.4126 99.2861 70.0489 96.3906 61.4071 91.4298C61.2191 93.2582 60.1761 94.8628 58.6293 95.9546C68.1012 101.273 79.4048 104.365 91.5463 104.365C124.934 104.365 152 81.0019 152 52.1823C152 23.3628 124.934 0 91.5463 0Z" fill="white"/>
<path d="M26.8266 134.425L28.2475 133.057V131.101C27.0708 126.336 25.8941 117.453 28.2475 112.679V91.4154V88.7265H30.6009V91.4154V108.797C33.5427 105.701 36.5997 103.471 39.5299 101.446C40.5092 100.769 41.4677 100.13 42.3527 99.4755C43.3444 98.7416 44.1331 98.1408 45.3098 97.606V90.0753V89.6996C44.7215 89.2013 43.7722 88.7104 43.0375 88.252C38.9879 85.7257 36.4983 84.0847 36.2332 82.2626C36.1372 81.6049 36.3519 80.986 36.8475 80.4726C37.4831 79.8141 38.4907 79.4801 39.8619 79.4801C41.4039 79.4801 43.5447 79.8835 45.3098 80.3663V75.3326V58.529C48.2516 63.251 50.2947 72.7636 49.0851 90.6081C48.9335 92.8481 50.9201 94.7704 53.5154 94.9014C53.6091 94.9061 53.7046 94.9083 53.7977 94.9083C56.2712 94.9083 58.347 93.2419 58.4935 91.0828C59.9477 69.627 56.8395 55.6288 49.254 49.4767C45.9492 46.7963 42.7209 46.2246 41.0662 46.1916C40.9733 46.1868 40.8814 46.0664 40.787 46.0664H18.0561C17.9578 46.0664 17.8617 46.1868 17.765 46.1921C16.3145 46.2223 13.6682 46.6455 10.8192 48.5255C10.4114 48.7945 10.0008 49.1134 9.58786 49.4483C2.00269 55.6002 -1.10631 69.6126 0.347939 91.0686C0.494146 93.228 2.56834 94.902 5.04245 94.9015C5.13494 94.9015 5.22831 94.903 5.32168 94.8981C7.91669 94.7671 9.89728 92.8466 9.74554 90.6069C9.0491 80.3307 9.54591 72.82 10.5817 67.3931C11.3448 63.3956 12.3618 60.5314 13.5385 58.5286V75.3326V84.9512V90.0756V134.721C13.5385 138.19 16.7815 141 20.7977 141C22.9834 141 24.9791 140.164 26.3128 138.847C25.4227 137.471 25.5874 135.705 26.8266 134.425Z" fill="#F8EFEF"/>
<path d="M33.6885 139.449C33.6316 139.507 33.5684 139.56 33.5081 139.615C34.7546 140.48 36.3358 141 38.059 141C39.3021 141 40.4717 140.73 41.4953 140.255C38.8623 139.648 36.6846 138.881 34.9655 138.131L33.6885 139.449Z" fill="#F8EFEF"/>
<path d="M29.4216 43.3987C36.7328 43.3987 42.6597 38.2828 42.6597 31.972C42.6597 25.6611 36.7328 20.5452 29.4216 20.5452C22.1105 20.5452 16.1836 25.6611 16.1836 31.972C16.1836 38.2828 22.1105 43.3987 29.4216 43.3987Z" fill="#F8EFEF"/>
<path d="M55.8857 95.7512C55.2338 95.9586 54.5329 96.0764 53.8008 96.0764C53.6813 96.0764 53.563 96.0737 53.4429 96.0675C52.5347 96.0218 51.6722 95.8004 50.8969 95.4349C49.7918 97.0982 46.4875 98.1412 43.3738 100.445C38.8713 103.776 33.1895 106.83 29.6518 112.752C26.5749 117.903 29.2548 129.979 30.0055 133.039L27.8673 135.245C26.789 136.357 26.9614 138.029 28.2504 138.96C29.539 139.89 31.4759 139.742 32.5541 138.629L34.6003 136.518C38.4172 138.36 44.784 140.402 53.9869 140.142C62.4696 139.903 67.7636 138.278 70.904 136.765L73.1147 139.046C74.1929 140.158 76.1298 140.307 77.4185 139.376C78.7074 138.445 78.8798 136.774 77.8016 135.661L75.3804 133.163C77.0736 130.006 82.3211 118.916 77.0356 111.364C70.8176 102.481 62.1879 100.445 58.6503 97.9465C57.2225 96.9381 56.3311 96.3225 55.8857 95.7512ZM60.7789 111.255L57.6307 113.112C56.409 112.102 55.1747 111.692 53.5453 111.692C51.5095 111.692 50.236 112.484 50.236 113.767C50.236 114.478 50.6397 115.133 51.4092 115.625C52.0875 116.062 52.4031 116.198 54.9816 117.264C59.8233 119.312 61.3683 120.705 61.3683 123.136C61.3683 125.84 58.8421 127.588 54.7236 127.916V129.863H52.3702V127.916C49.4284 127.724 47.3632 126.823 45.5083 125.321L48.5928 123.546C50.5381 124.993 51.7412 125.458 53.6412 125.458C55.5872 125.458 56.7996 124.611 56.7996 123.272C56.7996 122.535 56.342 121.825 55.5731 121.279C54.8037 120.76 54.3491 120.541 51.6795 119.394C47.2454 117.482 45.9164 116.171 45.9164 113.959C45.9164 111.446 48.2516 109.588 52.3701 109.234V107.517H54.7236V109.234C57.077 109.397 59.0145 110.053 60.7789 111.255Z" fill="#F8EFEF"/>
<path d="M59.9575 89.3447C62.6456 87.4138 65.8261 85.4823 65.9668 83.5109C66.0551 82.2719 63.2724 80.9008 60.1837 80.045C60.219 82.9676 60.1436 86.0681 59.9575 89.3447Z" fill="#F8EFEF"/>
<path d="M47.7961 89.7419C47.9615 87.1002 48.0489 84.6471 48.0663 82.3796C44.2124 81.4329 39.2755 79.9552 37.9868 81.2901C36.1627 83.1795 43.3487 86.5769 47.7961 89.7419Z" fill="#F8EFEF"/>
<path d="M67.2457 60.0057L61.6108 62.7565L66.0268 69.3301L71.6694 66.5038C72.6687 67.5371 73.7739 68.4839 74.971 69.3465L71.7133 74.2134L79.3621 78.0234L82.5921 73.1586C84.04 73.618 85.3182 73.9624 87.0833 74.1934V79.585H95.9087V74.1934C97.6737 73.9624 99.002 73.6171 100.45 73.1577L103.716 78.0216L111.372 74.2098L108.118 69.3393C109.315 68.4767 110.422 67.5228 111.421 66.4894L117.064 69.3014L121.481 62.6991L115.846 60.0056C116.378 58.7559 116.778 57.2393 117.046 56.2235H123.561V48.6057H117.046C116.778 47.0821 116.378 45.841 115.846 44.5913L121.481 41.7243L117.065 35.0926L111.422 37.8898C110.423 36.8565 109.318 35.8952 108.121 35.0326L111.379 30.1585L103.73 26.3448L100.45 31.2078C99.002 30.7483 97.6737 30.4022 95.9087 30.1711V24.7365H87.0833V30.1713C85.3182 30.4023 84.04 30.7476 82.5921 31.207L79.3504 26.3431L71.7074 30.1549L74.9681 35.0254C73.7709 35.888 72.6672 36.842 71.668 37.8753L66.0261 35.0633L61.6105 41.6657L67.2455 44.5914C66.7133 45.8411 66.3134 47.0822 66.0458 48.6058H59.4304V56.2236H66.0458C66.3134 57.2393 66.7135 58.756 67.2457 60.0057ZM91.5459 35.8232C102.013 35.8232 110.498 43.1474 110.498 52.1824C110.498 61.2173 102.013 68.5416 91.5459 68.5416C81.0789 68.5416 72.5936 61.2173 72.5936 52.1824C72.5936 43.1474 81.0789 35.8232 91.5459 35.8232Z" fill="white"/>
<path d="M97.4649 57.2926C100.734 54.4704 100.734 49.8948 97.4649 47.0726C94.1954 44.2505 88.8945 44.2505 85.625 47.0727C82.3555 49.8948 82.3555 54.4704 85.625 57.2926C88.8945 60.1147 94.1954 60.1147 97.4649 57.2926Z" fill="#F8EFEF"/>
</g>
<defs>
<clipPath id="clip0_123_3105">
<rect width="152" height="141" fill="white"/>
</clipPath>
</defs>
</svg>
