<svg width="81" height="91" viewBox="0 0 81 91" fill="none" xmlns="http://www.w3.org/2000/svg">
<path fill-rule="evenodd" clip-rule="evenodd" d="M63.83 58.7631H53.9071C51.956 58.7631 51.956 55.9343 53.9071 55.9343H63.83C65.7811 55.9343 65.7811 58.7631 63.83 58.7631ZM65.7254 91H15.2746C11.0936 91 7.7488 87.7977 7.7488 83.8481V17.773C7.7488 13.8235 11.0936 10.6211 15.2746 10.6211H26.3682L29.2113 6.13783C29.4343 5.71085 29.936 5.44399 30.4377 5.44399H33.448C35.0089 -1.81466 45.9353 -1.81466 47.552 5.44399H50.5065C51.064 5.44399 51.51 5.71085 51.7887 6.13783L54.6318 10.6211H65.7254C69.8507 10.6211 73.2512 13.8235 73.2512 17.773V83.8481C73.2512 87.7977 69.8507 91 65.7254 91ZM28.4866 12.7026L25.9222 16.8123H55.022L49.6703 8.27273H46.214C45.3778 8.27273 44.7089 7.63226 44.7089 6.83167C44.7089 4.6434 42.8135 2.82874 40.4721 2.82874C38.1308 2.82874 36.2354 4.6434 36.2354 6.83167C36.2354 7.63226 35.6222 8.27273 34.786 8.27273H31.2739L28.4866 12.7026ZM24.5843 13.4499H15.2746C12.766 13.4499 10.7034 15.3713 10.7034 17.773V83.8481C10.7034 86.2499 12.766 88.1713 15.2746 88.1713H65.7254C68.234 88.1713 70.2409 86.2499 70.2409 83.8481V17.773C70.2409 15.3713 68.234 13.4499 65.7254 13.4499H56.4157C56.9174 14.2504 59.203 17.5062 59.203 18.2534C59.203 19.054 58.4226 19.6944 57.6979 19.6411H23.3021C22.1315 19.6411 21.4067 18.4669 22.02 17.5062L24.5843 13.4499ZM40.4721 10.4076C36.1796 10.4076 36.1796 4.16305 40.4721 4.16305C44.7646 4.16305 44.7646 10.4076 40.4721 10.4076ZM40.4721 7.04516C40.1376 7.04516 40.1376 7.57889 40.4721 7.57889C40.8624 7.57889 40.8624 7.04516 40.4721 7.04516ZM1.50516 49.2094C0.668961 49.2094 0 48.6223 0 47.8217V20.7085C0 18.8405 2.95458 18.8405 2.95458 20.7085V47.8217C2.95458 48.6223 2.28562 49.2094 1.50516 49.2094ZM79.4948 82.3537C78.6586 82.3537 77.9897 81.7132 77.9897 80.966V53.7994C77.9897 51.9314 81 51.9314 81 53.7994V80.966C81 81.7132 80.331 82.3537 79.4948 82.3537ZM27.3716 38.5349H17.17C16.3338 38.5349 15.6648 37.8944 15.6648 37.0938V27.2733C15.6648 26.5261 16.3338 25.8856 17.17 25.8856H27.3716C28.0406 25.8856 28.5423 26.2592 28.7653 26.7396C29.3785 26.2059 30.5492 25.085 31.6084 26.2059C32.1659 26.793 32.1101 27.7003 31.4969 28.234L28.8768 30.4757V37.0938C28.8768 37.8944 28.2078 38.5349 27.3716 38.5349ZM18.6752 35.6528H25.9222V33.0375C23.1906 35.3326 23.6924 35.1724 20.0131 32.0768C18.5079 30.8493 20.459 28.7144 21.9642 29.9419L23.5251 31.2762L25.9222 29.1947V28.7144H18.6752V35.6528ZM27.3716 60.3109H17.17C16.3338 60.3109 15.6648 59.6704 15.6648 58.8698V49.1026C15.6648 48.3021 16.3338 47.6616 17.17 47.6616H27.3716C28.0406 47.6616 28.5423 48.0352 28.7653 48.5689C29.3785 48.0352 30.5492 46.861 31.6084 48.0352C32.1659 48.6223 32.1101 49.4762 31.4969 50.01L28.8768 52.2516V58.8698C28.8768 59.6704 28.2078 60.3109 27.3716 60.3109ZM18.6752 57.4287H25.9222V54.8135C23.1906 57.1085 23.6924 57.0018 20.0131 53.8528C18.5079 52.6252 20.459 50.4903 21.9642 51.7179L23.5251 53.0522L25.9222 51.024V50.4903H18.6752V57.4287ZM27.3716 82.0868H17.17C16.3338 82.0868 15.6648 81.4463 15.6648 80.6458V70.8786C15.6648 70.078 16.3338 69.4375 17.17 69.4375H27.3716C28.0406 69.4375 28.5423 69.8111 28.7653 70.3449C29.3785 69.8111 30.5492 68.637 31.6084 69.8111C32.1659 70.3982 32.1101 71.3056 31.4969 71.7859L28.8768 74.0809V80.6458C28.8768 81.4463 28.2078 82.0868 27.3716 82.0868ZM18.6752 79.2581H25.9222V76.5894C23.1906 78.9378 23.6924 78.7777 20.0131 75.6821C18.5079 74.4545 20.459 72.2663 21.9642 73.4938L23.5251 74.8282L25.9222 72.8V72.2663H18.6752V79.2581ZM63.83 30.2622H38.521C36.5699 30.2622 36.5699 27.3801 38.521 27.3801H63.83C65.7811 27.3801 65.7811 30.2622 63.83 30.2622ZM63.83 36.9871H53.9071C51.956 36.9871 51.956 34.1584 53.9071 34.1584H63.83C65.7811 34.1584 65.7811 36.9871 63.83 36.9871ZM63.83 73.8141H38.521C36.5699 73.8141 36.5699 70.9853 38.521 70.9853H63.83C65.7811 70.9853 65.7811 73.8141 63.83 73.8141ZM63.83 80.539H53.9071C51.956 80.539 51.956 77.7103 53.9071 77.7103H63.83C65.7811 77.7103 65.7811 80.539 63.83 80.539ZM63.83 52.0381H38.521C36.5699 52.0381 36.5699 49.2094 38.521 49.2094H63.83C65.7811 49.2094 65.7811 52.0381 63.83 52.0381Z" fill="#00FFF0"/>
</svg>
